<?xml version="1.0" encoding="UTF-8"?>
<svg width="16px" height="16px" viewBox="0 0 16 16" version="1.1" xmlns="http://www.w3.org/2000/svg" xmlns:xlink="http://www.w3.org/1999/xlink">
    <!-- Generator: Sketch 54.1 (76490) - https://sketchapp.com -->
    <title>close-button-dark</title>
    <desc>Created with Sketch.</desc>
    <g id="Page-1" stroke="none" stroke-width="1" fill="none" fill-rule="evenodd">
        <g id="close-button-dark" transform="translate(-4.000000, -4.000000)">
            <polygon id="Path" points="0 0 24 0 24 24 0 24"></polygon>
            <path d="M10.586,12 L4.293,5.707 C3.91402779,5.31462111 3.91944763,4.69091522 4.30518142,4.30518142 C4.69091522,3.91944763 5.31462111,3.91402779 5.707,4.293 L12,10.586 L18.293,4.293 C18.6853789,3.91402779 19.3090848,3.91944763 19.6948186,4.30518142 C20.0805524,4.69091522 20.0859722,5.31462111 19.707,5.707 L13.414,12 L19.707,18.293 C20.0859722,18.6853789 20.0805524,19.3090848 19.6948186,19.6948186 C19.3090848,20.0805524 18.6853789,20.0859722 18.293,19.707 L12,13.414 L5.707,19.707 C5.45592553,19.9669566 5.08412211,20.0712126 4.73449268,19.9796972 C4.38486324,19.8881817 4.11181828,19.6151368 4.02030284,19.2655073 C3.9287874,18.9158779 4.03304342,18.5440745 4.293,18.293 L10.586,12 Z" id="Path" fill="#000000" fill-rule="nonzero"></path>
        </g>
    </g>
</svg>