<svg xmlns="http://www.w3.org/2000/svg" width="18" height="18" viewBox="0 0 18 18">
    <g fill="none" fill-rule="evenodd">
        <path fill="#4A4A4A" d="M0 5.607c0-.272.142-.523.374-.664L8.333.117a.776.776 0 0 1 .786-.01l8.49 4.84A.776.776 0 0 1 18 5.62v11.603a.776.776 0 0 1-.776.776H.776A.776.776 0 0 1 0 17.224V5.607zm9.81-3.35a1.552 1.552 0 0 0-1.631-.01L2.247 5.855a.485.485 0 0 0 0 .829l5.93 3.608a1.552 1.552 0 0 0 1.634-.013l5.725-3.61a.485.485 0 0 0 0-.821L9.81 2.257zm-1.229 2.95l-.853.804a.216.216 0 0 1-.293 0l-.305-.288a.188.188 0 0 1 0-.277l1.728-1.631a.216.216 0 0 1 .293 0l1.729 1.631c.08.077.08.2 0 .277l-.306.288a.216.216 0 0 1-.293 0l-.853-.805v2.01c0 .108-.093.196-.207.196h-.432c-.115 0-.208-.088-.208-.196v-2.01z"/>
        <path d="M-3-3h24v24H-3z"/>
    </g>
</svg>
