<svg xmlns="http://www.w3.org/2000/svg" width="32" height="31" viewBox="0 0 32 31">
    <g fill="none" fill-rule="nonzero">
        <path d="M-1-1h34v34H-1z"/>
        <path fill="#C8D4DF" d="M16 5.034l-3.107 6.295a1.417 1.417 0 0 1-1.066.774l-6.95 1.016 5.028 4.898c.334.325.487.794.408 1.254l-1.186 6.917 6.214-3.268a1.417 1.417 0 0 1 1.318 0l6.214 3.268-1.186-6.917c-.079-.46.074-.929.408-1.254l5.028-4.898-6.95-1.016a1.417 1.417 0 0 1-1.066-.774L16 5.034zm-5.319 4.373l4.049-8.2c.52-1.054 2.02-1.054 2.54 0l4.049 8.2 9.053 1.324c1.161.17 1.624 1.597.783 2.416l-6.55 6.38 1.546 9.012c.199 1.157-1.016 2.04-2.055 1.493L16 25.775l-8.096 4.257c-1.039.547-2.254-.336-2.055-1.493l1.545-9.012-6.55-6.38c-.84-.819-.377-2.246.784-2.416l9.053-1.324z"/>
    </g>
</svg>
