<svg xmlns="http://www.w3.org/2000/svg" width="292" height="176" viewBox="0 0 292 176">
    <g fill="none" fill-rule="evenodd" stroke-linecap="round" stroke-linejoin="round" stroke-width="1.92">
        <path fill="#CAE4FE" stroke="#CAE4FE" d="M1.415 174h289.106M188.017 57.777c8.09 7.011 11.29 16.264 14.52 26.2 3.25 10.003 2.535 17.972 1.238 28.238-3.616 28.624-33.944 36.87-58.821 36.001-4.473-.156-21.277-1.252-24.916-3.231-1.133-.616-1.491-12.972-.75-14.332.556-1.02 11.983 1.304 13.02 1.427 15.214 1.803 31.677 1.365 44.248-8.871 13.792-11.23 15.466-28.913 10.18-44.644-1.224-3.64-9.323-11.765-9.281-12.963.04-1.136 8.105-6.787 9.322-8.146l1.24.32z"/>
        <path fill="#FFF" stroke="#CAE4FE" d="M174.686 43.956c-15.748.241-14.621 28.04 1.954 25.213 10.636-1.813 15.267-16.74 6.935-21.975-4.426-2.85-8.889-3.238-8.889-3.238zM111.843 141.564c.8-3.948 2.59-34.818 3.582-35.743.84-.782 4.3.466 5.182.719.966.278 3.59.315 4.272 1.046.219.234-1.241 35.816-1.807 36.343-1.268 1.18-11.53 1.098-11.452-1.117l.223-1.248z"/>
        <path fill="#CAE4FE" stroke="#CAE4FE" d="M99.927 94.42c22.402 10.145 48.36 20.2 50.73 21.736.69.447-1.796 6.347-2.385 7.032-11.383-4.902-50.728-20.83-51.608-22.254l3.263-6.514z"/>
        <path fill="#FFF" stroke="#CAE4FE" d="M190.417 99.115c-3.253-1.765-6.938-2.072-10.484-1.117-13.649 3.679-14.465 24.284.386 27.042 14.221 2.641 22.466-18.01 10.488-25.507l-.39-.418z"/>
        <path fill="#CAE4FE" stroke="#CAE4FE" d="M185.857 106.401c-1.338-.686-2.852-.808-4.308-.44-5.605 1.412-5.923 9.387.18 10.466 5.846 1.035 9.217-6.952 4.29-9.864l-.162-.162z"/>
        <g stroke="#CAE4FE">
            <path fill="#FFF" d="M175.385 16.444c1.472-1.101 1.92-4.202 3.84-4.767.502-.148 10.627 7.571 11.013 8.642.023.063-2.925 3.193-3.482 3.394l-11.371-7.269z"/>
            <path fill="#CAE4FE" d="M174.826 8.044c-.987-.65 3.338-6.687 4.055-6.84 1.05-.224 18.75 13.418 20.012 15.459.418.675-3.353 5.167-4.05 5.651-.568.396-4.22-2.467-4.87-2.85l-15.147-11.42z"/>
            <path fill="#FFF" d="M168.435 15.306c5.03-2.781 20.952 8.142 22.865 13.448-10.934 18.367-37.958 57.252-38.111 57.663-.324.868-18.478-11.797-21.657-13.94l36.903-57.17z"/>
            <path fill="#CAE4FE" d="M142.278 57.484c1.555.5 5.074 4.058 6.071 2.63 12.242-17.516 17.69-25.495 17.21-26.008-1.249-1.338-4.351-2.648-5.93-3.782l-17.35 27.16zM133.196 73.711c.52 1.23-2.52 5.858-1.828 6.787 1.624 2.179 11.792 8.12 12.445 7.981 1.364-.29 3.194-3.754 4.34-4.714l-14.957-10.054z"/>
            <path d="M132.655 82.013c-3.437 4.743 4.879 10.493 8.423 5.47l-8.423-5.47z"/>
        </g>
        <g stroke="#CAE4FE">
            <path d="M136.033 67.113a277.182 277.182 0 0 1 11.385 6.868M138.983 61.487c2.542 2.266 5.591 3.81 8.139 6.015"/>
        </g>
        <g fill="#FFF" stroke="#CAE4FE">
            <path d="M206.076 134.307c7.346 5.576-4.727 11.281 2.499 17.12M201.701 138.645c3.98 4.24-2.816 8.196.408 12.401M194.956 162.033c-5.109.58-3.563 9 1.384 6.487M198.52 173.388c-1.35-3.293-4.452-16.28-3.394-16.35 9.306-.623 15.158-.262 20.188-.087 1.534.054-1.153 14.639-2.54 16.376l-14.255.06z"/>
        </g>
        <g stroke="#CAE4FE">
            <path fill="#FFF" d="M221.593 27.645c.55 6.448.876 12.925.648 19.447-.329 9.41.911 19.189-1.254 28.306-.302 1.273 17.701 2.98 20.599 3.082 23.014.804 28.271-18.968 28.912-37.315.113-3.234 1.016-10.209-.338-13.136l-48.567-.384z"/>
            <path fill="#FFF" d="M259.513 47.232c-.05-3.175-5.549-1.82-4.889.99.743 3.162 4.45 2.498 4.891-.302l-.002-.688zM235.568 41.8c-2.514 2.293 2.997 5.509 4.727 3.01 1.947-2.81-1.568-5.155-4.176-3.502l-.551.491zM232.308 65.75c-3.26 1.358.853 5.937 3.436 4.159 2.905-2 .39-5.19-2.725-4.446l-.71.287zM247.019 59.29c1.946-4.907-7.884-6.355-8.604-1.616-.809 5.331 5.659 6.69 8.169 2.674l.435-1.058zM236.122 65.427c.975-1.341 2.159-2.5 3.106-3.85M246.36 55.89c3.435-1.749 6.856-3.538 10.1-5.583M238.756 46.72c.787 2.279 1.086 4.732 1.737 6.987"/>
            <path fill="#CAE4FE" d="M270.138 28.028c1.013 2.815.795 6.018.604 8.947-45.611-.628-40.16-.511-48.665-.731-.182-5.253-.038-2.398-.485-8.564l48.546.348z"/>
            <path fill="#FFF" d="M249.593 76.78c3.315-2.887 1.641-10.995 1.533-11.888-.077-.631 10.793-.95 15.906-5.312"/>
        </g>
        <path stroke="#CAE4FE" d="M138.692 98.901c1.256-.63 2.523-1.365 3.762-1.93M138.726 104.683c1.773.513 3.62.746 5.393 1.165"/>
        <path fill="#FFF" stroke="#CAE4FE" d="M117.295 80.314a24.9 24.9 0 0 1 1.799 4.513M109.237 86.135c1.526.994 2.912 2.032 4.576 2.766M85.143 158.785c.484-4.606 1.105-12.644 5.381-14.597 9.51-4.34 56.915-2.969 66.227 1.134 3.213 1.416 5.34 10.416 4.409 14.345l-76.017-.882z"/>
        <path fill="#CAE4FE" stroke="#CAE4FE" d="M70.431 172.534c2.442-7.157 5.178-17.519 14.44-17.195 9.229.322 61.225-.88 77.81 2.226 6.045 1.132 11.344 8.312 13.263 16.127L70.43 172.534z"/>
        <path fill="#FFF" stroke="#CAE4FE" d="M81.785 172.327c.477-1.104-.17-9.116.953-9.52 1.527-.549 26.766.001 26.763.067-.126 3.612.048 7.964-.022 9.986l-27.694-.533z"/>
        <g stroke="#CAE4FE">
            <path fill="#CAE4FE" d="M244.501 108.893c-5.26-.648-9.456 1.466-13.18 4.994-17.554 16.628-4.457 42.748 19.57 37.531 13.12-2.848 20.976-26.602 5.635-38.347-2.637-2.02-6.82-3.27-10.127-3.87l-1.898-.308z"/>
            <path fill="#FFF" d="M245.593 85.174c-4.86-.023-2.966 8.416 1.356 7.496 4.864-1.036 3.968-6.717-.303-7.479l-1.053-.017zM245.066 92.73c-.31 6.596-.945 13.107-1.44 19.627M244.707 108.846c-.13 3.755-.571 19.234-.662 21.82-.023.671 14.676 9.775 17.844 11.507 3.272-5.33 3.922-11.798 1.95-19.403-1.972-7.605-8.349-12.247-19.132-13.924z"/>
            <path d="M247.681 101.993l-3.16-.437.43-5.176 3.35.317c20.956 2.481 33.992 21.702 28.138 43.588-4.64 17.35-19.386 24.96-36.967 22.773v-5.066c15.098 1.877 27.948-4.459 31.862-19.092 5.01-18.733-5.89-34.804-23.653-36.907zM239.064 150.854l-.198 18.762.198-18.762z"/>
            <path fill="#FFF" d="M222.43 174.386c.775-2.728 5.008-7.841 8.287-7.841 3.266 0 15.073-.03 20.975.922 2.151.347 7.47 4 8.246 6.92H222.43z"/>
        </g>
        <path fill="#CAE4FE" stroke="#CAE4FE" d="M65.503 138.443c-4.398-5.872 1.097-5.734 3.114-9.334 1.36-2.428.286-5.582 2.06-7.842 2.896-3.687 9.308-1.411 10.17 2.802.813 3.965-3.262 4.714-5.288 6.86-1.077 1.142-2.11 14.484-9.56 7.618l-.496-.104zM53.1 142.617c-6.618 1.344-11.17-4.476-10.2-10.178.65-3.817 4.636-6.079 4.22-10.273-.38-3.844-5.582-5.835-2.85-10.52 1.262-2.163 4.608-3.242 5.094-5.81.633-3.34-3.013-5.661-2.39-8.947.606-3.199 4.762-3.78 6.396-6.244 3.207-4.834-1.824-15.279 10.899-13.513 4.315.6 9.58 4.97 7.778 9.494-.927 2.328-3.959 4.1-4.601 6.427-.801 2.903 2.31 6.5.707 9.247-1.222 2.095-5.407 3.168-5.858 5.545-.68 3.594 3.648 6.278 2.354 10.023-1.168 3.379-6.797 4.02-7.588 7.16-1.378 5.474 5.225 13.107-1.887 17.182l-2.074.407z"/>
        <path stroke="#FFF" d="M62.427 148.043c2.453-8.076 6.815-15.489 12.093-21.373M64.002 83.976c-10.363 20.88-12.04 44.821-12.863 68.424"/>
        <path fill="#CAE4FE" stroke="#CAE4FE" d="M34.163 142.544c-10.334-.332-2.249-7.204-10.35-13.08-6.229-4.52-1.83-6.623-4.849-10.7-1.995-2.697-6.217-2.553-8.238-5.007-2.378-2.887.079-6.278-1.347-9.21-1.648-3.388-6.236-5.06-6.864-9.06-.68-4.337 3.449-10.48 8.989-8.166 4.575 1.91 4.745 6.938 7.473 10.313 1.902 2.353 6.032 2.452 8.332 4.394 3.266 2.755 1.586 6.244 3.742 9.157 1.415 1.912 4.069 2.548 5.273 4.765 1.872 3.447-1.865 6.413-.334 9.562.773 1.587 2.097 2.932 2.963 4.48 2.457 4.393 1.91 12.854-5.155 12.607l.365-.055z"/>
        <path stroke="#FFF" d="M14.8 105.143c12.288 13.255 21.483 30.98 22.736 48.744"/>
        <path fill="#FFF" stroke="#CAE4FE" d="M39.526 172.31c-1.99-4.532-6.414-20.814-4.862-20.908 13.646-.826 22.183-.26 29.56-.003 2.25.079-2.176 18.51-4.203 20.893l-20.495.017z"/>
        <path fill="#FFF" stroke="#CAE4FE" d="M32.413 147.386c6.338-.209 31.844-.525 33.529-.208.49.092.377 4.33.214 4.968-7.495.138-33.158 1.294-33.989.603l.246-5.363z"/>
    </g>
</svg>
