<svg xmlns="http://www.w3.org/2000/svg" width="24" height="6" viewBox="0 0 24 6">
    <g fill="none" fill-rule="evenodd">
        <path d="M-1-9h24v24H-1z"/>
        <path fill="#252629" fill-rule="nonzero" d="M3.111.333A2.663 2.663 0 0 0 .444 3a2.663 2.663 0 0 0 2.667 2.667A2.663 2.663 0 0 0 5.778 3 2.663 2.663 0 0 0 3.11.333zm17.778 0A2.663 2.663 0 0 0 18.222 3a2.663 2.663 0 0 0 2.667 2.667A2.663 2.663 0 0 0 23.556 3 2.663 2.663 0 0 0 20.889.333zM12 .333A2.663 2.663 0 0 0 9.333 3 2.663 2.663 0 0 0 12 5.667 2.663 2.663 0 0 0 14.667 3 2.663 2.663 0 0 0 12 .333z"/>
    </g>
</svg>
