<svg xmlns="http://www.w3.org/2000/svg" xmlns:xlink="http://www.w3.org/1999/xlink" width="120" height="119" viewBox="0 0 120 119">
    <defs>
        <rect id="a" width="120" height="119" rx="4"/>
    </defs>
    <g fill="none" fill-rule="evenodd">
        <mask id="b" fill="#fff">
            <use xlink:href="#a"/>
        </mask>
        <use fill="#EAEAEA" xlink:href="#a"/>
        <g fill-rule="nonzero" mask="url(#b)" opacity=".3">
            <path fill="#000" d="M66.593 64.378H53.407v-2.654l3.956-6.632 5.418 6.632 3.812-2.653zM66.593 55.755c0 1.098-.886 1.99-1.978 1.99a1.985 1.985 0 0 1-1.978-1.99c0-1.098.887-1.99 1.978-1.99 1.092 0 1.978.892 1.978 1.99z"/>
            <path fill="#000" d="M52.062 50.436a.648.648 0 0 0-.647.65v15.971c0 .36.29.65.647.65h15.876a.648.648 0 0 0 .647-.65V51.086c0-.36-.29-.65-.647-.65H52.062zm0-1.3h15.876c1.071 0 1.939.873 1.939 1.95v15.971c0 1.077-.868 1.95-1.939 1.95H52.062a1.944 1.944 0 0 1-1.939-1.95V51.086c0-1.077.868-1.95 1.939-1.95z"/>
            <path fill="#000" d="M47.347 47.657a.932.932 0 0 1 0-1.314.92.92 0 0 1 1.306 0l24 24.143c.36.363.36.95 0 1.313a.92.92 0 0 1-1.306 0l-24-24.142z"/>
            <path fill="#EAEAEA" d="M48.597 50.114l.653-.656 21.81 21.964-.653.656z"/>
        </g>
    </g>
</svg>
