<svg xmlns="http://www.w3.org/2000/svg" width="370" height="119" viewBox="0 0 370 119">
    <g fill="none" fill-rule="evenodd">
        <path fill="#CAE4FE" d="M0 118c13.376-14.31 17.448-29.685 35.26-30.236 22.051-.683 20.498-39.912 36.151-42.66 19.325-3.392 22.317 4.056 33.073 8.035 21.054 7.79 39.322 1.854 59.767-15.511 10.12-8.596 34.787-18.592 47.305-14.802 23.496 7.115 24.4 29.456 53.112 34.128 14.78 2.405 29.392-7.013 46.864-1.422 36.152 11.57 6.146 32.991 29.903 34.602C362.413 91.556 370 110.304 370 118H0z"/>
        <path fill="#FFF" d="M192.891 118c.372-18.997-58.632-47.086-37.203-51.32 5.725-1.131 18.95-1.162 31.479 2.352C206.485 74.45 211 99.519 211 117.843l-18.109.157z"/>
        <path stroke="#CAE4FE" stroke-linecap="round" stroke-linejoin="round" stroke-width="2" d="M192.891 118c.372-18.997-58.632-47.086-37.203-51.32 5.725-1.131 18.95-1.162 31.479 2.352C206.485 74.45 211 99.519 211 117.843l-18.109.157z"/>
        <path fill="#FFF" d="M191.518 70L173 89.255 179.92 96 199 76.854z"/>
        <path stroke="#CAE4FE" stroke-width="2" d="M191.518 70L173 89.255 179.92 96 199 76.854z"/>
        <path fill="#FFF" d="M126 118c.367-19.249 2.96-47.234 24.17-51.524 5.667-1.146 12.276-.11 17.887 1.907C186.814 75.127 192 99.433 192 118h-66z"/>
        <path stroke="#CAE4FE" stroke-linecap="round" stroke-linejoin="round" stroke-width="2" d="M126 118c.367-19.249 2.96-47.234 24.17-51.524 5.667-1.146 12.276-.11 17.887 1.907C186.814 75.127 192 99.433 192 118h-66z"/>
        <path fill="#FFF" d="M202.032 51.335c-2.976 2.33-5.06 5.746-7.534 8.705-7.398 8.85-5.675 20.14 5.206 18.86 6.193-.729 12.078-9.415 15.48-14.218 6.232-8.799-4.932-20.625-13.015-13.492l-.137.145z"/>
        <path stroke="#CAE4FE" stroke-linecap="round" stroke-linejoin="round" stroke-width="2" d="M202.032 51.335c-2.976 2.33-5.06 5.746-7.534 8.705-7.398 8.85-5.675 20.14 5.206 18.86 6.193-.729 12.078-9.415 15.48-14.218 6.232-8.799-4.932-20.625-13.015-13.492l-.137.145z"/>
        <path fill="#FFF" d="M203.917 51c1.769 3.709 4.646 6.497 7.726 8.793 1.733.92 3.556 1.623 5.357 2.36-.19 1.496-.863 2.786-1.605 4.012-1.333 1.959-2.607 3.975-4.051 5.835-6.511-1.043-12.233-6.617-14.344-13.487 1.561-2.36 3.34-4.48 5.375-6.322l.136-.152c.954-.809.48-.472 1.406-1.039z"/>
        <path stroke="#CAE4FE" stroke-linecap="round" stroke-linejoin="round" stroke-width="2" d="M203.917 51c1.769 3.709 4.646 6.497 7.726 8.793 1.733.92 3.556 1.623 5.357 2.36-.19 1.496-.863 2.786-1.605 4.012-1.333 1.959-2.607 3.975-4.051 5.835-6.511-1.043-12.233-6.617-14.344-13.487 1.561-2.36 3.34-4.48 5.375-6.322l.136-.152c.954-.809.48-.472 1.406-1.039z"/>
        <path fill="#FFF" d="M143.028 118c0-10.521-.028-16.712-.028-20.867 0-.104 12.528-.168 12.547-.112.363 1.078.453 18.308.453 20.979h-12.972z"/>
        <path stroke="#CAE4FE" stroke-linecap="round" stroke-linejoin="round" stroke-width="2" d="M143.028 118c0-10.521-.028-16.712-.028-20.867 0-.104 12.528-.168 12.547-.112.363 1.078.453 18.308.453 20.979h-12.972z"/>
        <path fill="#FFF" d="M207.638 48c6.656.49 11.451 8.103 8.445 14.918-6.36.814-15.358-4.5-13.932-12.728 1.92-1.674 3.136-1.96 5.487-2.19z"/>
        <path stroke="#CAE4FE" stroke-linecap="round" stroke-linejoin="round" stroke-width="2" d="M207.638 48c6.656.49 11.451 8.103 8.445 14.918-6.36.814-15.358-4.5-13.932-12.728 1.92-1.674 3.136-1.96 5.487-2.19z"/>
        <path stroke="#FFF" stroke-linecap="round" stroke-linejoin="round" stroke-width="2" d="M214.052 117c-.663-9.21 5.124-14.993 9.948-22M217 97c1.095 8.072 1.313 8.172 8 5.244M214 104c1.98 5.514 4.109 4.506 8 1.87M227 117c.59-6.21 4.12-10.32 8-14M115 103c3.035 3.988 4 9.972 4 15M113 106.153c4.54 1.594 4.498 1.148 6-3.153M115 112.74c4.688 2.246 4.723 1.582 7-2.74M105 104c4.505 2.481 6.93 8.51 8 14"/>
        <path fill="#FFF" d="M105 114c.54 1.18.918 2.55 1 4"/>
        <path stroke="#FFF" stroke-linecap="round" stroke-linejoin="round" stroke-width="2" d="M105 114c.54 1.18.918 2.55 1 4M222 118c.107-4.6 1.803-7.917 4-11"/>
        <path fill="#FFF" d="M295 22.934c3.294 2.412 4.651 4.133 4.799 4.064 3.38-2.96 5.495-3.613 5.168-3.869-2.018-1.578-2.215-2.08-4.707-4.129L295 22.934z"/>
        <path stroke="#CAE4FE" stroke-linecap="round" stroke-linejoin="round" stroke-width="2" d="M295 22.934c3.294 2.412 4.651 4.133 4.799 4.064 3.38-2.96 5.495-3.613 5.168-3.869-2.018-1.578-2.215-2.08-4.707-4.129L295 22.934z"/>
        <path fill="#FFF" d="M164 6.804C162.324 3.205 161.932.98 161.784 1c-3.954 1.852-5.935 1.788-5.775 2.162.985 2.306.938 2.888 2.115 5.838L164 6.804z"/>
        <path stroke="#CAE4FE" stroke-linecap="round" stroke-linejoin="round" stroke-width="2" d="M164 6.804C162.324 3.205 161.932.98 161.784 1c-3.954 1.852-5.935 1.788-5.775 2.162.985 2.306.938 2.888 2.115 5.838L164 6.804z"/>
        <path fill="#FFF" d="M72 74.934c3.294 2.412 4.651 4.133 4.799 4.064 3.38-2.96 5.495-3.613 5.168-3.869-2.018-1.578-2.215-2.08-4.707-4.129L72 74.934z"/>
        <path stroke="#CAE4FE" stroke-linecap="round" stroke-linejoin="round" stroke-width="2" d="M72 74.934c3.294 2.412 4.651 4.133 4.799 4.064 3.38-2.96 5.495-3.613 5.168-3.869-2.018-1.578-2.215-2.08-4.707-4.129L72 74.934z"/>
        <path fill="#FFF" d="M299 74.934c3.294 2.412 4.651 4.133 4.799 4.064 3.38-2.96 5.495-3.613 5.168-3.869-2.018-1.578-2.215-2.08-4.707-4.129L299 74.934z"/>
        <path stroke="#CAE4FE" stroke-linecap="round" stroke-linejoin="round" stroke-width="2" d="M299 74.934c3.294 2.412 4.651 4.133 4.799 4.064 3.38-2.96 5.495-3.613 5.168-3.869-2.018-1.578-2.215-2.08-4.707-4.129L299 74.934z"/>
        <path fill="#FFF" d="M252 97.62c3.575 1.258 5.343 2.49 5.432 2.372 1.468-4.035 2.872-5.384 2.51-5.525-2.23-.87-2.59-1.296-5.385-2.467L252 97.62z"/>
        <path stroke="#CAE4FE" stroke-linecap="round" stroke-linejoin="round" stroke-width="2" d="M252 97.62c3.575 1.258 5.343 2.49 5.432 2.372 1.468-4.035 2.872-5.384 2.51-5.525-2.23-.87-2.59-1.296-5.385-2.467L252 97.62z"/>
        <path fill="#FFF" d="M161 118c0-10.431.03-16.749.03-20.868 0-.103 12.5-.167 12.518-.111.362 1.069.452 18.33.452 20.979h-13z"/>
        <path stroke="#CAE4FE" stroke-linecap="round" stroke-linejoin="round" stroke-width="2" d="M161 118c0-10.431.03-16.749.03-20.868 0-.103 12.5-.167 12.518-.111.362 1.069.452 18.33.452 20.979h-13z"/>
        <path fill="#FFF" d="M20 55.934c3.294 2.412 4.651 4.133 4.799 4.064 3.38-2.96 5.495-3.613 5.168-3.869-2.018-1.578-2.215-2.08-4.707-4.129L20 55.934z"/>
        <path stroke="#CAE4FE" stroke-linecap="round" stroke-linejoin="round" stroke-width="2" d="M20 55.934c3.294 2.412 4.651 4.133 4.799 4.064 3.38-2.96 5.495-3.613 5.168-3.869-2.018-1.578-2.215-2.08-4.707-4.129L20 55.934z"/>
        <path fill="#FFF" d="M119 25.934c3.294 2.412 4.651 4.133 4.799 4.064 3.38-2.96 5.495-3.613 5.168-3.869-2.018-1.578-2.215-2.08-4.707-4.129L119 25.934z"/>
        <path stroke="#CAE4FE" stroke-linecap="round" stroke-linejoin="round" stroke-width="2" d="M119 25.934c3.294 2.412 4.651 4.133 4.799 4.064 3.38-2.96 5.495-3.613 5.168-3.869-2.018-1.578-2.215-2.08-4.707-4.129L119 25.934z"/>
        <path fill="#FFF" d="M361 68.804c-1.676-3.599-2.068-5.824-2.216-5.804-3.954 1.852-5.935 1.788-5.775 2.162.985 2.306.938 2.888 2.115 5.838L361 68.804z"/>
        <path stroke="#CAE4FE" stroke-linecap="round" stroke-linejoin="round" stroke-width="2" d="M361 68.804c-1.676-3.599-2.068-5.824-2.216-5.804-3.954 1.852-5.935 1.788-5.775 2.162.985 2.306.938 2.888 2.115 5.838L361 68.804z"/>
    </g>
</svg>
