<svg xmlns="http://www.w3.org/2000/svg" xmlns:xlink="http://www.w3.org/1999/xlink" width="380" height="216" viewBox="0 0 380 216">
    <defs>
        <linearGradient id="a" x1="100%" x2="1.621%" y1="34.466%" y2="65.641%">
            <stop offset="0%" stop-color="#624FC8"/>
            <stop offset="100%" stop-color="#332797"/>
        </linearGradient>
        <path id="b" d="M3.673 0l3.69 3.741L3.69 7.305 0 3.564z"/>
        <path id="c" d="M4.631 5.275c-1.316.86-3.145.51-4.085-.785-.94-1.294-.636-3.041.68-3.902 1.316-.861 3.145-.51 4.085.785.94 1.294.636 3.041-.68 3.902z"/>
        <path id="e" d="M4.1 7.946C1.836 7.946 0 6.217 0 4.084S1.836.222 4.1.222c2.264 0 4.1 1.73 4.1 3.862 0 2.133-1.836 3.862-4.1 3.862z"/>
        <path id="g" d="M4.09.29L8.2 4.365 4.11 8.247 0 4.172z"/>
        <path id="i" d="M4.09.29L8.2 4.365 4.11 8.247 0 4.172z"/>
    </defs>
    <g fill="none" fill-rule="evenodd">
        <path fill="url(#a)" fill-rule="nonzero" d="M8.597.83h364a8 8 0 0 1 8 8v208h-380v-208a8 8 0 0 1 8-8z" transform="translate(-.597 -.83)"/>
        <path fill="#4F8DF9" d="M186.226 117.117c-1.167 11.491 4.147 15.044 3.437 15.956-9.54 12.253-13.092-1.585-13.125-8.357-.007-1.393-.09-6.772 2.346-7.599.978-.332 3.426-.332 7.342 0z"/>
        <path fill="#FFA000" d="M150.449 98.79l-1.314-6.509 8.504-1.526 1.137 6.794z"/>
        <path fill="#FFC100" d="M145.076 97.058c1.518.63 27.18-2.985 37.058-5.77 28.83-24.614 42.343-33.798 44.449-35.184 1.403 13.791 9.576 74.371 8.756 78.642-.45 2.34-44.449-16.554-46.065-16.266-14.763 2.626-21.137 4.804-39.594 7.59l-4.604-29.012z"/>
        <path fill="#3063BB" d="M163.778 119.379l18.654-3.515c-.888 7.03-2.722 10.545 0 17.136 2.722 6.59 18.01 11.081 16.878 14.5-1.132 3.418-13.837 13.82-17.817 14.06-3.684.222-24.822-22.848-17.715-42.181z"/>
        <path fill="#D94A4A" d="M182.768 90.755c3.603 8.399 5.753 20.628 6.96 27.675-14.521 2.49-21.647 4.832-40.115 7.477l-4.537-28.888c4.807-.985 23.687-3.647 37.202-5.867l.49-.397z"/>
        <path fill="#AD3B3B" d="M160.855 118.35c6.06-4.933-3.338-12.414-7.452-6.082-.613.945-.79 1.86-.69 2.865.314 3.188 4.024 5.724 8.098 3.25l.044-.032z"/>
        <path stroke="#F90" stroke-width="2.822" d="M227.278 55.602l8.119 78.842"/>
        <path stroke="#AD3B3B" stroke-linecap="round" stroke-linejoin="round" stroke-width="2.822" d="M149.135 101.3l29.938-5.021M150.15 106.322l29.938-5.022"/>
        <g transform="translate(95 98)">
            <mask id="d" fill="#fff">
                <use xlink:href="#c"/>
            </mask>
            <path fill="#FF8100" d="M-1.171 6.802h8.2V-.94h-8.2z" mask="url(#d)"/>
        </g>
        <g transform="translate(114 57)">
            <mask id="f" fill="#fff">
                <use xlink:href="#e"/>
            </mask>
            <path fill="#FFC100" d="M-2.236 10.053h12.672V-1.884H-2.236z" mask="url(#f)"/>
        </g>
        <g transform="translate(275 70)">
            <mask id="h" fill="#fff">
                <use xlink:href="#g"/>
            </mask>
            <path fill="#B1D8FF" d="M-2.46 10.635h13.12V-2.097H-2.46z" mask="url(#h)"/>
        </g>
        <g transform="translate(258 159)">
            <mask id="j" fill="#fff">
                <use xlink:href="#i"/>
            </mask>
            <path fill="#FFF" d="M-2.46 10.635h13.12V-2.097H-2.46z" mask="url(#j)"/>
        </g>
    </g>
</svg>
