<svg xmlns="http://www.w3.org/2000/svg" width="65" height="17" viewBox="0 0 65 17">
    <g fill="none" fill-rule="evenodd">
        <path fill="#6B75FF" d="M7.509 4.147c-1.635-.48-2.544.306-2.786 1.117-.33 1.11.234 1.869 1.696 2.987 1.793 1.37 2.535 2.641 2.015 4.386-.153.517-.41.98-.762 1.363a5.299 5.299 0 0 0 3.107-3.402c.773-2.589-.543-5.297-2.973-6.355-.096-.033-.194-.067-.297-.096z"/>
        <path fill="#332797" d="M4.773 9.237c-1.685-1.323-2.56-2.753-2.08-4.51.072-.262.168-.504.285-.727C1.686 4.65.65 5.875.213 7.47a5.942 5.942 0 0 0 .677 4.709c.576.762 1.134 1.335 2.266 1.673 1.533.458 2.769-.179 3.112-1.438.32-1.166-.113-2.029-1.495-3.177z"/>
        <path fill="#4A4A4A" fill-rule="nonzero" d="M15.764 12.846c.3 0 .529-.082.685-.246.156-.164.235-.391.235-.68 0-.29-.091-.553-.273-.791-.182-.238-.467-.49-.855-.756-.389-.266-.687-.52-.894-.762a2.7 2.7 0 0 1-.436-.788 2.992 2.992 0 0 1-.156-1.005c0-.734.203-1.316.61-1.746.41-.43.952-.644 1.626-.644.673 0 1.311.183 1.913.55l-.528 1.278c-.488-.281-.904-.422-1.248-.422-.254 0-.45.084-.591.252-.141.168-.211.397-.211.688 0 .291.082.546.246.765.168.215.459.459.873.732.566.38.955.762 1.166 1.149.222.394.334.84.334 1.336 0 .8-.202 1.414-.607 1.84-.404.425-.983.638-1.737.638-.754 0-1.393-.146-1.916-.44V12.22c.64.418 1.229.627 1.764.627zm3.164-6.955c0-.262.075-.468.226-.619.15-.15.356-.225.618-.225.261 0 .468.075.62.225.153.15.23.356.23.616s-.078.464-.232.612c-.154.148-.36.223-.615.223-.256 0-.461-.075-.616-.223-.154-.148-.231-.352-.231-.61zm1.623 8.226h-1.559V7.59h1.559v6.527zm7.383-6.65c.578 0 1.017.203 1.315.61.3.405.449 1 .449 1.78v4.26h-1.57v-3.89c0-.957-.237-1.436-.71-1.436-.34 0-.585.17-.735.51-.15.34-.226.888-.226 1.646v3.17h-1.57v-3.89c0-.957-.24-1.436-.72-1.436-.336 0-.58.17-.733.51-.152.34-.228.9-.228 1.681v3.135h-1.559V7.59h1.236l.188.838h.1c.148-.32.356-.56.623-.721.268-.16.564-.24.888-.24.8 0 1.332.377 1.594 1.13h.058c.332-.753.866-1.13 1.6-1.13zm2.73-1.576c0-.262.076-.468.226-.619.15-.15.357-.225.619-.225.261 0 .468.075.62.225.153.15.23.356.23.616s-.078.464-.232.612c-.155.148-.36.223-.616.223-.255 0-.46-.075-.615-.223-.154-.148-.231-.352-.231-.61zm1.624 8.226h-1.559V7.59h1.559v6.527zm2.654 0h-1.558V5h1.558v9.117zm1.172-6.047a3.79 3.79 0 0 1 2.06-.615c.725 0 1.269.197 1.632.592.363.394.545.957.545 1.687v4.383h-1.143l-.31-.89h-.036c-.226.378-.462.641-.708.788-.247.146-.56.22-.938.22-.48 0-.858-.18-1.134-.537-.275-.357-.413-.867-.413-1.53 0-.661.187-1.161.56-1.5.373-.337.938-.523 1.696-.559l.867-.035v-.469c0-.609-.263-.914-.79-.914-.388 0-.837.153-1.348.457l-.54-1.078zm1.166 4.137c0 .54.192.809.575.809.285 0 .512-.128.682-.384.17-.256.255-.597.255-1.023v-.55l-.48.023c-.356.02-.616.121-.783.305-.166.183-.249.457-.249.82zm6.874-4.74c.195 0 .383.03.562.088l-.181 1.511a1.265 1.265 0 0 0-.428-.058c-.379 0-.67.15-.873.448-.203.299-.305.733-.305 1.304v3.357h-1.558V7.59h1.283l.176 1.02h.052c.172-.407.359-.699.56-.877a1.04 1.04 0 0 1 .712-.266zm2.52 5.379c.3 0 .529-.082.685-.246.156-.164.234-.391.234-.68 0-.29-.09-.553-.272-.791-.182-.238-.467-.49-.855-.756-.39-.266-.687-.52-.894-.762a2.7 2.7 0 0 1-.437-.788 2.992 2.992 0 0 1-.155-1.005c0-.734.203-1.316.61-1.746.41-.43.952-.644 1.626-.644.673 0 1.311.183 1.913.55L48.6 7.257c-.488-.281-.904-.422-1.248-.422-.254 0-.451.084-.592.252-.14.168-.21.397-.21.688 0 .291.081.546.246.765.168.215.459.459.873.732.566.38.955.762 1.166 1.149.222.394.334.84.334 1.336 0 .8-.203 1.414-.607 1.84-.404.425-.983.638-1.737.638-.754 0-1.393-.146-1.916-.44V12.22c.64.418 1.228.627 1.764.627zm3.164-6.955c0-.262.075-.468.225-.619.15-.15.357-.225.619-.225.261 0 .468.075.62.225.153.15.23.356.23.616s-.078.464-.232.612c-.155.148-.36.223-.616.223-.255 0-.46-.075-.615-.223-.154-.148-.231-.352-.231-.61zm1.623 8.226h-1.559V7.59h1.559v6.527zm2.836-6.527h1.184v1.236h-1.184v3.434c0 .437.176.656.527.656.227 0 .463-.055.71-.164v1.219c-.255.175-.635.263-1.143.263-1.114 0-1.67-.675-1.67-2.027v-3.38h-.633v-.698l.815-.563.398-1.382h.996V7.59zm4.319 6.644c-.817 0-1.461-.289-1.934-.867-.469-.578-.703-1.404-.703-2.478 0-1.075.214-1.913.642-2.517.427-.603 1.008-.905 1.743-.905.734 0 1.306.259 1.716.776.41.518.616 1.243.616 2.177v.832H57.56c.012.574.129 1.005.352 1.292.222.287.537.43.943.43.504 0 1.023-.158 1.558-.474v1.283c-.5.301-1.1.451-1.798.451zm.55-4.113c-.007-.473-.08-.833-.216-1.081-.137-.248-.323-.372-.557-.372-.234 0-.422.122-.563.366-.14.244-.222.607-.246 1.087h1.582zm2.016 2.379c.223.148.474.271.753.37.28.097.535.146.768.146.232 0 .413-.059.542-.176a.613.613 0 0 0 .193-.478.749.749 0 0 0-.205-.524c-.137-.149-.379-.328-.727-.54-.468-.28-.806-.58-1.013-.899-.207-.318-.31-.694-.31-1.128 0-.558.19-.999.57-1.32.381-.323.882-.484 1.503-.484.622 0 1.188.152 1.7.457l-.51 1.119c-.414-.227-.781-.34-1.102-.34-.191 0-.338.05-.442.152a.545.545 0 0 0-.155.408c0 .17.06.32.178.45.12.132.367.311.742.54.375.228.644.429.808.6.344.36.516.811.516 1.354 0 .645-.189 1.144-.566 1.497-.377.354-.905.53-1.585.53-.68 0-1.232-.127-1.658-.38V12.5z"/>
    </g>
</svg>
