<svg xmlns="http://www.w3.org/2000/svg" width="133" height="20" viewBox="0 0 133 20">
    <g fill="#FFF" fill-rule="nonzero">
        <path d="M13.835 1.21c-.176-.062-.357-.126-.547-.182-3.005-.904-4.677.576-5.121 2.104-.61 2.087.429 3.517 3.118 5.622 3.296 2.577 4.66 4.972 3.705 8.256a6.552 6.552 0 0 1-1.4 2.565 9.89 9.89 0 0 0 5.711-6.403C20.723 8.3 18.303 3.2 13.835 1.21z"/>
        <path d="M9.162 10.677C5.948 8.307 4.278 5.747 5.194 2.6c.137-.467.32-.9.543-1.3A9.904 9.904 0 0 0 .462 7.511a10.085 10.085 0 0 0 1.292 8.434c1.099 1.365 2.162 2.39 4.322 2.995 2.924.82 5.282-.32 5.938-2.575.61-2.088-.216-3.633-2.852-5.69zm19.416-1.448c-.866-.587-1.472-1.112-1.819-1.574-.347-.462-.52-1.003-.52-1.625 0-.63.144-1.127.434-1.492.29-.365.705-.548 1.244-.548.49 0 .95.093 1.378.277.429.185.84.395 1.232.63l1.102-2.746C30.363 1.362 29.044.968 27.672.968c-1.438 0-2.583.461-3.437 1.385-.854.924-1.28 2.175-1.28 3.753 0 .823.108 1.545.325 2.166.216.622.522 1.182.919 1.682.396.5.978 1.022 1.746 1.568.882.621 1.515 1.186 1.899 1.694.384.508.576 1.068.576 1.681 0 .622-.162 1.113-.484 1.474-.323.36-.803.541-1.44.541-1.119 0-2.348-.449-3.688-1.347v3.388c1.095.63 2.422.944 3.982.944 1.593 0 2.812-.457 3.657-1.372.846-.915 1.268-2.234 1.268-3.955 0-1.075-.23-2.032-.692-2.872-.462-.84-1.277-1.662-2.444-2.468zm5.17 10.416h3.26V5.615h-3.26v14.03zM35.404.15c-.564 0-1.003.162-1.318.485-.314.323-.471.762-.471 1.316 0 .571.163 1.014.49 1.33.327.314.76.471 1.299.471.514 0 .935-.157 1.262-.472.326-.315.49-.758.49-1.329 0-.554-.16-.993-.478-1.316-.318-.323-.743-.485-1.274-.485zM52.948 5.35c-1.536 0-2.651.81-3.345 2.431h-.123c-.555-1.62-1.666-2.43-3.332-2.43-.645 0-1.252.165-1.82.497-.567.332-1.015.855-1.341 1.568h-.209l-.392-1.8h-2.585v14.03h3.26v-6.739c0-1.679.159-2.884.477-3.614.319-.731.829-1.096 1.532-1.096 1.004 0 1.507 1.029 1.507 3.086v8.362h3.283v-6.814c0-1.62.155-2.797.466-3.532.31-.735.825-1.102 1.543-1.102.989 0 1.483 1.029 1.483 3.086v8.362h3.284V10.49c0-1.68-.313-2.955-.938-3.829-.625-.873-1.541-1.31-2.75-1.31zm6.346 14.296h3.26V5.615h-3.26v14.03zM60.948.149c-.563 0-1.002.161-1.317.485-.314.323-.471.762-.471 1.316 0 .57.163 1.014.49 1.329.326.315.76.472 1.298.472.515 0 .936-.157 1.262-.472.327-.315.49-.758.49-1.33 0-.553-.159-.992-.477-1.315-.319-.323-.744-.485-1.275-.485zm4.399 19.496h3.259V.048h-3.26v19.597zm10.635-14.32c-1.593 0-3.068.441-4.424 1.323l1.128 2.317c1.061-.655 2-.982 2.818-.982 1.103 0 1.654.655 1.654 1.964v1.008l-1.814.076c-1.568.075-2.746.472-3.534 1.19-.789.718-1.183 1.816-1.183 3.293 0 1.377.288 2.452.864 3.225.576.772 1.366 1.158 2.37 1.158.785 0 1.434-.155 1.949-.466.514-.31 1.012-.877 1.495-1.7h.073l.65 1.914h2.388v-9.42c0-1.562-.377-2.769-1.133-3.621-.755-.853-1.856-1.28-3.302-1.28v.001zm1.176 8.93c0 .915-.178 1.648-.533 2.198-.355.55-.832.825-1.428.825-.8 0-1.2-.58-1.2-1.738 0-.782.173-1.369.52-1.764.348-.395.893-.613 1.636-.655l1.005-.05v1.184zm10.23-8.338c-.425.378-.817 1.008-1.176 1.89h-.11l-.368-2.192h-2.683v14.03h3.259v-7.217c0-1.225.212-2.16.637-2.802.425-.642 1.033-.963 1.825-.963.368 0 .666.042.895.126l.38-3.25a3.752 3.752 0 0 0-1.176-.189 2.16 2.16 0 0 0-1.483.567zm17.533 5.706c-.13.797-.34 2.439-.625 4.924a65.815 65.815 0 0 0-.6-4.849l-1.912-10.467H98.33l-1.91 10.467c-.18.965-.373 2.573-.577 4.824-.261-2.225-.47-3.859-.625-4.9l-1.605-10.39h-3.27l3.246 18.413h4.166l1.703-9.597.502-3.791.098-.932c.114 1.797.306 3.354.576 4.672l1.752 9.648h4.165l3.223-18.414h-3.296l-1.556 10.391zm10.66-6.273c-1.594 0-2.835.651-3.725 1.953-.89 1.301-1.336 3.11-1.336 5.428 0 2.284.492 4.05 1.477 5.296.984 1.247 2.33 1.87 4.037 1.87 1.462 0 2.715-.323 3.761-.97V16.17c-1.111.68-2.198 1.02-3.26 1.02-.832 0-1.486-.304-1.96-.912-.473-.61-.722-1.539-.747-2.79h6.555v-1.789c0-2.007-.429-3.566-1.286-4.679-.858-1.112-2.03-1.669-3.517-1.669zm-1.704 5.706c.05-1.066.225-1.854.527-2.362.302-.508.686-.762 1.152-.762.498 0 .89.265 1.176.794.286.529.437 1.305.453 2.33h-3.308zm17.753-3.804c-.71-1.268-1.687-1.902-2.928-1.902-.605 0-1.14.156-1.605.467-.465.31-.899.852-1.299 1.624h-.171c.098-1.26.15-1.994.159-2.204.008-.21.012-.411.012-.605V.048h-3.259v19.598h2.401l.552-1.6h.208c.416.689.86 1.17 1.33 1.442.469.273 1.01.41 1.622.41 1.266 0 2.257-.634 2.972-1.902.714-1.268 1.072-3.065 1.072-5.39 0-2.301-.356-4.086-1.066-5.354zm-4.03 9.761c-.638 0-1.097-.332-1.38-.995-.281-.663-.422-1.81-.422-3.438v-.34c.016-1.503.161-2.553.435-3.149.274-.596.72-.894 1.342-.894 1.192 0 1.788 1.453 1.788 4.358 0 2.972-.587 4.458-1.764 4.458z"/>
    </g>
</svg>
