<svg xmlns="http://www.w3.org/2000/svg" width="98" height="15" viewBox="0 0 98 15">
    <g fill="none" fill-rule="evenodd">
        <path fill="#6B75FF" d="M11.263.22C8.811-.5 7.447.68 7.085 1.896c-.497 1.664.35 2.804 2.544 4.48 2.689 2.055 3.802 3.963 3.022 6.58A5.187 5.187 0 0 1 11.51 15a7.948 7.948 0 0 0 4.66-5.102c1.159-3.884-.815-7.947-4.46-9.533-.143-.05-.291-.1-.446-.145z"/>
        <path fill="#332797" d="M7.16 7.855C4.633 5.87 3.32 3.725 4.04 1.089 4.148.7 4.291.335 4.467 0 2.53.975.975 2.813.32 5.204a8.914 8.914 0 0 0 1.015 7.064c.864 1.144 1.7 2.003 3.399 2.51 2.299.686 4.153-.268 4.669-2.157.48-1.75-.17-3.043-2.243-4.766z"/>
        <path fill="#4A4A4A" fill-rule="nonzero" d="M23.646 12.769c.45 0 .793-.123 1.028-.37.234-.246.351-.586.351-1.02 0-.433-.136-.828-.408-1.186-.273-.357-.7-.735-1.284-1.133-.583-.399-1.03-.78-1.34-1.143a4.05 4.05 0 0 1-.655-1.182c-.155-.437-.233-.94-.233-1.507 0-1.102.305-1.975.915-2.62.615-.644 1.428-.966 2.438-.966 1.011 0 1.968.275 2.87.826l-.79 1.916c-.733-.422-1.357-.633-1.873-.633-.38 0-.677.126-.888.378-.21.252-.316.596-.316 1.033 0 .436.123.818.37 1.147.251.322.688.688 1.309 1.098.85.569 1.432 1.143 1.749 1.723.334.592.5 1.26.5 2.004 0 1.201-.303 2.12-.909 2.76-.606.638-1.475.958-2.606.958-1.13 0-2.089-.22-2.874-.66v-2.364c.96.627 1.843.94 2.646.94zm4.746-10.433c0-.393.113-.702.338-.927.226-.226.535-.339.928-.339.392 0 .703.113.931.339.229.225.343.533.343.923s-.116.695-.347.918c-.232.223-.54.334-.923.334-.384 0-.691-.111-.923-.334-.231-.223-.347-.527-.347-.914zm2.435 12.34h-2.338V4.885h2.338v9.79zM41.9 4.7c.867 0 1.525.305 1.973.914.448.61.673 1.5.673 2.672v6.39H42.19V8.84c0-1.436-.354-2.153-1.063-2.153-.51 0-.878.254-1.103.764-.226.51-.339 1.333-.339 2.47v4.755h-2.355V8.84c0-1.436-.36-2.153-1.081-2.153-.504 0-.87.254-1.099.764-.228.51-.343 1.35-.343 2.523v4.702H32.47V4.885h1.855l.281 1.257h.15c.222-.48.534-.841.936-1.081.401-.24.845-.36 1.331-.36 1.201 0 1.998.565 2.39 1.695h.089C40 5.266 40.8 4.7 41.902 4.7zm4.096-2.364c0-.393.113-.702.339-.927.225-.226.534-.339.927-.339.392 0 .703.113.931.339.229.225.343.533.343.923s-.116.695-.347.918c-.231.223-.539.334-.923.334s-.691-.111-.923-.334c-.231-.223-.347-.527-.347-.914zm2.435 12.34h-2.338V4.885h2.338v9.79zm3.982 0h-2.338V1h2.338v13.676zm1.758-9.07c.972-.616 2.002-.923 3.089-.923 1.087 0 1.903.296 2.448.887.545.592.817 1.436.817 2.532v6.574h-1.714l-.466-1.336h-.052c-.34.568-.695.962-1.064 1.182-.369.22-.838.33-1.406.33-.72 0-1.288-.269-1.7-.805-.414-.536-.62-1.3-.62-2.294 0-.993.28-1.743.84-2.25.559-.506 1.407-.786 2.544-.839l1.3-.053v-.703c0-.914-.395-1.37-1.186-1.37-.58 0-1.254.228-2.022.685l-.808-1.618zm1.749 6.205c0 .808.287 1.212.861 1.212.428 0 .77-.191 1.024-.575.255-.384.382-.895.382-1.534v-.826l-.72.035c-.534.03-.925.182-1.174.457-.249.275-.373.686-.373 1.23zM66.23 4.7c.293 0 .574.043.843.131L66.802 7.1c-.158-.059-.372-.088-.642-.088-.568 0-1.005.224-1.31.672-.304.448-.456 1.1-.456 1.956v5.036h-2.338V4.885h1.925l.263 1.53h.08c.257-.61.537-1.048.839-1.315a1.56 1.56 0 0 1 1.068-.4zm3.78 8.068c.45 0 .793-.123 1.028-.37.234-.246.351-.586.351-1.02 0-.433-.136-.828-.409-1.186-.272-.357-.7-.735-1.283-1.133-.583-.399-1.03-.78-1.34-1.143a4.05 4.05 0 0 1-.655-1.182c-.155-.437-.233-.94-.233-1.507 0-1.102.305-1.975.914-2.62.616-.644 1.429-.966 2.44-.966 1.01 0 1.967.275 2.869.826l-.791 1.916c-.733-.422-1.357-.633-1.872-.633-.381 0-.677.126-.888.378-.21.252-.316.596-.316 1.033 0 .436.123.818.369 1.147.252.322.688.688 1.31 1.098.849.569 1.432 1.143 1.748 1.723.334.592.501 1.26.501 2.004 0 1.201-.303 2.12-.91 2.76-.606.638-1.474.958-2.605.958s-2.09-.22-2.874-.66v-2.364c.96.627 1.843.94 2.645.94zm4.746-10.433c0-.393.113-.702.338-.927.226-.226.535-.339.927-.339.393 0 .703.113.932.339.229.225.343.533.343.923s-.116.695-.347.918c-.232.223-.54.334-.923.334-.384 0-.692-.111-.923-.334-.232-.223-.347-.527-.347-.914zm2.434 12.34h-2.338V4.885h2.338v9.79zm4.255-9.791h1.775v1.854h-1.775v5.15c0 .657.263.985.79.985.34 0 .695-.082 1.064-.246v1.828c-.38.264-.952.396-1.714.396-1.67 0-2.505-1.014-2.505-3.041V6.739h-.949V5.693l1.222-.843.597-2.075h1.495v2.11zm6.477 9.967c-1.224 0-2.191-.434-2.9-1.301-.703-.867-1.055-2.107-1.055-3.718 0-1.611.321-2.87.963-3.775.641-.905 1.513-1.358 2.615-1.358 1.101 0 1.96.388 2.575 1.165.615.776.923 1.864.923 3.265v1.248H86.34c.018.861.194 1.507.528 1.938.334.43.805.646 1.415.646.756 0 1.535-.237 2.338-.712v1.925c-.75.451-1.65.677-2.699.677zm.827-6.17c-.012-.71-.12-1.25-.326-1.622-.205-.372-.483-.558-.835-.558-.351 0-.632.183-.843.55-.211.365-.334.909-.37 1.63h2.374zm3.023 3.568c.334.223.71.407 1.13.554.419.146.803.22 1.151.22.349 0 .62-.088.813-.264.194-.176.29-.415.29-.717 0-.301-.102-.564-.307-.786-.206-.223-.569-.492-1.09-.809-.703-.422-1.21-.871-1.52-1.349-.311-.477-.467-1.041-.467-1.692 0-.838.286-1.498.857-1.982.572-.483 1.323-.725 2.255-.725.931 0 1.781.229 2.549.686l-.765 1.678c-.621-.34-1.172-.51-1.652-.51-.288 0-.509.077-.664.23-.155.152-.233.355-.233.61s.09.48.268.677c.179.196.55.466 1.112.808.562.343.967.643 1.213.901.515.54.773 1.216.773 2.03 0 .967-.282 1.716-.848 2.246-.565.53-1.358.796-2.377.796-1.02 0-1.849-.19-2.488-.572v-2.03z"/>
    </g>
</svg>
