<svg xmlns="http://www.w3.org/2000/svg" xmlns:xlink="http://www.w3.org/1999/xlink" width="380" height="207" viewBox="0 0 380 207">
    <defs>
        <path id="a" d="M15.676 6.135H6.448V2.193h13.17v23.651h-3.942V6.134z"/>
    </defs>
    <g fill="none" fill-rule="evenodd">
        <path fill="#1B2653" d="M152.345 53.895H259.22a6.261 6.261 0 0 1 6.26 6.261v76.916c0 9.14-7.41 16.55-16.55 16.55h-121.34c-12.967 0-23.48-10.512-23.48-23.48V49.466a5.2 5.2 0 0 1 5.2-5.2h37.836a5.2 5.2 0 0 1 5.2 5.2v4.43z"/>
        <path fill="#FFF" stroke="#EFF4F9" stroke-width="2.6" d="M163.967 22.13a3.9 3.9 0 0 0-3.9 3.9v94.504a3.9 3.9 0 0 0 3.9 3.9h126.315a3.9 3.9 0 0 0 3.9-3.9V26.03a3.9 3.9 0 0 0-3.9-3.9H163.967z"/>
        <g fill="#D6E4F2">
            <path d="M263.174 29.943h22.2v10.415h-22.2zM263.174 61.189h22.2v10.415h-22.2zM263.174 45.566h22.2v10.415h-22.2zM263.174 76.811h22.2v10.415h-22.2zM263.174 92.434h22.2v10.415h-22.2zM263.174 108.057h22.2v10.415h-22.2z"/>
        </g>
        <g fill="#D6E4F2" fill-rule="nonzero">
            <path d="M256.37 29.943h2.603v10.415h-2.603zM252.466 33.85h2.603v6.508h-2.603zM248.562 29.943h2.603v10.415h-2.603zM240.753 29.943h2.603v10.415h-2.603zM232.945 29.943h2.603v10.415h-2.603zM244.657 33.85h2.603v6.508h-2.603zM229.041 36.452h2.603v3.906h-2.603zM236.85 29.943h2.602v10.415h-2.603zM256.37 45.566h2.603v10.415h-2.603zM252.466 49.471h2.603v6.51h-2.603zM248.562 49.471h2.603v6.51h-2.603zM240.753 49.471h2.603v6.51h-2.603zM232.945 52.075h2.603v3.906h-2.603zM244.657 49.471h2.603v6.51h-2.603zM229.041 52.075h2.603v3.906h-2.603zM236.85 45.566h2.602v10.415h-2.603zM256.37 92.434h2.603v10.415h-2.603zM252.466 96.34h2.603v6.508h-2.603zM248.562 96.34h2.603v6.508h-2.603zM240.753 96.34h2.603v6.508h-2.603zM232.945 98.943h2.603v3.906h-2.603zM244.657 96.34h2.603v6.508h-2.603zM229.041 98.943h2.603v3.906h-2.603zM236.85 92.434h2.602v10.415h-2.603zM256.37 66.396h2.603v5.208h-2.603zM252.466 65.094h2.603v6.51h-2.603zM248.562 61.188h2.603v10.415h-2.603zM240.753 66.396h2.603v5.208h-2.603zM232.945 61.188h2.603v10.415h-2.603zM244.657 65.094h2.603v6.51h-2.603zM229.041 63.792h2.603v7.811h-2.603zM236.85 63.792h2.602v7.811h-2.603zM256.37 113.264h2.603v5.208h-2.603zM252.466 111.962h2.603v6.51h-2.603zM248.562 108.056h2.603v10.415h-2.603zM240.753 113.264h2.603v5.208h-2.603zM232.945 108.056h2.603v10.415h-2.603zM244.657 111.962h2.603v6.51h-2.603zM229.041 110.66h2.603v7.811h-2.603zM236.85 110.66h2.602v7.811h-2.603zM256.37 84.622h2.603v2.604h-2.603zM252.466 82.018h2.603v5.208h-2.603zM248.562 79.415h2.603v7.811h-2.603zM240.753 84.622h2.603v2.604h-2.603zM232.945 76.811h2.603v10.415h-2.603zM244.657 80.717h2.603v6.51h-2.603zM229.041 83.32h2.603v3.906h-2.603zM236.85 84.622h2.602v2.604h-2.603z"/>
        </g>
        <path fill="#EFF4F9" d="M184.976 29.943h27.703v10.415h-27.703zM184.976 61.189h17.292v10.415h-17.292zM184.976 45.566h36.812v10.415h-36.812zM184.976 76.811h30.305v10.415h-30.305zM184.976 92.434h35.51v10.415h-35.51zM184.976 108.057h19.894v10.415h-19.894z"/>
        <path fill="#3063BB" d="M167.877 29.943h10.41v10.415h-10.41zM167.877 61.189h10.41v10.415h-10.41zM167.877 45.566h10.41v10.415h-10.41zM167.877 76.811h10.41v10.415h-10.41z"/>
        <path fill="#4F8DF9" d="M167.877 92.434h10.41v10.415h-10.41zM167.877 108.057h10.41v10.415h-10.41z"/>
        <path fill="#4F8DF9" d="M239.007 153.612H109.352c-8.645 0-15.653-7.008-15.653-15.653V78.106a5.2 5.2 0 0 1 5.2-5.2h38.061a5.2 5.2 0 0 1 5.2 5.2v6.087h92.227a4.696 4.696 0 0 1 4.696 4.696v45.092c3.89 18.175 26.39 15.88 26.39 2.472.149 6.541-2.594 11.46-8.228 14.756-4.126 2.414-4.543 2.414-18.061 2.414-.06 0-.12-.004-.177-.011z"/>
        <g transform="translate(62.466 100.245)">
            <path fill="#1B2653" d="M22.927 40.089l11.492 11.506L17.932 68.13a7.347 7.347 0 0 1-10.4.005l-1.109-1.11a7.347 7.347 0 0 1-.004-10.38L22.927 40.09z"/>
            <ellipse cx="45.729" cy="31.75" fill="#3063BB" rx="31.63" ry="31.75"/>
            <ellipse cx="45.523" cy="31.524" fill="#FFF" rx="20.216" ry="20.299"/>
        </g>
        <g transform="translate(265.48)">
            <ellipse cx="23.91" cy="23.434" fill="#1EC794" fill-rule="nonzero" rx="23.425" ry="23.434"/>
            <use fill="#FFF" fill-rule="nonzero" transform="scale(1 -1) rotate(-45 -25.157 -16.423)" xlink:href="#a"/>
        </g>
        <ellipse cx="327.295" cy="91.783" fill="#FFC100" fill-rule="nonzero" rx="8.459" ry="8.462"/>
        <ellipse cx="50.753" cy="63.792" fill="#EDF2F7" fill-rule="nonzero" rx="14.315" ry="14.321"/>
        <ellipse cx="365.685" cy="126.283" fill="#EDF2F7" fill-rule="nonzero" rx="14.315" ry="14.321"/>
        <ellipse cx="180.24" cy="195.934" fill="#EDF2F7" fill-rule="nonzero" rx="11.062" ry="11.066"/>
        <ellipse cx="7.158" cy="106.104" fill="#FFC100" fill-rule="nonzero" rx="7.158" ry="7.16"/>
    </g>
</svg>
