<svg xmlns="http://www.w3.org/2000/svg" xmlns:xlink="http://www.w3.org/1999/xlink" width="323" height="209" viewBox="0 0 323 209">
    <defs>
        <linearGradient id="a" x1="56.362%" x2="56.362%" y1="100%" y2="32.98%">
            <stop offset="0%" stop-color="#CAE4FE"/>
            <stop offset="100%" stop-color="#E9F3FB"/>
        </linearGradient>
        <path id="c" d="M272.354 118.34c2.298-3.497 13.019-13.707 13.145-13.576.706.734 11.985 12.155 13.667 14.078l-26.812-.502z"/>
        <filter id="b" width="129.8%" height="156.8%" x="-14.9%" y="-14.2%" filterUnits="objectBoundingBox">
            <feOffset dy="2" in="SourceAlpha" result="shadowOffsetOuter1"/>
            <feGaussianBlur in="shadowOffsetOuter1" result="shadowBlurOuter1" stdDeviation="1"/>
            <feColorMatrix in="shadowBlurOuter1" values="0 0 0 0 0.873291758 0 0 0 0 0.886378124 0 0 0 0 0.901333971 0 0 0 0.6 0"/>
        </filter>
        <path id="e" d="M211.64.748c-5.696-1.67-11.154-.601-15.264 3.781-12.197 13.004.885 33.748 17.577 26.63 6.013-2.565 9.49-11.944 8.48-18.41C221.621 7.561 216.94.912 211.64.912"/>
        <filter id="d" width="154.8%" height="152.1%" x="-27.4%" y="-19.9%" filterUnits="objectBoundingBox">
            <feOffset dy="2" in="SourceAlpha" result="shadowOffsetOuter1"/>
            <feGaussianBlur in="shadowOffsetOuter1" result="shadowBlurOuter1" stdDeviation="2.5"/>
            <feColorMatrix in="shadowBlurOuter1" values="0 0 0 0 0.873291758 0 0 0 0 0.886378124 0 0 0 0 0.901333971 0 0 0 0.6 0"/>
        </filter>
        <path id="g" d="M227.037 172.751c-.042 17.117.099 29.07-.081 29.07-6.513 0 31.25.02 31.445-.355.86-1.652 1.116-27.615.141-28.94-.975-1.325-31.505.225-31.505.225z"/>
        <filter id="f" width="124.3%" height="126.8%" x="-12.1%" y="-6.7%" filterUnits="objectBoundingBox">
            <feOffset dy="2" in="SourceAlpha" result="shadowOffsetOuter1"/>
            <feGaussianBlur in="shadowOffsetOuter1" result="shadowBlurOuter1" stdDeviation="1"/>
            <feColorMatrix in="shadowBlurOuter1" values="0 0 0 0 0.873291758 0 0 0 0 0.886378124 0 0 0 0 0.901333971 0 0 0 0.6 0"/>
        </filter>
    </defs>
    <g fill="none" fill-rule="evenodd">
        <path fill="#B1D8FF" d="M59.882 61.33c.03 10.502-.067 17.835.056 17.835 4.46 0-21.403.013-21.537-.217-.588-1.014-.764-16.944-.096-17.756.668-.813 21.577.138 21.577.138z"/>
        <path fill="#FFF" stroke="#B1D8FF" stroke-width="1.28" d="M54.184 18.844c0-2.127 222.526-2.072 225.858 1.75 3.33 3.823-.743 149.57-3.028 155.756-2.284 6.185-218.003 4.128-220.275 4.128-2.272 0-2.555-159.507-2.555-161.634z"/>
        <path fill="url(#a)" d="M264.592 95.436c-.06 37-.195 60.438-1.821 61.733-36.924 2.405-170.771.174-170.767-.405.026-3.245-.327-55.699-.273-62.56l172.861 1.232z" transform="translate(.48 3.32)"/>
        <path stroke="#F5F9FD" stroke-linecap="round" stroke-linejoin="round" stroke-width="1.267" d="M154.959 57.375c.085 18.49.103 30.203-.497 30.856-13.697 1.346-61.936.463-63.384.463-.552 0-.283-27.832-.283-31.26l64.164-.059z"/>
        <path fill="#CFE6FD" d="M64.898 106.293c.086 29.838.715 51.03 1.078 51.065 13.308 1.272-46.864 2.675-62.79 0-.952-.16-2.265-49.026-1.434-51.065.83-2.039 63.146 0 63.146 0z"/>
        <path stroke="#B1D8FF" stroke-dasharray="3.801599884033203,2.53439998626709" stroke-linecap="round" stroke-linejoin="round" stroke-width="1.28" d="M265.134 55.83c.13 19.39.16 31.674-.765 32.36-21.1 1.411-97.64.789-97.64.485 0-1.7-.437-29.189-.437-32.785l98.842-.06z"/>
        <path fill="#1B2653" d="M78.237 17.184c.75.401 0 164.171 0 164.171-6.52-.047-23.02.808-23.05 0-2.744-77.302-2.383-163.617-1.95-163.617.432 0 24.251-.956 25-.554z"/>
        <path fill="#CAE4FE" d="M222.568 69.067c-.804-2.61-3.5-4.017-5.938-4.711-7.234-2.062-13.73 7.116-8.637 12.922 6.168 7.03 16.494 2.587 14.62-7.942"/>
        <g stroke="#FFF" stroke-linecap="round" stroke-linejoin="round" stroke-width="1.267">
            <path d="M210.02 72.192c2.916-.152 5.999-.063 8.891-.497M214.506 68.535c.246 2.487.494 4.96.494 7.454"/>
        </g>
        <path stroke="#FFF" stroke-linecap="round" stroke-linejoin="round" stroke-width="1.267" d="M109.845 131.578c3.621-4.316 7.704-6.435 12.698-7.04 12.903-1.562 24.291 10.482 37.48 8.707 12.54-1.687 21.735-17.688 35.032-15.005 17.098 3.45 27.283 21.272 45.894 10.004 2.559-1.55 5.327-3.222 7.19-5.928"/>
        <path stroke="#FFF" stroke-dasharray="3.801599884033203,2.53439998626709" stroke-linecap="round" stroke-linejoin="round" stroke-width="1.267" d="M111.257 109.558c5.698-.865 9.507 6.753 13.947 11.32 13.176 13.55 15.28 17.384 31.901 20.986 5.062 1.097 10.47 1.9 15.58.944 11.035-2.064 17.272-11.18 28.577-9.384 3.793.603 11.14 3.075 14.749 4.667 8.855 3.91 18.745 5.188 27.895 5.188"/>
        <path stroke="#B1D8FF" stroke-linecap="round" stroke-linejoin="round" stroke-width="1.267" d="M103.299 47.436c24.022.151 42.894 0 72.43 0"/>
        <path stroke="#4F8EF9" stroke-linecap="round" stroke-linejoin="round" stroke-width="1.267" d="M62.638 82.602c2.58.264 5.497 0 8.087 0M62.638 62.142c2.58.264 5.17.241 7.761.241M63.279 89.797c2.57.416 5.23-.416 7.761-.08"/>
        <path stroke="#FF8100" stroke-linecap="round" stroke-linejoin="round" stroke-width="1.92" d="M62.638 68.357c2.564 0 4.949.088 7.761.088"/>
        <path stroke="#4F8EF9" stroke-linecap="round" stroke-linejoin="round" stroke-width="1.267" d="M63.279 95.792c2.366-.018 4.688-.403 7.055-.403M63.279 75.332c2.366-.018 4.688-.403 7.055-.403"/>
        <path fill="#FFF" d="M66.212 28.117c.832 1.39 3.264 1.108 2.539 4.708-.108.536-.493 1.315-.805 1.667-.788.89 2.879-.697 3.676-2.35 1.437-2.978-1.258-6.342-2.636-6.697-2.152-.555-3.618 1.261-2.774 2.672z"/>
        <path fill="#FFF" d="M67.38 31.701c-.788-1.424-3.276-1.281-2.386-4.81.132-.527.557-1.278.89-1.61.839-.837-2.961.53-3.842 2.125-1.589 2.875 1.014 6.362 2.402 6.79 2.168.671 3.737-1.048 2.936-2.495z"/>
        <path stroke="#B1D8FF" stroke-linecap="round" stroke-linejoin="round" stroke-width="1.267" d="M104.906 109.49c1.33 35.714.37 41.315 1.21 42.204 94.836 1.795 120.816 1.43 142.023 1.368"/>
        <path fill="#FF8700" d="M236.85 197.926c7.934-7.682 6.089-8.599 12.7.26"/>
        <path fill="#FF8100" d="M90.371 75.01c-.854-3.996-.248-19.18-.067-19.18 1.014-.004 16.985.532 19.524.644L90.37 75.01zM.48 165.303c2.299-3.497 13.02-13.706 13.145-13.575.706.733 11.986 12.154 13.668 14.077L.48 165.303z"/>
        <g transform="translate(.48 3.32)">
            <use fill="#000" filter="url(#b)" xlink:href="#c"/>
            <use fill="#1B2653" xlink:href="#c"/>
        </g>
        <path stroke="#F5F9FD" stroke-linecap="round" stroke-linejoin="round" stroke-width="1.267" d="M121.84 58.256c.686 10.196-.5 20.614.465 30.82"/>
        <path stroke="#B1D8FF" stroke-linecap="round" stroke-linejoin="round" stroke-width="1.267" d="M5.457 175.146c-.471 1.38-.934 2.718-1.08 4.155-1.126 11.15 16.435 3.06 10.312-2.136-3.288-2.79-5.512 5.907 2.757 7.954 4.39 1.086 9.274-6.094 4.557-8.43-3.352-1.659-3.355 6.092 1.318 7.48 11.163 3.316 13.175-11.534 7.434-9.26-4.263 1.688-.502 10.167 5.276 9.023 2.617-.519 8.617-7.87 3.956-9.023-2.056-.51-2.398 2.368-2.398 3.799 0 3.913 4.192 3.73 6.954 4.511"/>
        <g transform="translate(.48 3.32)">
            <use fill="#000" filter="url(#d)" xlink:href="#e"/>
            <use fill="#FFC100" xlink:href="#e"/>
        </g>
        <path fill="#FF8100" d="M287.592 64.017c-1.615-1.24-4.815-2.231-7.36-1.027-7.555 3.575-5.264 15.012 3.285 14.821 3.08-.069 6.184-3.584 6.822-6.61.512-2.425-1.131-5.944-2.747-7.184z"/>
        <path fill="#FFC100" d="M58.252 194.054c-2.091-.508-4.069-.074-5.522 1.49-4.313 4.638.66 11.645 6.669 8.986 2.165-.958 3.338-4.24 2.905-6.461-.348-1.782-2.12-4.022-4.05-3.958"/>
        <path stroke="#B1D8FF" stroke-linecap="round" stroke-linejoin="round" stroke-width="1.267" d="M291.18 61.623c8.82-9.74 20.824-15.916 30.34-24.637M295.413 63.735c3.297-3.032 6.515-6.231 9.878-9.151M288.357 58.807c1.745-1.803 3.297-3.741 4.94-5.631M18.826 84.853c3.337-.547 6.52-1.408 9.878-1.408M23.765 79.925c.593 3.238.292 6.61.705 9.855M104.93 189.376c3.166 3.432 6.539 6.612 9.878 9.855M113.333 188.737c-2.147 3.475-5.232 6.066-7.762 9.151"/>
        <g transform="translate(.48 3.32)">
            <use fill="#000" filter="url(#f)" xlink:href="#g"/>
            <use fill="#FF8100" xlink:href="#g"/>
        </g>
        <path fill="#4F8DF9" d="M66.003 39.764h18.5a4.613 4.613 0 0 1 4.61 4.795 4.992 4.992 0 0 1-4.99 4.795H65.1a4.384 4.384 0 0 1-4.364-4.795 5.292 5.292 0 0 1 5.268-4.795zM254.007 142.702c-.828 12.692-1.267 50.635-.948 50.675 9.36 1.178 56.25-.15 56.25-.613 0-2.597 1.335-41.916.253-50.062h-55.555z"/>
        <path stroke="#FFF" stroke-linecap="round" stroke-linejoin="round" stroke-width="1.408" d="M264.489 152.293v26.214h32.04"/>
        <path stroke="#FFF" stroke-linecap="round" stroke-linejoin="round" stroke-width="1.408" d="M270.256 164.44h5.126v14.067h-5.126zM278.586 161.244h5.126v17.263h-5.126zM287.557 155.49h5.127v23.017h-5.127zM269.615 182.343h5.126M278.586 182.343h5.126M288.198 182.343h5.126"/>
        <path stroke="#CFE6FD" stroke-linecap="round" stroke-linejoin="round" stroke-width="1.408" d="M299.092 149.096h5.126M299.092 151.654h5.126M299.092 154.211h5.126"/>
        <g transform="translate(12.656 115.21)">
            <ellipse cx="17.622" cy="17.583" fill="#4F8DF9" rx="17.583" ry="17.622" transform="rotate(-90 17.622 17.583)"/>
            <path fill="#1B2653" d="M17.962-.02c9.458.17 17.094 7.823 17.263 17.302H17.962V-.019z"/>
            <path fill="#FFF" d="M29.477 4.69L17.942 17.262V0a17.283 17.283 0 0 1 11.535 4.69z"/>
        </g>
        <path stroke="#B1D8FF" stroke-linecap="round" stroke-linejoin="round" stroke-width="1.267" d="M101.726 40.737c1.913-1.413 3.581-3.06 5.006-4.751 3.267-3.875 1.27-12.151-2.503-6.929-3.756 5.2 1.73 13.965 10.013 10.69 3.628-1.435 13.425-10.14 4.755-11.284-5.012-.66-4.487 10.275.25 11.68 8.026 2.38 20.992-6.956 13.517-12.867-4.005-3.168-7.858 10.135 1.001 12.471 9.497 2.504 23.693-7.87 15.269-12.867-5.145-3.052-5.446 7.678-4.005 9.502 8.894 11.254 24.122-5.902 18.523-8.116-4.272-1.69-5.085 4.897-4.506 6.73 1.844 5.833 15.707 4.157 21.526 4.157"/>
        <g>
            <path fill="#D56C00" d="M238.216 190.198c.879 1.27 4.978 4.98 5.026 4.932.27-.266 4.583-4.416 5.227-5.114l-10.253.182z"/>
            <path fill="#D56C00" fill-rule="nonzero" d="M241.42 184.261h3.845v7.033h-3.845z"/>
            <path stroke="#D56C00" stroke-width="2.56" d="M237.575 197.688h11.534"/>
        </g>
    </g>
</svg>
