<svg xmlns="http://www.w3.org/2000/svg" xmlns:xlink="http://www.w3.org/1999/xlink" width="437" height="193" viewBox="0 0 437 193">
    <defs>
        <linearGradient id="a" x1="50%" x2="50%" y1="0%" y2="100%">
            <stop offset="0%" stop-color="#EFF6FC"/>
            <stop offset="100%" stop-color="#FFF"/>
        </linearGradient>
        <path id="c" d="M79.307 21c4.27.16 14.87.2 17.552.309.408.016.14 15.958-3.644 17.143-4.053 1.268-17.738.007-17.2-.502C80.66 33.562 79.307 21 79.307 21z"/>
        <filter id="b" width="152.4%" height="161.1%" x="-26.2%" y="-19.4%" filterUnits="objectBoundingBox">
            <feOffset dy="2" in="SourceAlpha" result="shadowOffsetOuter1"/>
            <feGaussianBlur in="shadowOffsetOuter1" result="shadowBlurOuter1" stdDeviation="1.5"/>
            <feColorMatrix in="shadowBlurOuter1" values="0 0 0 0 0.888821972 0 0 0 0 0.895144404 0 0 0 0 0.901466837 0 0 0 1 0"/>
        </filter>
        <path id="e" d="M66.307 63c4.27.16 14.87.2 17.552.309.408.016.14 15.958-3.644 17.143-4.053 1.268-17.738.007-17.2-.502C67.66 75.562 66.307 63 66.307 63z"/>
        <filter id="d" width="152.4%" height="161.1%" x="-26.2%" y="-19.4%" filterUnits="objectBoundingBox">
            <feOffset dy="2" in="SourceAlpha" result="shadowOffsetOuter1"/>
            <feGaussianBlur in="shadowOffsetOuter1" result="shadowBlurOuter1" stdDeviation="1.5"/>
            <feColorMatrix in="shadowBlurOuter1" values="0 0 0 0 0.888821972 0 0 0 0 0.895144404 0 0 0 0 0.901466837 0 0 0 1 0"/>
        </filter>
        <path id="g" d="M69.85 38c-4.066.151-14.162.188-16.715.291-.389.016-.134 15.072 3.47 16.191 3.86 1.198 16.893.007 16.38-.473C68.562 49.864 69.85 38 69.85 38z"/>
        <filter id="f" width="155%" height="164.7%" x="-27.5%" y="-20.6%" filterUnits="objectBoundingBox">
            <feOffset dy="2" in="SourceAlpha" result="shadowOffsetOuter1"/>
            <feGaussianBlur in="shadowOffsetOuter1" result="shadowBlurOuter1" stdDeviation="1.5"/>
            <feColorMatrix in="shadowBlurOuter1" values="0 0 0 0 0.888821972 0 0 0 0 0.895144404 0 0 0 0 0.901466837 0 0 0 1 0"/>
        </filter>
        <linearGradient id="h" x1="50%" x2="50%" y1="3.111%" y2="97.716%">
            <stop offset="0%" stop-color="#E4F1FD"/>
            <stop offset="100%" stop-color="#FFF"/>
        </linearGradient>
    </defs>
    <g fill="none" fill-rule="evenodd" transform="translate(0 1)">
        <path fill="#4F8DF9" fill-rule="nonzero" d="M195 128h35v18h-35z"/>
        <path fill="url(#a)" fill-rule="nonzero" d="M347.525 33.417L419 165H229l82.28-132z"/>
        <path fill="#4F8DF9" d="M333.037 114l39.96.338c.131 6.636-3.947 20.117-10.916 22.685-3.642 1.342-6.163 1.816-10.044 1.976-5.381.066-12.012-4.509-14.93-8.185-2.433-3.152-4.403-12.979-4.07-16.814z"/>
        <path fill="#FFC100" d="M369.288 98.831c-6.245-8.639 1.93-8.167 5.123-13.228 2.152-3.412.716-7.988 3.476-11.139 4.505-5.142 13.937-1.558 15.003 4.526 1.003 5.725-5.105 6.596-8.233 9.572-1.664 1.583-3.897 20.66-14.637 10.444l-.732-.175zM359.14 95.766c-5.646 1.38-9.732-3.576-9.07-8.597.444-3.362 3.801-5.463 3.319-9.122-.443-3.353-4.973-4.937-2.766-9.121 1.02-1.932 3.863-2.98 4.204-5.242.443-2.943-2.76-4.864-2.323-7.759.425-2.819 3.979-3.455 5.31-5.661 2.61-4.33-2.027-13.32 8.959-12.162 3.726.392 8.38 4.058 6.968 8.073-.726 2.066-3.279 3.71-3.76 5.766-.602 2.566 2.179 5.619.884 8.073-.987 1.872-4.55 2.939-4.867 5.033-.477 3.167 3.323 5.385 2.323 8.702-.902 2.993-5.72 3.727-6.305 6.5-1.02 4.833 4.883 11.313-1.106 15.098l-1.77.419z"/>
        <path stroke="#FF8700" stroke-linecap="round" stroke-linejoin="round" stroke-width="2" d="M365 111c3.252-9.737 9.4-18.76 17-26M366 44c-10.117 20.663-11 44.01-11 67"/>
        <path fill="#FFC100" d="M341.12 103.935c-12.115.028-2.927-6.745-12.656-12.041-7.48-4.072-2.415-6.21-6.117-9.97-2.446-2.487-7.386-2.21-9.853-4.467-2.903-2.655-.164-5.947-1.954-8.676-2.068-3.153-7.511-4.584-8.41-8.351-.973-4.083 3.611-10.035 10.194-8.028 5.437 1.657 5.841 6.412 9.174 9.517 2.324 2.165 7.165 2.122 9.939 3.884 3.937 2.501 2.113 5.86 4.757 8.546 1.736 1.764 4.87 2.278 6.37 4.338 2.334 3.2-1.922 6.133 0 9.063.97 1.478 2.576 2.707 3.653 4.144 3.058 4.078 2.763 12.106-5.521 12.106l.424-.065z"/>
        <path stroke="#FF8700" stroke-linecap="round" stroke-linejoin="round" stroke-width="2" d="M314 63c16.174 13.107 28.623 30.89 31 49"/>
        <path fill="#B1D8FF" d="M133.853 54c.068 11.744.059 37.194.147 46H94c1.273-18.881 1.273-32.152 0-46h39.853z"/>
        <path fill="#4F8DF9" d="M113.105 57c-.117-1.275-.162-8.986 0-8.988 1.508-.018 4.53-.014 4.637 0 .115.016.19 7.964.258 8.959l-4.895.029z"/>
        <path fill="#FFF" d="M106.26 84.906c-.117-2.117-.4-14.593-.243-14.627 1.02-.227 4.187-.094 4.294-.07.116.026.803 12.998.872 14.648l-4.923.049zM113.123 85.152c-.12-2.831-.304-18.943-.136-18.938 1.3.035 4.155.003 4.264.035.118.035.81 16.63.88 18.837l-5.008.066zM120.613 85.152c-.118-2.467-.356-17.38-.192-17.384 1.53-.036 4.078-.1 4.186-.072.117.03.9 15.475.97 17.399l-4.964.057z"/>
        <path stroke="#FF8700" stroke-linecap="round" stroke-linejoin="round" stroke-width="2" d="M102.091 77.63c1.2-.494 2.518-.748 3.6-1.484 3.746-2.548 2.964-3.976 6.812-5.045 2.982-.83 5.042 1.839 7.13 3.305 2.507 1.76 5.769 1.1 8.48.787"/>
        <path stroke="#FFF" stroke-linecap="round" stroke-linejoin="round" stroke-width="2" d="M102.097 64c-.076 4.897-.128 20.956-.076 20.978 20.162.342 23.311.074 26 .074M106.964 88.69h3.684M113.664 88.69h3.685M121.358 88.69h3.684"/>
        <path fill="#1B2653" d="M331.005 110.162c18.901-.212 18.36-.199 22.384-.058 2.175.076 18.102-.088 20.26.166.63.074.253 5.093.084 5.669-9.517.26-41.638-.353-42.733-.959l.005-4.818z"/>
        <path fill="#F5F9FD" fill-rule="nonzero" d="M27 67h18v19H27zM88 13h18v19H88z"/>
        <path fill="#FF8700" d="M379.641 137.703c2.426.053 6.427-.24 8.854-.168 1.198 4.579-.129 6.666.003 8.415-2.437-.023-.683.092-4.03.028-7.12-.136-17.49.144-24.612-.048-14.056-.378-26.387.164-40.446-.165-.616-6.255-.389-8.356-.264-8.765l60.495.703zM382.466 154.231c.056 2.75-.035 8.707.057 10.769-36.64-.25-55.832.081-56-.645-1.116-4.855-.116-9.872-.01-10.355l55.953.231z"/>
        <path fill="#1B2653" d="M135.96 23h153.08c2.187 0 3.96 2.081 3.96 4.648v96.704c0 2.567-1.773 4.648-3.96 4.648H135.96c-2.187 0-3.96-2.081-3.96-4.648V27.648c0-2.567 1.773-4.648 3.96-4.648z"/>
        <rect width="143" height="35" x="141" y="32" fill="#3063BB" fill-rule="nonzero" rx="2"/>
        <path fill="#4F8DF9" d="M293 116v10.78c0 1.779-1.773 3.22-3.96 3.22H135.96c-2.187 0-3.96-1.441-3.96-3.22V116h161z"/>
        <use fill="#000" filter="url(#b)" xlink:href="#c"/>
        <use fill="#FFC100" xlink:href="#c"/>
        <use fill="#000" filter="url(#d)" xlink:href="#e"/>
        <use fill="#FFC100" xlink:href="#e"/>
        <path stroke="#B1D8FF" stroke-linecap="round" stroke-linejoin="round" stroke-width="1.8" d="M330 .5v14-14z"/>
        <path fill="#1B2653" d="M117.73 120.92c-8.28-1.392-40.331-1.042-41.73-.024 4.691 36.343 6.028 42.93 6.19 42.974 18.931 5.037 30.37-.38 30.849-.834 0 0 6.325-41.841 4.691-42.116z"/>
        <path fill="#B1D8FF" fill-rule="nonzero" d="M147 146h131v18H147z"/>
        <use fill="#000" filter="url(#f)" xlink:href="#g"/>
        <use fill="#FFC100" xlink:href="#g"/>
        <path fill="#FFF" d="M236.43 55c10.766.018 21.532.064 32.298.174 2.815.028 5.789.003 8.603.136.414.417.44 2.193.47 2.661.054.858.102 1.716.132 2.575.124 3.475.046 30.665 0 40.28-2.83.13-63.51.315-79.82 0-.083-10.565-.17-24.553-.064-35.118.027-2.66.058-4.921.135-7.513.009-.291.02-2.445.214-2.785 12.669-.467 25.355-.396 38.032-.41z"/>
        <g fill="#FFC100">
            <path d="M209.834 90.197c-.139-2.416-.473-16.655-.288-16.695 1.208-.259 4.96-.107 5.088-.08.137.03.951 14.836 1.033 16.72l-5.833.055zM218.153 90.778c-.141-3.3-.36-22.076-.161-22.07 1.54.04 4.923.003 5.052.04.14.041.96 19.382 1.044 21.954l-5.935.076zM234.256 90.197c-.145-.503-.02-3.445.173-3.453 1.266-.054 5.17-.024 5.303-.018.144.006.551 3.067.636 3.46l-6.112.011zM259.52 90.197c-.146-2.179-.022-14.928.172-14.964 1.266-.233 5.17-.103 5.303-.079.144.027.551 13.294.637 14.993l-6.112.05zM225.902 90.778c-.144-1.482-.2-10.438 0-10.44 1.862-.022 5.595-.017 5.726 0 .143.018.235 9.25.32 10.406l-6.046.034zM250.767 90.778c-.14-3.61-.421-25.436-.227-25.441 1.812-.052 4.832-.146 4.96-.105.138.045 1.067 22.648 1.15 25.462l-5.883.084zM242.183 90.778c-.144-1.565-.202-10.452 0-10.45 1.569.02 5.584-.018 5.715 0 .142.02.246 9.194.33 10.414l-6.045.036z"/>
        </g>
        <path fill="#FF8700" d="M235.032 76.619l-.25-9.352h4.59c-.213.012-.155 3.902-.42 9.297.067.072 2.048-.024 2.048.083 0 .66-4.071 4.635-4.59 4.925-.364.203-3.503-5.008-3.408-5.008.096 0 1.684 0 2.03.055z"/>
        <g fill="#FFF" fill-rule="nonzero">
            <path d="M101.467 132.425c-.18-.058-.33-.117-.51-.175-2.819-.82-4.378.527-4.798 1.903-.57 1.874.39 3.163 2.939 5.066 3.09 2.314 4.379 4.48 3.48 7.468-.27.878-.72 1.669-1.32 2.313 2.489-.996 4.528-3.046 5.368-5.769 1.32-4.392-.96-8.99-5.159-10.806"/>
            <path d="M97.267 140.376c-2.924-2.116-4.43-4.405-3.59-7.217.116-.405.29-.811.492-1.159a8.879 8.879 0 0 0-4.805 5.565c-.782 2.666-.261 5.39 1.157 7.535.985 1.217 1.969 2.145 3.909 2.666 2.663.725 4.776-.29 5.384-2.29.58-1.883-.174-3.245-2.547-5.1"/>
        </g>
        <path fill="#B1D8FF" d="M323.028 39.284L336 39c-.039 2.095-1.529 6.395-3.824 7.274-1.199.46-2.023.635-3.286.723-1.748.074-3.845-1.307-4.747-2.44-.752-.972-1.27-4.058-1.115-5.273z"/>
        <path fill="#4F8DF9" d="M351.918 41L306 40.54c.069-7.154 5.203-21.68 13.298-24.432 4.23-1.438 7.143-1.944 11.61-2.107 6.187-.059 13.657 4.89 16.889 8.86 2.692 3.405 4.631 14.005 4.121 18.139z"/>
        <path fill-rule="nonzero" stroke="#1B2653" stroke-width="6" d="M79.357 132c-7.927.917-11.304 4.89-10.13 11.917 1.175 7.029 5.432 9.473 12.773 7.334"/>
        <path fill="#FFC100" d="M386.999 145.591c.024 4.497 0 5.909 0 9.409-18.499 0-57.455-.4-71.587-.748-.62-6.603-.39-8.82-.265-9.252l71.852.591z"/>
        <g>
            <path fill="#FFF" d="M169.578 55c6.325.018 12.65.064 18.975.174 1.653.028 3.4.003 5.054.136.243.417.259 2.193.276 2.661.032.858.06 1.716.078 2.575.073 3.475.027 30.665 0 40.28-1.663.13-37.313.315-46.894 0-.05-10.565-.1-24.553-.038-35.118.016-2.66.034-4.921.08-7.513.004-.291.011-2.445.125-2.785 7.443-.467 14.896-.396 22.344-.41z"/>
            <path fill="#4F8EF9" d="M163.88 66.002c1.76.058 3.423.504 4.958 1.337l1.057.698c9.825 7.302 3.899 21.108-4.587 21.899-13.417 1.251-20.054-16.175-8-22.597 1.544-.797 3.27-1.208 5.006-1.32.521-.033 1.045-.012 1.567-.017zm-.476 6.274a6.112 6.112 0 0 0-3.016.637c-5.533 3.063-2.487 11.372 3.672 10.775 3.894-.377 6.614-6.96 2.105-10.442l-.485-.333c-.685-.445-1.48-.554-2.276-.637z"/>
            <path fill="#FFC100" d="M158.378 81c1.374 1.961 3.268 2.851 5.746 2.723.557-.033 1.058-.246 1.544-.485.482 2.114.91 4.239 1.332 6.364-1.048.292-.517.182-1.595.33-4.382.43-8.506-1.21-11.405-4.299.586-.65 1.146-1.326 1.752-1.96 1.662-1.677.786-.787 2.626-2.673z"/>
            <path fill="#FF8700" d="M167.5 81c1.713 1.347 3.772 2.677 5.5 4.005-1.607 2.68-4.368 4.55-7.498 4.995-.504-2.096-.987-4.197-1.502-6.29l.18-.01c1.657-.188 2.53-1.338 3.32-2.7z"/>
            <path fill="#171F66" d="M163.322 66l.528.001c1.767.057 3.436.495 4.977 1.312l1.061.686c4.576 3.31 6.552 8.809 4.612 14.001-.347.928-.862 2.219-1.5 3-1.71-1.29-3.925-2.494-5.574-3.858 1.744-2.84 1.383-5.856-1.283-8.03l-.487-.327c-.687-.437-1.485-.544-2.284-.626l-.372-.003c.09-2.053.204-4.105.322-6.156z"/>
            <path fill-rule="nonzero" stroke="#CAE4FE" stroke-linecap="round" stroke-width="2" d="M179 68h8.5M179 73.25h8.5M179 83.25h8.5M179 78.25h8.5M179 88.25h8.5"/>
        </g>
        <path stroke="#FFF" stroke-dasharray="5.759999885559068,3.839999923706046" stroke-linecap="round" stroke-linejoin="round" stroke-width="1.92" d="M148 41.131c13 .083 25.5-.333 42 0"/>
        <path fill-rule="nonzero" stroke="#FFF" stroke-width="2" d="M191 131h34"/>
        <path fill-rule="nonzero" stroke="#CAE4FE" stroke-width="2" d="M208 94.25h58"/>
        <path fill-rule="nonzero" stroke="#FFF" stroke-width="2" d="M76 128l2 15"/>
        <path fill="#3063BB" d="M330 40.78V14.04c.296-.015.598-.028.907-.04 6.188-.058 13.658 4.89 16.89 8.861 2.692 3.405 4.631 14.005 4.121 18.139L330 40.78z" opacity=".9"/>
        <path fill="url(#h)" fill-rule="nonzero" d="M0 162h437c-.3 16.655-13.886 30-30.544 30H30.544C13.887 192 .3 178.655 0 162z"/>
    </g>
</svg>
