<svg width="100%" height="100%" viewBox="0 0 22 22" xmlns="http://www.w3.org/2000/svg"><g fill-rule="nonzero" fill="none"><path d="M21.316 14.826c.442-1.192.684-2.48.684-3.826s-.242-2.634-.684-3.826L11 6.217.684 7.174A10.976 10.976 0 0 0 0 11c0 1.346.242 2.634.684 3.826L11 15.783l10.316-.957z" fill="#6DA544"/><path d="M21.316 7.174C19.762 2.985 15.73 0 11 0S2.238 2.985.684 7.174h20.632z" fill="#FFDA44"/><path d="M11 22c4.73 0 8.762-2.985 10.316-7.174H.684C2.238 19.015 6.27 22 11 22z" fill="#D80027"/><path fill="#F0F0F0" d="M18.543 9.306h-5.762L11 3.826l-1.78 5.48H3.456l4.662 3.387-1.78 5.48L11 14.827l4.662 3.348-1.78-5.48z"/></g></svg>
