<svg width="100%" height="100%" viewBox="0 0 22 22" xmlns="http://www.w3.org/2000/svg"><g fill-rule="nonzero" fill="none"><circle fill="#F0F0F0" cx="11" cy="11" r="11"/><g fill="#D80027"><path d="M17.698 2.273a11.005 11.005 0 0 0-13.396 0L11 8.971l6.698-6.698zM11 13.03l-6.698 6.697a11.005 11.005 0 0 0 13.396 0L11 13.029z"/></g><g fill="#6DA544"><path d="M8.97 11L2.274 4.302a11.005 11.005 0 0 0 0 13.396L8.971 11zM13.03 11l6.697 6.698a11.005 11.005 0 0 0 0-13.396L13.029 11z"/></g><circle fill="#F0F0F0" cx="11" cy="11" r="4.783"/><g fill="#D80027"><path d="M11 7.652l.414.718h.829l-.415.717.415.717h-.829l-.414.718-.414-.718h-.829l.415-.717-.415-.717h.829zM8.895 11l.414.717h.828l-.414.718.414.717H9.31l-.414.718-.414-.718h-.829l.414-.717-.414-.718h.829zM13.105 11l.414.717h.829l-.414.718.414.717h-.829l-.414.718-.414-.718h-.828l.414-.717-.414-.718h.828z"/></g></g></svg>
