<svg width="100%" height="100%" viewBox="0 0 22 22" xmlns="http://www.w3.org/2000/svg"><g fill-rule="nonzero" fill="none"><circle fill="#FCFCFC" cx="11" cy="11" r="11"/><g fill="#A2001D"><path d="M4.543 10.203l-1.195-2.17L4.543 5.9 5.74 8.034zM2.152 10.203L.957 8.033 2.152 5.9l1.196 2.135zM4.543 16.101l-1.195-2.169 1.195-2.135 1.196 2.135zM2.152 16.101L.957 13.932l1.195-2.135 1.196 2.135zM5.74 2.135l-.34-.604a11.03 11.03 0 0 0-1.7 1.242l.843 1.531L5.74 2.135zM4.543 17.696l-.853 1.523a11.03 11.03 0 0 0 1.7 1.244l.35-.632-1.197-2.135z"/></g><path d="M6.696 13.87v7.255C8.018 21.688 9.472 22 11 22c4.73 0 8.762-2.985 10.316-7.174l-14.62-.956z" fill="#6DA544"/><path d="M21.316 14.826c.442-1.192.684-2.48.684-3.826 0-6.075-4.925-11-11-11-1.527 0-2.982.312-4.304.874v13.952h14.62z" fill="#A2001D"/></g></svg>
