<svg width="100%" height="100%" viewBox="0 0 22 22" xmlns="http://www.w3.org/2000/svg"><g fill-rule="nonzero" fill="none"><path d="M0 11c0 1.906.485 3.698 1.337 5.26l9.663.957 9.663-.956A10.95 10.95 0 0 0 22 11a10.95 10.95 0 0 0-1.337-5.26L11 4.782l-9.663.956A10.95 10.95 0 0 0 0 11z" fill="#D80027"/><g fill="#0052B4"><path d="M1.337 5.74h19.325A10.997 10.997 0 0 0 11 0C6.83 0 3.203 2.32 1.337 5.74zM11 22c4.17 0 7.797-2.32 9.663-5.74H1.337A10.997 10.997 0 0 0 11 22z"/></g><path fill="#F0F0F0" d="M14.826 13.152v-1.435h-.956V9.804l-.957-.956-.956.956V7.891L11 6.935l-.957.956v1.913l-.956-.956-.957.956v1.913h-.956v1.435h-.957v1.435h9.566v-1.435z"/></g></svg>
