<svg width="100%" height="100%" viewBox="0 0 22 22" xmlns="http://www.w3.org/2000/svg"><g fill-rule="nonzero" fill="none"><path d="M11 0c6.075 0 11 4.925 11 11s-4.925 11-11 11c0-.478-1.435-11-1.435-11L11 0z" fill="#F0F0F0"/><path d="M11 22C4.925 22 0 17.075 0 11S4.925 0 11 0" fill="#496E2D"/><g fill="#D80027"><path d="M13.363 8.89l-.902 1.244-1.462-.474.904 1.242-.902 1.244 1.46-.476.905 1.243-.001-1.537 1.461-.475-1.462-.474z"/><path d="M11.913 14.109a3.109 3.109 0 1 1 1.478-5.844 3.826 3.826 0 1 0 0 5.47c-.44.238-.943.374-1.478.374z"/></g></g></svg>
