<svg width="100%" height="100%" viewBox="0 0 22 22" xmlns="http://www.w3.org/2000/svg"><g fill-rule="nonzero" fill="none"><circle fill="#F0F0F0" cx="11" cy="11" r="11"/><g fill="#D80027"><path d="M22 11a11 11 0 0 0-6.217-9.909v19.817A11 11 0 0 0 22 11zM0 11a11 11 0 0 0 6.217 9.909V1.09A11 11 0 0 0 0 11zM12.913 12.435l1.913-.957L13.87 11v-.957L11.957 11l.956-1.913h-.956L11 7.652l-.957 1.435h-.956L10.043 11l-1.913-.957V11l-.956.478 1.913.957-.478.956h1.913v1.435h.956v-1.435h1.913z"/></g></g></svg>
