<svg width="100%" height="100%" viewBox="0 0 22 22" xmlns="http://www.w3.org/2000/svg"><g fill-rule="nonzero" fill="none"><circle fill="#F0F0F0" cx="11" cy="11" r="11"/><g fill="#0052B4"><path d="M11 22c3.334 0 6.321-1.483 8.339-3.826H2.66A10.975 10.975 0 0 0 11 22zM22 11c0-6.075-4.925-11-11-11S0 4.925 0 11c0 .993.132 1.955.379 2.87H21.62c.247-.915.379-1.877.379-2.87z"/></g><path d="M.874 15.304c.212.499.46.978.74 1.435h18.772c.28-.457.528-.936.74-1.435H.874z" fill="#D80027"/><g fill="#FFDA44"><path d="M7.863 11.717l.178.548h.576l-.466.34.178.547-.466-.339-.466.34.178-.549-.466-.339h.576zM7.863 18.891l.178.548h.576l-.466.339.178.548-.466-.339-.466.34.178-.549-.466-.339h.576zM4.523 16.465l.179.548h.576l-.466.339.178.548-.467-.339-.466.339.178-.548-.466-.339h.576zM5.799 12.435l.178.548h.576l-.466.339.178.548-.466-.34-.466.34.178-.548-.466-.34h.576zM3.77 14.692h.575l.178-.548.179.548h.576l-.466.338.178.548-.467-.338-.466.338.178-.548zM5.333 19.504l.178-.548-.466-.339h.576l.178-.548.178.548h.576l-.466.339.178.548-.466-.339zM11.201 16.465l-.178.548h-.576l.466.339-.178.548.466-.339.466.339-.178-.548.466-.339h-.576zM9.925 12.435l-.178.548h-.576l.466.339-.178.548.466-.34.467.34-.178-.548.466-.34h-.577zM11.955 14.692h-.576l-.178-.548-.178.548h-.576l.466.338-.178.548.466-.338.466.338-.178-.548zM10.392 19.504l-.178-.548.466-.339h-.576l-.179-.548-.178.548h-.576l.466.339-.178.548.466-.339z"/></g></g></svg>
