<svg width="100%" height="100%" viewBox="0 0 22 22" xmlns="http://www.w3.org/2000/svg"><g fill="none" fill-rule="evenodd"><path d="M22 11c0 6.075-4.925 11-11 11S0 17.075 0 11C0 11.003 11 .001 11 0c6.075 0 11 4.925 11 11z" fill="#0052B4" fill-rule="nonzero"/><path d="M11 5.74V0h-.002C4.924.001 0 4.925 0 11h5.74V7.768L8.97 11h2l.03-.03v-2L7.768 5.74H11z" fill="#F0F0F0" fill-rule="nonzero"/><circle fill="#6DA544" fill-rule="nonzero" cx="15.783" cy="6.217" r="1.913"/><g fill="#D80027" fill-rule="nonzero"><path d="M5.565 1.435c-1.72.98-3.15 2.41-4.13 4.13V11h2.87V4.304H11v-2.87H5.565z"/><path d="M11 9.647L7.092 5.74H5.739L11 11H11V9.647zM12.435 5.739h6.696v2.87h-6.696z"/></g><path d="M12.435 12.913v1.913h1.006c.604.592 1.43.957 2.342.957.911 0 1.737-.365 2.34-.957h1.007v-1.913h-6.695z" fill="#FFDA44" fill-rule="nonzero"/><path d="M12.435 8.13V11c0 2.563 3.348 3.348 3.348 3.348S19.13 13.563 19.13 11V8.13h-6.695z" fill="#338AF3" fill-rule="nonzero"/><g fill="#F3F3F3" fill-rule="nonzero"><path d="M15.782 9.663c-.836 0-.836.765-1.673.765-.837 0-.837-.765-1.674-.765v1.34c.837 0 .837.765 1.674.765s.837-.766 1.673-.766c.837 0 .837.766 1.674.766s.837-.766 1.674-.766V9.663c-.837 0-.837.765-1.674.765s-.837-.765-1.674-.765zM15.782 6.983c-.836 0-.836.765-1.673.765-.837 0-.837-.765-1.674-.765v1.339c.837 0 .837.765 1.674.765s.837-.765 1.673-.765c.837 0 .837.765 1.674.765s.837-.765 1.674-.765v-1.34c-.837 0-.837.766-1.674.766s-.837-.765-1.674-.765z"/></g></g></svg>
