<svg width="100%" height="100%" viewBox="0 0 22 22" xmlns="http://www.w3.org/2000/svg"><g fill-rule="nonzero" fill="none"><circle fill="#F0F0F0" cx="11" cy="11" r="11"/><g fill="#0052B4"><path d="M20.663 5.74A11.025 11.025 0 0 0 13.87.377L13.39 5.74h7.272zM1.337 5.74H8.61L8.13.377A11.025 11.025 0 0 0 1.337 5.74z"/></g><g fill="#6DA544"><path d="M13.391 11v5.26h7.271A10.95 10.95 0 0 0 22 11h-8.609zM8.609 11H0c0 1.906.485 3.698 1.337 5.26H8.61V11z"/></g><g fill="#FFDA44"><path d="M1.337 16.26a11.025 11.025 0 0 0 6.793 5.362l.479-4.689-7.272-.672zM13.87 21.622a11.025 11.025 0 0 0 6.793-5.361l-7.272.672.479 4.689z"/><path d="M13.391 16.933l7.272-.672H13.39zM8.609 16.26H1.337l7.272.673z"/></g><path d="M11 0c-.993 0-1.955.132-2.87.379V21.62c.915.247 1.877.379 2.87.379.993 0 1.955-.132 2.87-.379V.38A11.012 11.012 0 0 0 11 0z" fill="#D80027"/><path fill="#FFDA44" d="M5.917 2.391l.296.914h.96l-.776.564.297.914-.777-.565-.777.565.297-.914-.777-.564h.96z"/></g></svg>
