<svg width="100%" height="100%" viewBox="0 0 22 22" xmlns="http://www.w3.org/2000/svg"><g fill-rule="nonzero" fill="none"><circle fill="#FFDA44" cx="11" cy="11" r="11"/><path d="M8.609 1.913H4.8c-.169.115-.334.236-.496.36L3.348 11l.956 8.727c.162.124.327.245.496.36H8.61V1.913z" fill="#FF9811"/><path d="M0 11c0 3.555 1.687 6.716 4.304 8.727V2.273A10.981 10.981 0 0 0 0 11z" fill="#6DA544"/><path d="M21.123 13.87h-2.072l-.877.956v1.913H16.26v-.956h.956V13.87h-4.304v1.195h-.956v-2.278a1.43 1.43 0 0 1-.479-1.07V5.5c0-.792.643-1.435 1.435-1.435v8.848h1.913l.656-.547a2.288 2.288 0 0 1-.178-.888v-1.434H13.87v-2.87h2.87c0-.478.717-.957.717-.957s.717.479.717.957v2.87c.532.006 1.377-.008 2.29 0a2.902 2.902 0 0 1-.377-1.435c0-.844.364-1.603.944-2.128A11.044 11.044 0 0 0 17.2 1.913h-7.156v18.174H17.2a11.024 11.024 0 0 0 4.302-5.805l-.379-.412z" fill="#A2001D"/></g></svg>
