<svg width="100%" height="100%" viewBox="0 0 22 22" xmlns="http://www.w3.org/2000/svg"><g fill-rule="nonzero" fill="none"><path d="M11 0C9.654 0 8.366.242 7.174.684L6.696 11l.478 10.316C8.366 21.758 9.654 22 11 22s2.634-.242 3.826-.684L15.304 11 14.826.684A10.977 10.977 0 0 0 11 0z" fill="#FFDA44"/><path d="M22 11c0-4.73-2.985-8.762-7.174-10.316v20.632C19.015 19.762 22 15.73 22 11z" fill="#D80027"/><path d="M7.174 21.316V.684C2.985 2.238 0 6.27 0 11s2.985 8.762 7.174 10.316z" fill="#0052B4"/></g></svg>
