<svg width="100%" height="100%" viewBox="0 0 22 22" xmlns="http://www.w3.org/2000/svg"><g fill-rule="nonzero" fill="none"><circle fill="#D80027" cx="11" cy="11" r="11"/><g fill="#FFDA44"><path d="M6.02 6.695l.95 2.921h3.072l-2.484 1.81.95 2.921-2.488-1.804-2.488 1.804.954-2.922-2.488-1.809H5.07zM13.041 17.037l-.726-.894-1.074.417.623-.967-.727-.898 1.113.297.628-.967.06 1.152 1.117.296-1.078.413zM14.485 14.416l.344-1.1-.942-.666 1.152-.017.34-1.1.373 1.091 1.152-.013-.924.688.37 1.091-.941-.666zM16.431 8.074l-.507 1.035.825.804-1.138-.163-.507 1.03-.198-1.134-1.143-.163 1.023-.537-.198-1.139.825.804zM13.071 4.937l-.086 1.147 1.07.434-1.121.275-.082 1.152-.606-.98-1.121.275.743-.88-.61-.976 1.07.434z"/></g></g></svg>
