<svg width="100%" height="100%" viewBox="0 0 22 22" xmlns="http://www.w3.org/2000/svg"><g fill-rule="nonzero" fill="none"><path d="M22 11c0 6.075-4.925 11-11 11S0 17.075 0 11L11 0c6.075 0 11 4.925 11 11z" fill="#D80027"/><path d="M11 11V0C4.925 0 0 4.925 0 11h11z" fill="#0052B4"/><path fill="#F0F0F0" d="M9.565 6.438l-1.343.632.715 1.3-1.459-.278-.184 1.473-1.017-1.084-1.016 1.084-.184-1.473-1.46.279.716-1.301-1.343-.632 1.343-.632-.715-1.301 1.459.279.184-1.474 1.016 1.084L7.294 3.31l.184 1.474 1.46-.28-.716 1.302z"/><circle fill="#0052B4" cx="6.278" cy="6.437" r="2.048"/><path d="M6.277 7.529a1.092 1.092 0 0 1 0-2.182 1.092 1.092 0 0 1 0 2.182z" fill="#F0F0F0"/></g></svg>
