<svg width="100%" height="100%" viewBox="0 0 22 22" xmlns="http://www.w3.org/2000/svg"><g fill-rule="nonzero" fill="none"><circle fill="#F0F0F0" cx="11" cy="11" r="11"/><g fill="#0052B4"><path d="M16.337 1.38A10.95 10.95 0 0 0 11 0C4.925 0 0 4.924 0 10.999l7.652-3.825 8.685-5.794zM0 11.001C0 17.076 4.925 22 11 22c1.937 0 3.756-.501 5.337-1.38l-8.685-5.794L0 11.001z"/></g><path d="M17.253 1.95a11.013 11.013 0 0 0-.917-.57L0 10.999V11l16.336 9.619c.316-.175.622-.366.917-.57L1.883 11l15.37-9.05z" fill="#D80027"/><path d="M19.13 10.59h-1.31a1.04 1.04 0 0 0-.064-1.402 1.041 1.041 0 0 0 0-1.472l-.025.025c.407-.407.432-1.09.025-1.497l-5.89 5.889a1.027 1.027 0 0 0 1.462-.005l.113-.103 2.82-.257v1.213h.956v-1.3l1.435-.13.478-.961z" fill="#A2001D"/><path fill="#FFDA44" d="M11.957 13.391L11 12.913l.957-.478h6.217v.956z"/></g></svg>
