<svg width="100%" height="100%" viewBox="0 0 22 22" xmlns="http://www.w3.org/2000/svg"><g fill-rule="nonzero" fill="none"><path d="M18.748 18.705c-4.28 4.28-11.217 4.28-15.496 0-4.279-4.279-4.279-11.217 0-15.496.337.337 8.759 6.738 8.759 6.738l6.737 8.758z" fill="#0052B4"/><path d="M3.252 3.21c4.28-4.28 11.217-4.28 15.496 0 4.28 4.278 4.279 11.216 0 15.495" fill="#6DA544"/><circle fill="#FFDA44" cx="11" cy="10.957" r="2.858"/><g fill="#F0F0F0"><path d="M4.123 15.721l.3.629.68-.157-.305.627.547.433-.68.153.002.697-.544-.436-.544.436.002-.697-.68-.153.546-.433-.304-.627.68.157zM2.156 10.48l.3.63.68-.157-.304.627.546.433-.68.153.002.697-.544-.436-.544.436.002-.697-.68-.153.546-.433-.304-.627.68.157zM4.123 6.193l.3.629.68-.157-.305.627.547.433-.68.153.002.697-.544-.436-.544.436.002-.697-.68-.153.546-.433-.304-.627.68.157zM6.566 9.528l.3.629.68-.157-.304.627.546.433-.68.153.002.697-.544-.436-.544.436.002-.697-.68-.153.546-.433L5.586 10l.68.157zM4.82 12.386l.236.728h.765l-.62.45.237.728-.619-.45-.62.45.237-.728-.619-.45h.766z"/></g><path d="M11 12.863h.953s.413-.73 0-1.43l.953-.952-.477-.953h-.476s-.238.715-1.191.715c-.953 0-1.191-.715-1.191-.715h-.477l.477.953-.477.953.477.476s.476-.953 1.429-.476c0 0 .405.595 0 1.429z" fill="#6DA544"/><path d="M18.112 6.002a1.906 1.906 0 0 0-1.284-2.174 3.557 3.557 0 0 1 .321 2.134 1.956 1.956 0 0 0-2.742-.598c.531.116 1.044.351 1.498.713.356.282.643.665.863 1.034l-2.91.911c2.859.477 5.24-1.429 5.24-1.429-.263-.528-.673-.617-.986-.591z" fill="#FFDA44"/></g></svg>
