<svg width="100%" height="100%" viewBox="0 0 22 22" xmlns="http://www.w3.org/2000/svg"><g fill-rule="nonzero" fill="none"><circle fill="#6DA544" cx="11" cy="11" r="11"/><g fill="#FFDA44"><path d="M16.886 15.783l.302.63.682-.157-.306.63.548.434-.682.154.002.7-.546-.438-.546.438.002-.7-.682-.154.548-.434-.305-.63.681.158zM14.078 9.087l.302.631.681-.157-.305.63.548.434-.682.154.002.7-.546-.438-.546.437.002-.7-.682-.153.548-.435-.306-.63.682.158zM16.886 5.26l.302.632.682-.158-.306.63.548.435-.682.154.002.7-.546-.439-.546.438.002-.7-.682-.153.548-.435-.305-.63.681.158zM19.339 8.13l.302.632.681-.158-.305.63.548.434-.682.154.002.7-.546-.438-.546.438.002-.7-.683-.154.549-.434-.306-.63.682.158zM17.585 11.478l.237.731h.769l-.622.452.238.73-.622-.451-.622.451.238-.73-.622-.452h.769z"/><path d="M12.196 14.109a3.109 3.109 0 1 1 1.478-5.844 3.826 3.826 0 1 0 0 5.47c-.44.238-.943.374-1.478.374zM6.917 4.304a1.912 1.912 0 0 0-3.313 0h3.313zM6.924 4.315L5.26 5.978 3.598 4.315a1.913 1.913 0 1 0 3.326 0z"/></g><path d="M4.783 5.5v1.614a1.918 1.918 0 0 0 .956 0V5.5h-.956z" fill="#A2001D"/></g></svg>
