<svg width="100%" height="100%" viewBox="0 0 22 22" xmlns="http://www.w3.org/2000/svg"><g fill-rule="nonzero" fill="none"><circle fill="#F0F0F0" cx="11.021" cy="10.979" r="10.979"/><path d="M22 10.947H10.099c-2.363 2.363-3.792 4.187-5.251 5.646l6.205.559 9.63-.955A10.929 10.929 0 0 0 22 10.98v-.032z" fill="#D80027"/><path d="M4.848 5.696h15.8A10.975 10.975 0 0 0 11.02 0a10.942 10.942 0 0 0-7.746 3.2l1.573 2.496z" fill="#FFDA44"/><path d="M5.325 16.197c-.987.987-1.368 1.814-2.082 2.528a10.944 10.944 0 0 0 7.778 3.232c4.175 0 7.805-2.33 9.661-5.76H5.325z" fill="#0052B4"/><path d="M3.258 3.184c-4.287 4.287-4.287 11.238 0 15.526l7.763-7.763-7.763-7.763z" fill="#6DA544"/><g fill="#F0F0F0"><path d="M2.939 10.947c0-1.6 1.124-2.936 2.625-3.264a3.341 3.341 0 1 0 0 6.527 3.342 3.342 0 0 1-2.625-3.263z"/><path d="M5.527 8.083l.178.547h.575l-.465.338.177.547-.465-.338-.465.338.178-.547-.466-.338h.575zM5.527 9.515l.178.547h.575l-.465.338.177.547-.465-.338-.465.338.178-.547-.466-.338h.575z"/><path d="M5.527 10.947l.178.547h.575l-.465.338.177.547-.465-.338-.465.338.178-.547-.466-.338h.575zM5.527 12.379l.178.547h.575l-.465.338.177.547-.465-.338-.465.338.178-.547-.466-.338h.575z"/></g></g></svg>
