<svg width="100%" height="100%" viewBox="0 0 22 22" xmlns="http://www.w3.org/2000/svg"><g fill-rule="nonzero" fill="none"><path d="M20.779 5.956a10.993 10.993 0 0 0-2-2.735 10.992 10.992 0 0 0-2.735-2l-7.75 7.073-7.072 7.75c.508.985 1.174 1.909 2 2.734.825.826 1.75 1.492 2.734 2l7.75-7.072 7.073-7.75z" fill="#FFDA44"/><path d="M3.222 18.779c.461.46.953.872 1.47 1.235L20.014 4.692a11.063 11.063 0 0 0-2.706-2.706L1.986 17.308c.363.517.774 1.01 1.236 1.47z" fill="#D80027"/><g fill="#338AF3"><path d="M3.222 3.221c-3.47 3.47-4.137 8.683-2 12.823L16.044 1.22c-4.14-2.136-9.352-1.47-12.822 2zM18.779 18.779c3.47-3.47 4.136-8.683 2-12.823L5.956 20.78c4.14 2.136 9.352 1.47 12.823-2z"/></g><path fill="#FFDA44" d="M5.862 3.347l.594 1.827h1.92l-1.554 1.13.594 1.826-1.554-1.129-1.554 1.13.594-1.828-1.554-1.129h1.92z"/></g></svg>
