<svg width="100%" height="100%" viewBox="0 0 22 22" xmlns="http://www.w3.org/2000/svg"><g fill="none" fill-rule="evenodd"><path d="M22 11c0 6.075-4.925 11-11 11S0 17.075 0 11C0 11.003 11 .001 11 0c6.075 0 11 4.925 11 11z" fill="#0052B4" fill-rule="nonzero"/><path d="M11 5.74V0h-.002C4.924.001 0 4.925 0 11h5.74V7.768L8.97 11h2l.03-.03v-2L7.768 5.74H11z" fill="#F0F0F0" fill-rule="nonzero"/><g fill="#D80027" fill-rule="nonzero"><path d="M5.565 1.435c-1.72.98-3.15 2.41-4.13 4.13V11h2.87V4.304H11v-2.87H5.565z"/><path d="M11 9.647L7.092 5.74H5.739L11 11H11V9.647z"/></g><g fill="#F0F0F0" fill-rule="nonzero"><path d="M14.826 11l.204.626h.658l-.533.387.204.627-.533-.387-.533.387.204-.627-.533-.387h.659zM12.12 12.12l.587.3.466-.466-.103.65.587.3-.65.102-.104.65-.299-.586-.65.103.466-.466zM11 14.826l.626-.203v-.659l.387.533.627-.204-.387.533.387.533-.627-.204-.387.533v-.658zM12.12 17.532l.3-.587-.466-.466.65.103.3-.587.102.65.65.104-.586.299.103.65-.466-.466zM14.826 18.652l-.203-.626h-.659l.533-.387-.204-.627.533.388.533-.388-.204.627.533.387h-.658zM17.532 17.532l-.587-.3-.466.466.103-.65-.587-.3.65-.102.104-.65.299.586.65-.103-.466.466zM18.652 14.826l-.626.204v.658l-.387-.533-.627.204.388-.533-.388-.533.627.204.387-.533v.659zM17.532 12.12l-.3.587.466.466-.65-.103-.3.587-.102-.65-.65-.104.586-.299-.103-.65.466.466z"/></g></g></svg>
