<svg width="100%" height="100%" viewBox="0 0 22 22" xmlns="http://www.w3.org/2000/svg"><g fill-rule="nonzero" fill="none"><circle fill="#F0F0F0" cx="11" cy="11" r="11"/><path d="M21.316 7.174H.684A10.976 10.976 0 0 0 0 11c0 1.346.242 2.634.684 3.826h20.632c.442-1.192.684-2.48.684-3.826s-.242-2.634-.684-3.826z" fill="#D80027"/><g fill="#0052B4"><path d="M11 0a10.975 10.975 0 0 0-8.339 3.826H19.34A10.975 10.975 0 0 0 11 0zM19.339 18.174H2.66A10.975 10.975 0 0 0 11 22c3.334 0 6.321-1.483 8.339-3.826z"/></g></g></svg>
