<svg width="100%" height="100%" viewBox="0 0 22 22" xmlns="http://www.w3.org/2000/svg"><g fill-rule="nonzero" fill="none"><path d="M22 11c0-1.346-.242-2.634-.684-3.826L11 6.696.684 7.174A10.977 10.977 0 0 0 0 11c0 1.346.242 2.634.684 3.826L11 15.304l10.316-.478c.442-1.192.684-2.48.684-3.826z" fill="#F0F0F0"/><path d="M11 22c4.73 0 8.762-2.985 10.316-7.174H.684C2.238 19.015 6.27 22 11 22z" fill="#0052B4"/><path d="M.684 7.174h20.632C19.762 2.985 15.73 0 11 0S2.238 2.985.684 7.174z" fill="#D80027"/><g fill="#338AF3"><path d="M13.87 7.652h-1.913l.318-2.391 1.276-.957 1.275.957v1.913zM8.13 7.652h1.913l-.318-2.391-1.276-.957-1.275.957v1.913z"/></g><path fill="#0052B4" d="M12.275 7.652h-2.55V5.261L11 4.304l1.275.957z"/><path d="M7.174 7.174v5.26c0 1.253.605 2.367 1.538 3.066l.67-.168.845.85a3.828 3.828 0 0 0 1.542.001l.965-.803.554.118a3.821 3.821 0 0 0 1.538-3.063V7.174H7.174z" fill="#F0F0F0"/><g fill="#D80027"><path d="M7.174 7.174h1.53v1.53h-1.53zM10.235 7.174h1.53v1.53h-1.53zM13.296 7.174h1.53v1.53h-1.53zM8.705 8.705h1.53v1.53h-1.53zM11.765 8.705h1.53v1.53h-1.53zM7.174 10.234h1.53v1.53h-1.53zM8.705 11.765h1.53v1.53h-1.53zM10.235 10.234h1.53v1.53h-1.53zM13.296 10.234h1.53v1.53h-1.53zM11.765 11.765h1.53v1.53h-1.53zM10.235 13.295h1.53v1.53h-1.53zM8.704 13.295H7.273c.131.57.39 1.09.743 1.53h.688v-1.53zM13.296 14.826h.688c.354-.441.612-.962.743-1.53h-1.431v1.53zM8.704 14.826v.668a3.81 3.81 0 0 0 1.53.69v-1.358h-1.53zM11.765 14.826v1.358a3.81 3.81 0 0 0 1.53-.69v-.668h-1.53z"/></g></g></svg>
