<svg width="100%" height="100%" viewBox="0 0 22 22" xmlns="http://www.w3.org/2000/svg"><g fill-rule="nonzero" fill="none"><circle fill="#FCFCFC" cx="11" cy="11" r="11"/><path d="M17.217 9.565h-1.434a4.783 4.783 0 0 1-9.566 0H4.783a6.22 6.22 0 0 0 4.52 5.983 1.591 1.591 0 0 0 .166 1.737l1.563-1.253 1.563 1.253a1.592 1.592 0 0 0 .158-1.753 6.22 6.22 0 0 0 4.464-5.967z" fill="#6DA544"/><path d="M7.174 9.087s0 2.391 2.391 2.391l.478.478H11s.478-1.434 1.435-1.434c0 0 0-.957.956-.957h1.435s-.478-1.913 1.913-3.348l-.956-.478s-3.348 2.391-5.74 1.913v.957h-.956l-.478-.479-1.435.957z" fill="#FFDA44"/></g></svg>
