<svg width="100%" height="100%" viewBox="0 0 22 22" xmlns="http://www.w3.org/2000/svg"><g fill-rule="nonzero" fill="none"><path d="M6.217 20.909C7.664 21.608 9.286 22 11 22c1.714 0 3.336-.392 4.783-1.091L16.739 11l-.956-9.909A10.956 10.956 0 0 0 11 0C9.286 0 7.664.392 6.217 1.091L5.261 11l.956 9.909z" fill="#FFDA44"/><path d="M15.783 20.908A11 11 0 0 0 22 11a11 11 0 0 0-6.217-9.908v19.816z" fill="#D80027"/><path d="M6.217 20.908V1.092A11 11 0 0 0 0 11a11 11 0 0 0 6.217 9.908z" fill="#0052B4"/><g fill="#D80027"><path d="M11 14.826V11h2.87v1.435c0 .249-.479 1.162-1.66 1.913-.446.284-.909.376-1.21.478zM8.13 8.13H11V11H8.13z"/></g><path d="M12.435 7.174A.957.957 0 0 0 11 6.346a.957.957 0 0 0-1.435.828H7.174v4.782c0 1.78 1.414 2.81 2.523 3.344A.957.957 0 0 0 11 16.61a.957.957 0 0 0 1.303-1.31c1.11-.533 2.523-1.563 2.523-3.344V7.174h-2.391zm.956 4.782c0 .25 0 1.008-1.18 1.759-.447.284-.91.468-1.211.57a5.792 5.792 0 0 1-1.21-.57c-1.181-.75-1.181-1.51-1.181-1.759V8.61h4.782v3.347z" fill="#FF9811"/></g></svg>
