<svg width="100%" height="100%" viewBox="0 0 22 22" xmlns="http://www.w3.org/2000/svg"><g fill-rule="nonzero" fill="none"><circle fill="#F0F0F0" cx="11" cy="11" r="11"/><g fill="#496E2D"><path d="M13.152 21.789a11.012 11.012 0 0 0 8.637-8.637h-8.637v8.637zM.211 13.152a11.012 11.012 0 0 0 8.637 8.637v-8.637H.21zM21.789 8.848A11.012 11.012 0 0 0 13.152.21v8.637h8.637zM8.848.211A11.012 11.012 0 0 0 .21 8.848h8.637V.21z"/></g><g fill="#FFDA44"><path d="M10.283 13.152H8.848v8.637c.468.093.947.156 1.435.187v-8.824zM10.283 8.848V.024c-.488.031-.967.094-1.435.187v8.637h1.435z"/></g><path d="M11.717.024a11.113 11.113 0 0 0-1.434 0v8.824h1.434V.024zM10.283 21.976a11.113 11.113 0 0 0 1.434 0v-8.824h-1.434v8.824z" fill="#000"/><g fill="#FFDA44"><path d="M8.848 10.283V8.848H.21a11 11 0 0 0-.187 1.435h8.824zM13.152 10.283h8.824a11.007 11.007 0 0 0-.187-1.435h-8.637v1.435z"/></g><path d="M13.152 11.717h8.824a11.143 11.143 0 0 0 0-1.434h-8.824v1.434zM.024 10.283a11.143 11.143 0 0 0 0 1.434h8.824v-1.434H.024z" fill="#000"/><circle fill="#D80027" cx="11" cy="11" r="5.261"/><g fill="#496E2D"><path d="M12.199 11.587c-.392-.783-.9-1.576-.9-1.576s.012-.361.012-.576a.587.587 0 0 0-1.171-.05.463.463 0 0 0-.184.871.667.667 0 0 1 .396-.367c.03.023.06.045.094.063l.075.036s-.279.785-.279 1.208c0 1.187.783 1.553.783 1.553v.012l-.392.391h.783v-.782l.391.39c.004-.006.742-.473.392-1.173zM11 6.696l.178.548h.576l-.466.338.178.548L11 7.792l-.466.338.178-.548-.466-.338h.576zM8.47 7.518l.466.338.466-.338-.178.548.466.338h-.576l-.178.548-.178-.548h-.576l.466-.338zM6.906 9.67h.576l.179-.548.178.548h.576l-.466.339.178.548-.466-.34-.467.34.178-.548zM6.906 12.33l.466-.339-.178-.548.467.34.466-.34-.178.548.466.34h-.576l-.178.547-.179-.548zM8.47 14.482l.178-.548-.466-.338h.576l.178-.548.178.548h.576l-.466.338.178.548-.466-.338zM11 15.304l-.178-.548h-.576l.466-.338-.178-.548.466.338.466-.338-.178.548.466.338h-.576zM13.53 14.482l-.466-.338-.466.338.178-.548-.466-.338h.576l.178-.548.178.548h.576l-.466.338zM15.094 12.33h-.576l-.179.548-.178-.548h-.576l.466-.339-.178-.548.466.34.467-.34-.178.548zM15.094 9.67l-.466.339.178.548-.467-.34-.466.34.178-.548-.466-.34h.576l.178-.547.179.548zM13.53 7.518l-.178.548.466.338h-.576l-.178.548-.178-.548h-.576l.466-.338-.178-.548.466.338z"/></g></g></svg>
