<svg width="100%" height="100%" viewBox="0 0 22 22" xmlns="http://www.w3.org/2000/svg"><g fill-rule="nonzero" fill="none"><circle fill="#F0F0F0" cx="11" cy="11" r="11"/><path d="M.379 13.87A11.02 11.02 0 0 0 8.13 21.62V13.87H.38z" fill="#D80027"/><path d="M8.13.379A11.02 11.02 0 0 0 .38 8.13H8.13V.38z" fill="#0052B4"/><path d="M21.621 8.13A11.02 11.02 0 0 0 13.87.38V8.13h7.751z" fill="#D80027"/><path d="M13.87 21.621a11.02 11.02 0 0 0 7.751-7.751H13.87v7.751z" fill="#0052B4"/><path d="M13.87 11a2.87 2.87 0 1 1-5.74 0C8.13 9.415 11 8.13 11 8.13s2.87 1.285 2.87 2.87z" fill="#496E2D"/><path d="M8.13 11a2.87 2.87 0 1 1 5.74 0" fill="#0052B4"/><path d="M9.386 9.565v1.794a1.614 1.614 0 1 0 3.228 0V9.565H9.386z" fill="#D80027"/></g></svg>
