<svg width="100%" height="100%" viewBox="0 0 22 22" xmlns="http://www.w3.org/2000/svg"><g fill-rule="nonzero" fill="none"><path d="M0 11C0 4.925 4.925 0 11 0s11 4.925 11 11l-11 .957L0 11z" fill="#FFDA44"/><path d="M1.472 16.5A10.995 10.995 0 0 0 11 22c4.072 0 7.626-2.212 9.528-5.5L11 15.783l-9.528.717z" fill="#D80027"/><path d="M20.528 16.5A10.95 10.95 0 0 0 22 11H0c0 2.004.536 3.882 1.472 5.5h19.056z" fill="#0052B4"/><circle fill="#FFDA44" cx="11" cy="11" r="3.826"/><path d="M11 13.391A2.394 2.394 0 0 1 8.609 11V9.565A2.394 2.394 0 0 1 11 7.174a2.394 2.394 0 0 1 2.391 2.391V11A2.394 2.394 0 0 1 11 13.391z" fill="#338AF3"/><path d="M14.826 5.26h-2.87a.957.957 0 0 0-1.913 0h-2.87c0 .53.461.957.99.957H8.13c0 .529.429.957.957.957 0 .528.428.956.956.956h1.913a.956.956 0 0 0 .957-.956.956.956 0 0 0 .957-.957h-.032c.528 0 .988-.428.988-.956z" fill="#000"/></g></svg>
