<svg width="100%" height="100%" viewBox="0 0 22 22" xmlns="http://www.w3.org/2000/svg"><g fill-rule="nonzero" fill="none"><circle fill="#F0F0F0" cx="11.021" cy="10.979" r="10.979"/><path d="M6.725 7.16h14.592C19.766 2.98 15.742 0 11.021 0A10.943 10.943 0 0 0 3.26 3.216L6.725 7.16z" fill="#6DA544"/><path d="M6.725 14.797h14.592c-1.551 4.18-5.575 7.16-10.296 7.16a10.943 10.943 0 0 1-7.762-3.216l3.466-3.944z" fill="#D80027"/><path d="M3.258 3.216c-4.287 4.287-4.287 11.238 0 15.526l7.763-7.763-7.763-7.763z" fill="#0052B4"/><path d="M12.93 9.07v2.386c0 1.461 1.91 1.91 1.91 1.91s1.91-.449 1.91-1.91V9.069h-3.82z" fill="#DEDDE0"/><path fill="#786145" d="M14.363 11.026h1v1.384h-1z"/><path d="M15.795 10.501a.955.955 0 1 0-1.91 0 .477.477 0 1 0 0 .955h1.91a.477.477 0 1 0 0-.955z" fill="#6DA544"/></g></svg>
