<svg width="100%" height="100%" viewBox="0 0 22 22" xmlns="http://www.w3.org/2000/svg"><g fill-rule="nonzero" fill="none"><path d="M0 11c0 1.346.242 2.634.684 3.826L11 15.783l10.316-.957c.442-1.192.684-2.48.684-3.826 0-1.327-.235-2.6-.666-3.777L11 6.217.666 7.223A10.977 10.977 0 0 0 0 11z" fill="#FFDA44"/><path d="M11 22c4.73 0 8.762-2.985 10.316-7.174H.684C2.238 19.015 6.27 22 11 22z" fill="#D80027"/><path d="M11 0C6.27 0 2.238 2.985.684 7.174h20.632C19.762 2.985 15.73 0 11 0z" fill="#6DA544"/><circle fill="#0052B4" cx="11" cy="11" r="5.261"/><g fill="#FFDA44"><path d="M10.999 6.926l.95 2.923h3.078l-2.492 1.806.958 2.932-2.494-1.815-2.49 1.812.953-2.929L6.973 9.85h3.076z"/><path d="M14.787 11.727l-3.013-.979 1.862-2.562-.774-.562L11 10.186 9.138 7.624l-.774.562 1.862 2.563-3.013.978.296.91 3.013-.979v3.168h.956v-3.168l3.013.98z"/></g></g></svg>
