<svg width="100%" height="100%" viewBox="0 0 22 22" xmlns="http://www.w3.org/2000/svg"><g fill-rule="nonzero" fill="none"><path d="M10.067 10.024s-6.802 8.72-6.809 8.718a10.944 10.944 0 0 0 7.763 3.215C17.085 21.957 22 17.042 22 10.98l-11.933-.955z" fill="#338AF3"/><path d="M10.067 10.979S3.265 3.214 3.258 3.216A10.944 10.944 0 0 1 11.021 0C17.085 0 22 4.915 22 10.979H10.067z" fill="#6DA544"/><path d="M3.258 3.216c-4.287 4.287-4.287 11.238 0 15.526L22 10.979 3.258 3.216z" fill="#D80027"/><path d="M5.77 6.444a3.823 3.823 0 0 0-3.818 3.819v1.432a3.823 3.823 0 0 0 3.819 3.818 3.823 3.823 0 0 0 3.818-3.818v-1.432a3.823 3.823 0 0 0-3.818-3.82zm2.387 5.25a2.39 2.39 0 0 1-1.67 2.277v-1.56L7.5 11.397l-1.013-1.012v-.838H5.055v1.432L4.042 11.99l1.013 1.012v.968a2.39 2.39 0 0 1-1.67-2.276v-1.432A2.39 2.39 0 0 1 5.77 7.876a2.39 2.39 0 0 1 2.386 2.387v1.432z" fill="#FFDA44"/></g></svg>
