<svg width="100%" height="100%" viewBox="0 0 22 22" xmlns="http://www.w3.org/2000/svg"><g fill-rule="nonzero" fill="none"><circle fill="#F0F0F0" cx="11" cy="11" r="11"/><path d="M21.522 11l.385-1.435c-.064-.489-.16-.968-.286-1.435H10.043V.042c-.488.042-.967.116-1.434.22L6.696 1.435l-.957-.097c-.503.275-.983.588-1.435.935V8.13H.38c-.126.467-.222.946-.286 1.435L.478 11l-.385 1.435c.064.489.16.968.286 1.435h3.925v5.857c.452.347.932.66 1.435.935l1.435-.097 1.435 1.173c.467.104.946.178 1.434.22V13.87h11.578c.126-.467.222-.946.286-1.435L21.522 11z" fill="#0052B4"/><path d="M21.907 9.565H8.609V.261c-1.017.226-1.98.591-2.87 1.076v8.228H.093a11.11 11.11 0 0 0 0 2.87H5.74v8.227c.89.486 1.853.851 2.87 1.076v-9.303h13.298a11.11 11.11 0 0 0 0-2.87z" fill="#D80027"/></g></svg>
