<svg width="100%" height="100%" viewBox="0 0 22 22" xmlns="http://www.w3.org/2000/svg"><g fill-rule="nonzero" fill="none"><path d="M0 11C0 4.925 4.925 0 11 0s11 4.925 11 11c-.478 0-11 1.435-11 1.435L0 11z" fill="#D80027"/><path d="M22 11c0 6.075-4.925 11-11 11S0 17.075 0 11" fill="#000"/><g fill="#FFDA44"><path d="M9.492 8.749l.932.677-.355 1.096.932-.678.932.677-.356-1.096.931-.678h-1.152L11 7.653l-.355 1.096z"/><path d="M13.75 6.237A5.465 5.465 0 0 0 11 5.502v1.434a4.038 4.038 0 0 1 2.033.543 4.07 4.07 0 0 1 1.488 5.554 4.07 4.07 0 0 1-5.554 1.488 4.038 4.038 0 0 1-1.358-1.282l-1.198.79a5.465 5.465 0 0 0 1.839 1.734 5.506 5.506 0 0 0 7.513-2.013 5.506 5.506 0 0 0-2.013-7.513z"/><path d="M7.828 10.043a1.435 1.435 0 0 0 .57 1.948l4.66 2.546c-.316.58-.148 1.284.431 1.601l1.259.689c.58.317 1.306.104 1.623-.475l.688-1.259-9.23-5.05z"/></g></g></svg>
