<svg width="100%" height="100%" viewBox="0 0 22 22" xmlns="http://www.w3.org/2000/svg"><g fill-rule="nonzero" fill="none"><path d="M22 11c0 6.075-4.925 11-11 11S0 17.075 0 11C0 11.003 11 .001 11 0c6.075 0 11 4.925 11 11z" fill="#338AF3"/><g fill="#0052B4"><path d="M11 5.26v3.71L7.174 5.26zM5.74 11h3.23L5.74 6.696l-.48 3.347z"/></g><path d="M11 5.74V0h-.002C4.924.001 0 4.925 0 11h5.74V7.768L8.97 11h2l.03-.03v-2L7.768 5.74H11z" fill="#F0F0F0"/><g fill="#D80027"><path d="M5.565 1.435c-1.72.98-3.15 2.41-4.13 4.13V11h2.87V4.304H11v-2.87H5.565z"/><path d="M11 9.647L7.092 5.74H5.739L11 11H11V9.647z"/></g><path d="M12.435 7.174V11c0 2.563 3.348 3.348 3.348 3.348S19.13 13.563 19.13 11V7.174l-3.347-.957-3.348.957z" fill="#F3F3F3"/><path d="M19.13 7.174V5.739h-6.695v1.435h2.87v2.87h-2.87V11h2.87v3.201c.288.102.478.147.478.147s.19-.045.478-.147v-3.2h2.87v-.957h-2.87v-2.87h2.87z" fill="#D80027"/></g></svg>
