<svg width="100%" height="100%" viewBox="0 0 22 22" xmlns="http://www.w3.org/2000/svg"><g fill-rule="nonzero" fill="none"><path d="M21.621 13.87c.247-.915.379-1.877.379-2.87 0-.993-.132-1.955-.379-2.87L10.043.042c-2.149.185-4.121.988-5.739 2.23L.38 8.13A11.012 11.012 0 0 0 0 11c0 .987.13 1.944.375 2.854l3.93 5.873a10.944 10.944 0 0 0 5.738 2.231l11.578-8.088z" fill="#FFDA44"/><g fill="#0052B4"><path d="M.379 13.87a11.01 11.01 0 0 0 3.925 5.857V13.87H.38zM10.043 21.958c.316.027.635.042.957.042 5.082 0 9.359-3.447 10.621-8.13H10.043v8.088zM21.621 8.13C20.36 3.447 16.082 0 11 0c-.322 0-.641.015-.957.042V8.13h11.578zM4.304 2.273A11.01 11.01 0 0 0 .38 8.13h3.925V2.273z"/></g><path d="M21.907 9.565H8.609V.261c-1.017.226-1.98.591-2.87 1.076v8.228H.093a11.095 11.095 0 0 0 0 2.87H5.74v8.227c.89.486 1.853.851 2.87 1.076v-9.303h13.298a11.11 11.11 0 0 0 0-2.87z" fill="#D80027"/></g></svg>
