<svg width="100%" height="100%" viewBox="0 0 22 22" xmlns="http://www.w3.org/2000/svg"><g fill-rule="nonzero" fill="none"><circle fill="#F0F0F0" cx="11" cy="11" r="11"/><g fill="#D80027"><path d="M1.337 5.74h19.325A10.997 10.997 0 0 0 11 0C6.83 0 3.203 2.32 1.337 5.74zM11 22c4.17 0 7.797-2.32 9.663-5.74H1.337A10.997 10.997 0 0 0 11 22z"/></g><path d="M14.826 11c0 2.113-1.713 3.348-3.826 3.348S7.174 13.113 7.174 11a3.826 3.826 0 1 1 7.652 0z" fill="#FFDA44"/><path d="M14.826 11a3.826 3.826 0 1 1-7.652 0" fill="#0052B4"/><g fill="#D80027"><path d="M8.609 10.044h1v1.913h-1zM12.435 10.044h1v1.913h-1zM10.522 8.609h1v3.348h-1z"/></g></g></svg>
