<svg width="100%" height="100%" viewBox="0 0 22 22" xmlns="http://www.w3.org/2000/svg"><g fill-rule="nonzero" fill="none"><path d="M10.067 11.933S3.265 3.214 3.258 3.216A10.944 10.944 0 0 1 11.021 0C17.085 0 22 4.915 22 10.979l-11.933.954z" fill="#338AF3"/><path d="M10.067 10.979s-6.802 7.764-6.809 7.763a10.944 10.944 0 0 0 7.763 3.215C17.085 21.957 22 17.042 22 10.98H10.067z" fill="#6DA544"/><path d="M3.258 3.216c-4.287 4.287-4.287 11.238 0 15.526l7.763-7.763-7.763-7.763z" fill="#F0F0F0"/><path fill="#D80027" d="M4.486 8.115l.711 2.187h2.3l-1.86 1.353.71 2.188-1.86-1.353-1.862 1.353.711-2.188-1.861-1.353h2.3z"/></g></svg>
