<svg width="100%" height="100%" viewBox="0 0 22 22" xmlns="http://www.w3.org/2000/svg"><g fill-rule="nonzero" fill="none"><circle fill="#F0F0F0" cx="11" cy="11" r="11"/><g fill="#D80027"><path d="M21.907 9.565h-9.472V.093a11.11 11.11 0 0 0-2.87 0v9.472H.093a11.11 11.11 0 0 0 0 2.87h9.472v9.472a11.11 11.11 0 0 0 2.87 0v-9.472h9.472a11.109 11.109 0 0 0 0-2.87z"/><path d="M6.696 5.26V3.827H5.26v1.435H3.826v1.435h1.435V8.13h1.435V6.696H8.13V5.26zM16.74 5.26V3.827h-1.436v1.435H13.87v1.435h1.434V8.13h1.435V6.696h1.435V5.26zM6.696 15.304V13.87H5.26v1.434H3.826v1.435h1.435v1.435h1.435v-1.435H8.13v-1.435zM16.74 15.304V13.87h-1.436v1.434H13.87v1.435h1.434v1.435h1.435v-1.435h1.435v-1.435z"/></g></g></svg>
