<svg width="100%" height="100%" viewBox="0 0 22 22" xmlns="http://www.w3.org/2000/svg"><g fill-rule="nonzero" fill="none"><circle fill="#F0F0F0" cx="11" cy="11" r="11"/><path d="M11 0C6.452 0 2.55 2.76.874 6.696h20.252A11.003 11.003 0 0 0 11 0z" fill="#A2001D"/><path d="M11 22c4.548 0 8.45-2.76 10.126-6.696H.874A11.003 11.003 0 0 0 11 22z" fill="#496E2D"/><path d="M21.621 8.13H.38A11.012 11.012 0 0 0 0 11c0 .993.132 1.955.379 2.87H21.62c.247-.915.379-1.877.379-2.87 0-.993-.132-1.955-.379-2.87z" fill="#0052B4"/></g></svg>
