<svg width="100%" height="100%" viewBox="0 0 22 22" xmlns="http://www.w3.org/2000/svg"><g fill-rule="nonzero" fill="none"><path d="M.684 14.826C2.238 19.015 6.27 22 11 22s8.762-2.985 10.316-7.174L11 13.87l-10.316.956z" fill="#FFDA44"/><path d="M11 0C6.27 0 2.238 2.985.684 7.174L11 8.13l10.316-.956C19.762 2.985 15.73 0 11 0z" fill="#000"/><path d="M.684 7.174A10.976 10.976 0 0 0 0 11c0 1.346.242 2.634.684 3.826h20.632c.442-1.192.684-2.48.684-3.826s-.242-2.634-.684-3.826H.684z" fill="#D80027"/></g></svg>
