<svg width="100%" height="100%" viewBox="0 0 22 22" xmlns="http://www.w3.org/2000/svg"><g fill-rule="nonzero" fill="none"><path d="M0 11c0 .753.076 1.49.22 2.2l10.78.67 10.78-.67a11.044 11.044 0 0 0 0-4.4L11 8.13.22 8.8C.076 9.51 0 10.247 0 11z" fill="#0052B4"/><path d="M21.78 13.2H.22C1.24 18.22 5.678 22 11 22c5.322 0 9.76-3.78 10.78-8.8z" fill="#F0F0F0"/><path d="M.22 8.8h21.56C20.76 3.78 16.322 0 11 0 5.678 0 1.24 3.78.22 8.8z" fill="#000"/><path fill="#FFDA44" d="M15.783 8.8H6.217l1.955-.92L7.13 5.989l2.122.406.269-2.144L11 5.827l1.478-1.577.269 2.144 2.122-.406-1.04 1.893z"/><g fill="#A2001D"><path d="M0 11c0 6.075 4.925 11 11 11L2.2 4.4A10.95 10.95 0 0 0 0 11zM11 22c6.075 0 11-4.925 11-11a10.95 10.95 0 0 0-2.2-6.6L11 22z"/></g></g></svg>
