<svg width="100%" height="100%" viewBox="0 0 22 22" xmlns="http://www.w3.org/2000/svg"><g fill-rule="nonzero" fill="none"><path d="M0 11c0 1.346.242 2.634.684 3.826L11 15.304l10.316-.478c.442-1.192.684-2.48.684-3.826s-.242-2.634-.684-3.826L11 6.696.684 7.174A10.977 10.977 0 0 0 0 11z" fill="#FFDA44"/><path d="M11 0C6.27 0 2.238 2.985.684 7.174h20.632C19.762 2.985 15.73 0 11 0z" fill="#D80027"/><path d="M21.316 14.826H.684C2.238 19.015 6.27 22 11 22s8.762-2.985 10.316-7.174z" fill="#496E2D"/><path fill="#000" d="M11 7.174l.95 2.923h3.073l-2.486 1.806.95 2.923L11 13.02l-2.486 1.806.95-2.923-2.487-1.806h3.073z"/></g></svg>
