<svg width="100%" height="100%" viewBox="0 0 22 22" xmlns="http://www.w3.org/2000/svg"><g fill-rule="nonzero" fill="none"><circle fill="#F9F9F9" cx="11" cy="11" r="11"/><g fill="#D80027"><path d="M11 22c4.73 0 8.762-2.985 10.316-7.174H.684C2.238 19.015 6.27 22 11 22zM15.304 9.087V7.652h.479v-.956h-.957v.478h-.956v-.478h-.957v.956h.478v1.435h-.956V5.739h.478v-.956h-.956v.478h-.479v-.478h-.956v.478h-.479v-.478h-.956v.956h.478v3.348H8.61V7.652h.478v-.956H8.13v.478h-.956v-.478h-.957v.956h.479v1.435h-.957v3.826h10.522V9.087z"/></g><path d="M11 12.435a1.435 1.435 0 0 0-.478 2.787v1.995H9.087v1.913h2.391v-3.908A1.435 1.435 0 0 0 11 12.435zm0 1.913a.478.478 0 1 1 0-.957.478.478 0 0 1 0 .957z" fill="#FFDA44"/></g></svg>
