<svg width="100%" height="100%" viewBox="0 0 22 22" xmlns="http://www.w3.org/2000/svg"><g fill-rule="nonzero" fill="none"><path d="M0 11C0 4.925 4.925 0 11 0s11 4.925 11 11" fill="#D80027"/><g fill="#FFDA44"><path d="M14.826 10.23l-1.563.735.832 1.514-1.697-.324-.216 1.715L11 12.608 9.817 13.87l-.215-1.715-1.697.324.832-1.514-1.563-.735 1.563-.736-.832-1.514 1.697.325.216-1.715L11 7.852l1.182-1.262.216 1.715 1.697-.325-.832 1.515zM13.87 3.587h-2.153a.717.717 0 0 0-1.434 0H8.13c0 .396.346.717.742.717h-.024c0 .397.32.718.717.718 0 .396.321.717.718.717h1.434a.717.717 0 0 0 .718-.717.717.717 0 0 0 .717-.718h-.024c.396 0 .742-.32.742-.717z"/></g><path d="M22 11c0 6.075-4.925 11-11 11S0 17.075 0 11h22z" fill="#F0F0F0"/><g fill="#0052B4"><path d="M11 22c3.438 0 6.508-1.578 8.525-4.049-.363-.247-.559-.647-1.192-.647-.916 0-.916.838-1.833.838-.917 0-.917-.838-1.833-.838-.917 0-.917.838-1.834.838-.916 0-.916-.838-1.833-.838-.917 0-.917.838-1.833.838-.917 0-.917-.838-1.834-.838-.916 0-.916.838-1.833.838-.917 0-.917-.838-1.834-.838-.633 0-.829.4-1.191.647A10.978 10.978 0 0 0 11 22zM20.167 12.403c-.917 0-.917-.838-1.834-.838-.916 0-.916.838-1.833.838-.917 0-.917-.838-1.833-.838-.917 0-.917.838-1.834.838-.916 0-.916-.838-1.833-.838-.917 0-.917.838-1.833.838-.917 0-.917-.838-1.834-.838-.916 0-.916.838-1.833.838-.917 0-.917-.838-1.834-.838-.916 0-.916.838-1.833.838-.911 0-.917-.829-1.819-.838.026.503.086.997.177 1.48.73.108.794.825 1.642.825.917 0 .917-.838 1.833-.838.917 0 .917.838 1.834.838s.917-.838 1.833-.838c.917 0 .917.838 1.834.838.916 0 .916-.838 1.833-.838.917 0 .917.838 1.833.838.917 0 .917-.838 1.834-.838.916 0 .916.838 1.833.838.917 0 .917-.838 1.833-.838.917 0 .917.838 1.834.838.848 0 .912-.717 1.642-.825.091-.483.151-.977.177-1.48-.902.01-.908.838-1.82.838zM18.333 14.434c-.916 0-.916.839-1.833.839-.917 0-.917-.839-1.833-.839-.917 0-.917.839-1.834.839-.916 0-.916-.839-1.833-.839-.917 0-.917.839-1.833.839-.917 0-.917-.839-1.834-.839-.916 0-.916.839-1.833.839-.917 0-.917-.839-1.834-.839-.916 0-.916.839-1.833.839-.655 0-.842-.428-1.23-.673.259.746.594 1.456.999 2.119.07.013.147.02.231.02.917 0 .917-.838 1.833-.838.917 0 .917.838 1.834.838s.917-.838 1.833-.838c.917 0 .917.838 1.834.838.916 0 .916-.838 1.833-.838.917 0 .917.838 1.833.838.917 0 .917-.838 1.834-.838.916 0 .916.838 1.833.838.917 0 .917-.838 1.833-.838.917 0 .917.838 1.834.838.084 0 .16-.007.231-.02.404-.663.74-1.373.999-2.119-.388.245-.575.673-1.23.673-.917 0-.917-.839-1.834-.839z"/></g><path d="M21.966 10.131c-.882.02-.894.837-1.8.837-.916 0-.916-.838-1.833-.838-.916 0-.916.838-1.833.838-.917 0-.917-.838-1.833-.838-.917 0-.917.838-1.834.838-.916 0-.916-.838-1.833-.838-.917 0-.917.838-1.833.838-.917 0-.917-.838-1.834-.838-.916 0-.916.838-1.833.838-.917 0-.917-.838-1.834-.838-.916 0-.916.838-1.833.838-.905 0-.917-.816-1.799-.837a11.164 11.164 0 0 0-.018 1.466c.9.01.906.838 1.817.838.917 0 .917-.838 1.833-.838.917 0 .917.838 1.834.838s.917-.838 1.833-.838c.917 0 .917.838 1.834.838.916 0 .916-.838 1.833-.838.917 0 .917.838 1.833.838.917 0 .917-.838 1.834-.838.916 0 .916.838 1.833.838.917 0 .917-.838 1.833-.838.917 0 .917.838 1.834.838.91 0 .917-.828 1.817-.838a11.183 11.183 0 0 0-.018-1.466z" fill="#F0F0F0"/></g></svg>
