<svg width="100%" height="100%" viewBox="0 0 22 22" xmlns="http://www.w3.org/2000/svg"><g fill-rule="nonzero" fill="none"><circle fill="#F0F0F0" cx="11" cy="11" r="11"/><g fill="#338AF3"><path d="M11 8.13h10.621a10.938 10.938 0 0 0-1.236-2.87H11v2.87zM4.153 19.609h13.694c1.004-.8 1.865-1.771 2.538-2.87H1.615a11.058 11.058 0 0 0 2.538 2.87zM3.826 2.661a11.054 11.054 0 0 0-2.211 2.6h2.211v-2.6zM11 11V8.13H6.696V11h-2.87V8.13H.38A11.012 11.012 0 0 0 0 11c0 .993.132 1.955.379 2.87H21.62c.247-.915.379-1.877.379-2.87H11z"/><path d="M11 0C9.473 0 8.018.312 6.696.874v4.387H11V2.39h6.847A10.953 10.953 0 0 0 11 0z"/></g></g></svg>
