<svg width="100%" height="100%" viewBox="0 0 22 22" xmlns="http://www.w3.org/2000/svg"><g fill-rule="nonzero" fill="none"><circle fill="#FFDA44" cx="11.021" cy="10.979" r="10.979"/><path d="M4.834 1.91A10.927 10.927 0 0 1 11.02 0c2.296 0 4.426.705 6.188 1.91l-6.188.477-6.187-.478z" fill="#A2001D"/><path fill="#0052B4" d="M11.021 10.979l-.7-.701-.186.333z"/><g fill="#496E2D"><path d="M3.258 3.216c-4.287 4.287-4.287 11.238 0 15.526l7.763-7.763-7.763-7.763z"/><path d="M18.784 3.216c4.288 4.287 4.288 11.238 0 15.526l-7.763-7.763 7.763-7.763z"/></g><circle fill="#A2001D" cx="11.021" cy="10.979" r="3.819"/><path d="M11.021 7.16l.856 2.634h2.77l-2.24 1.629.855 2.634-2.24-1.628-2.242 1.628.856-2.634-2.24-1.629h2.77z" fill="#FFDA44"/><g fill="#A2001D"><path d="M11.025 0h-.007a10.944 10.944 0 0 0-7.759 3.215h15.525A10.944 10.944 0 0 0 11.025 0zM3.259 18.742a10.944 10.944 0 0 0 7.762 3.215c3.032 0 5.776-1.228 7.763-3.215H3.259z"/></g><g fill="#FFDA44"><path d="M11.021 1.193l.178.547h.575l-.465.338.178.547-.466-.338-.465.338.178-.547-.465-.338h.575zM8.36 1.193l.177.547h.575l-.465.338.178.547-.466-.338-.465.338.178-.547-.466-.338h.576zM13.684 1.193l.177.547h.575l-.465.338.178.547-.465-.338-.466.338.178-.547-.465-.338h.575zM11.021 19.332l.178.547h.575l-.465.338.178.547-.466-.338-.465.338.178-.547-.465-.338h.575zM8.36 19.332l.177.547h.575l-.465.338.178.547-.466-.338-.465.338.178-.547-.466-.338h.576zM13.684 19.332l.177.547h.575l-.465.338.178.547-.465-.338-.466.338.178-.547-.465-.338h.575zM3.388 10.797a.955.955 0 0 1-1.613 1.021c-.51-.806-.215-2.123-.215-2.123s1.317.296 1.828 1.102z"/></g><circle fill="#A2001D" cx="2.837" cy="11.711" r="1"/></g></svg>
