<svg width="100%" height="100%" viewBox="0 0 22 22" xmlns="http://www.w3.org/2000/svg"><g fill-rule="nonzero" fill="none"><g fill="#D80027"><path d="M4.8 20.087A10.948 10.948 0 0 0 11 22c2.3 0 4.434-.706 6.2-1.913L11 19.13l-6.2.957zM17.2 1.913A10.949 10.949 0 0 0 11 0C8.7 0 6.565.706 4.8 1.913l6.2.957 6.2-.957z"/></g><path d="M22 11c0-3.64-2.18-7.295-4.8-9.087H4.8A10.988 10.988 0 0 0 0 11c0 3.775 1.902 7.106 4.8 9.087h12.4A10.988 10.988 0 0 0 22 11z" fill="#0052B4"/><path d="M10.378 17.944c-.15-.13-3.682-3.2-3.682-6.944 0-3.745 3.531-6.815 3.682-6.944L11 3.523l.622.533c.15.13 3.682 3.2 3.682 6.944 0 3.745-3.531 6.815-3.682 6.944l-.622.533-.622-.533z" fill="#D80027"/><path d="M14.348 11C14.348 7.652 11 4.783 11 4.783S7.652 7.653 7.652 11c0 1.024.314 2.003.749 2.87h5.198c.435-.867.749-1.846.749-2.87z" fill="#338AF3"/><path d="M14.348 11c0 1.024-.314 2.003-.749 2.87L11 14.348l-2.6-.478c-.434-.867-.748-1.846-.748-2.87h6.696z" fill="#0052B4"/><path d="M11 17.217s1.613-1.382 2.6-3.347H8.4c.987 1.965 2.6 3.347 2.6 3.347z" fill="#FFDA44"/><path fill="#6DA544" d="M8.848 9.087h4.304L11 11.239z"/><path fill="#A2001D" d="M10.283 10.522h1.435v4.304h-1.435z"/></g></svg>
