<svg width="100%" height="100%" viewBox="0 0 22 22" xmlns="http://www.w3.org/2000/svg"><g fill-rule="nonzero" fill="none"><circle fill="#F0F0F0" cx="11" cy="11" r="11"/><g fill="#338AF3"><path d="M11 0a11 11 0 0 0-9.909 6.217h19.817A11 11 0 0 0 11 0zM11 22a11 11 0 0 0 9.909-6.217H1.09A11 11 0 0 0 11 22z"/></g><path fill="#FFDA44" d="M14.288 11l-1.344.632.716 1.301-1.46-.28-.184 1.475L11 13.044l-1.016 1.084-.185-1.474-1.459.279.716-1.301L7.712 11l1.344-.632-.716-1.3 1.459.278.185-1.474L11 8.956l1.016-1.084.185 1.474 1.459-.279-.716 1.301z"/></g></svg>
