<svg width="100%" height="100%" viewBox="0 0 22 22" xmlns="http://www.w3.org/2000/svg"><g fill-rule="nonzero" fill="none"><circle fill="#F0F0F0" cx="11" cy="11" r="11"/><g fill="#338AF3"><path d="M22 11a11 11 0 0 0-6.217-9.909v19.817A11 11 0 0 0 22 11zM0 11a11 11 0 0 0 6.217 9.909V1.09A11 11 0 0 0 0 11z"/></g><path fill="#ACABB1" d="M13.875 12.86L12.015 11l1.77-1.77-.08-.936-.507-.506L11 9.985 8.802 7.788l-.507.506-.08.936L9.985 11l-1.86 1.86 1.015 1.015 1.86-1.86 1.86 1.86z"/><path d="M13.705 8.295l-1.014 1.014a2.391 2.391 0 1 1-3.382 0L8.295 8.295a3.826 3.826 0 1 0 5.41 0z" fill="#6DA544"/></g></svg>
