<svg width="100%" height="100%" viewBox="0 0 22 22" xmlns="http://www.w3.org/2000/svg"><g fill-rule="nonzero" fill="none"><circle fill="#F0F0F0" cx="11.021" cy="10.979" r="10.979"/><path d="M11.021 0c-1.94 0-3.764.504-5.346 1.388v19.18a10.928 10.928 0 0 0 5.346 1.39c6.064 0 10.979-4.916 10.979-10.98C22 4.916 17.085 0 11.021 0z" fill="#6DA544"/><path d="M5.708 1.37a11.002 11.002 0 0 0-1.745 1.2l8.409 8.409-8.409 8.408a11.063 11.063 0 0 1 1.745 1.2L22 10.979 5.708 1.37z" fill="#F0F0F0"/><path d="M4.78 1.946c-.334.232-.656.482-.962.748l7.203 8.285-7.203 8.284c.306.267.628.516.962.748l15.34-9.032L4.78 1.946z" fill="#FFDA44"/><path d="M3.963 2.57c-.244.205-.48.42-.705.646l6.809 7.763-6.809 7.763c.226.225.461.44.705.645l8.409-8.408L3.963 2.57z" fill="#000"/><path d="M3.258 3.216c-4.287 4.287-4.287 11.238 0 15.526l7.763-7.763-7.763-7.763z" fill="#D80027"/></g></svg>
