<svg width="100%" height="100%" viewBox="0 0 22 22" xmlns="http://www.w3.org/2000/svg"><g fill-rule="nonzero" fill="none"><path d="M22 11c0 6.075-4.925 11-11 11S0 17.075 0 11 11 0 11 0s11 4.925 11 11z" fill="#A2001D"/><path d="M0 11C0 4.925 4.925 0 11 0s11 4.925 11 11" fill="#0052B4"/><path fill="#F0F0F0" d="M14.826 13.87L11 13.39l-3.826.479V8.13h7.652z"/><circle fill="#0052B4" cx="11" cy="11.478" r="1.913"/><circle fill="#A2001D" cx="11" cy="11.478" r="1"/><path fill="#6DA544" d="M9.565 9.087h2.87L11 10.522z"/><path fill="#FFDA44" d="M10.522 10.043h1v2.87h-1z"/><path fill="#6DA544" d="M12.53 12.626H9.47L7.173 13.87h7.652z"/></g></svg>
