<svg width="100%" height="100%" viewBox="0 0 22 22" xmlns="http://www.w3.org/2000/svg"><g fill-rule="nonzero" fill="none"><path d="M11 0c6.075 0 11 4.925 11 11s-4.925 11-11 11c0-.478-1.435-11-1.435-11L11 0z" fill="#F0F0F0"/><path d="M11 22C4.925 22 0 17.075 0 11S4.925 0 11 0" fill="#FFDA44"/><path d="M15.212 9.572l2.067 2.735a1.435 1.435 0 1 0 .764-.577L14.82 7.468l-.763.577-1.145.865 1.154 1.526 1.145-.864zm2.976 3.144a.478.478 0 1 1 .577.763.478.478 0 0 1-.577-.763z" fill="#ACABB1"/><path d="M18.758 10.436l1.154-1.526-1.145-.866-.763-.576-3.222 4.262a1.435 1.435 0 1 0 .763.577l2.067-2.735 1.146.864zm-4.029 2.95a.478.478 0 1 1-.763-.577.478.478 0 0 1 .763.577z" fill="#FFDA44"/></g></svg>
