<svg width="100%" height="100%" viewBox="0 0 22 22" xmlns="http://www.w3.org/2000/svg"><g fill-rule="nonzero" fill="none"><circle fill="#F0F0F0" cx="11" cy="11" r="11"/><g fill="#338AF3"><path d="M11 22a11 11 0 0 0 9.909-6.217H1.09A11 11 0 0 0 11 22zM11 0a11 11 0 0 0-9.909 6.217h19.817A11 11 0 0 0 11 0zM6.77 7.174l.356 1.096h1.152l-.932.677.356 1.096-.932-.677-.933.677.356-1.096-.932-.677h1.152zM6.77 11.957l.356 1.096h1.152l-.932.677.356 1.096-.932-.677-.933.677.356-1.096-.932-.677h1.152zM15.23 7.174l.357 1.096h1.152l-.932.677.356 1.096-.933-.677-.932.677.356-1.096-.932-.677h1.152zM15.23 11.957l.357 1.096h1.152l-.932.677.356 1.096-.933-.677-.932.677.356-1.096-.932-.677h1.152zM11 9.565l.356 1.096h1.153l-.933.678.356 1.096-.932-.678-.932.678.356-1.096-.933-.678h1.153z"/></g></g></svg>
