<svg width="100%" height="100%" viewBox="0 0 22 22" xmlns="http://www.w3.org/2000/svg"><g fill-rule="nonzero" fill="none"><circle fill="#D80027" cx="11" cy="11" r="11"/><g fill="#F0F0F0"><path d="M12.136 8.322c-.25 1.04-.694.841-.912 1.748a2.391 2.391 0 0 1 1.117-4.65c-.436 1.813.018 1.972-.205 2.902zM8.804 9.092c.911.56.586.92 1.38 1.408A2.391 2.391 0 0 1 6.108 8c1.59.975 1.881.592 2.697 1.092zM8.507 12.5c.813-.695 1.056-.274 1.765-.879a2.391 2.391 0 0 1-3.637 3.105c1.418-1.211 1.144-1.606 1.872-2.227zM11.655 13.834c-.409-.988.067-1.088-.29-1.95a2.391 2.391 0 0 1 1.83 4.419c-.714-1.723-1.174-1.585-1.54-2.469zM13.898 11.252c-1.066.084-1.015-.4-1.944-.327a2.392 2.392 0 0 1 4.768-.374c-1.86.146-1.87.627-2.824.701z"/></g></g></svg>
