<svg width="100%" height="100%" viewBox="0 0 22 22" xmlns="http://www.w3.org/2000/svg"><g fill-rule="nonzero" fill="none"><circle fill="#F0F0F0" cx="11" cy="11" r="11"/><g fill="#0052B4"><path d="M.379 13.87a11.01 11.01 0 0 0 3.925 5.857V13.87H.38zM10.043 21.958c.316.027.635.042.957.042 5.082 0 9.359-3.447 10.621-8.13H10.043v8.088zM21.621 8.13C20.36 3.447 16.082 0 11 0c-.322 0-.641.015-.957.042V8.13h11.578zM4.304 2.273A11.01 11.01 0 0 0 .38 8.13h3.925V2.273z"/></g><path d="M21.907 9.565H8.609V.261c-1.017.226-1.98.591-2.87 1.076v8.228H.093a11.095 11.095 0 0 0 0 2.87H5.74v8.227c.89.486 1.853.851 2.87 1.076v-9.303h13.298a11.11 11.11 0 0 0 0-2.87z" fill="#D80027"/></g></svg>
