<svg width="100%" height="100%" viewBox="0 0 22 22" xmlns="http://www.w3.org/2000/svg"><g fill-rule="nonzero" fill="none"><circle fill="#F0F0F0" cx="11" cy="11" r="11"/><path d="M11 0a11 11 0 0 0-9.909 6.217h19.817A11 11 0 0 0 11 0z" fill="#FF9811"/><path d="M11 22a11 11 0 0 0 9.909-6.217H1.09A11 11 0 0 0 11 22z" fill="#6DA544"/><circle fill="#0052B4" cx="11" cy="11" r="3.826"/><circle fill="#F0F0F0" cx="11" cy="11" r="2.391"/><path fill="#0052B4" d="M11 8.05l.738 1.672 1.817-.197L12.475 11l1.08 1.475-1.817-.197L11 13.95l-.738-1.673-1.817.197L9.525 11l-1.08-1.475 1.817.197z"/></g></svg>
