<svg width="100%" height="100%" viewBox="0 0 22 22" xmlns="http://www.w3.org/2000/svg"><g fill-rule="nonzero" fill="none"><path d="M22 11c0 6.075-4.925 11-11 11S0 17.075 0 11C0 11.003 11 .001 11 0c6.075 0 11 4.925 11 11z" fill="#0052B4"/><path d="M11 5.74V0h-.002C4.924.001 0 4.925 0 11h5.74V7.768L8.97 11h2l.03-.03V8.972L7.768 5.739H11z" fill="#F0F0F0"/><g fill="#D80027"><path d="M5.565 1.435c-1.72.98-3.15 2.41-4.13 4.13V11h2.87V4.304H11v-2.87H5.565z"/><path d="M11 9.647L7.092 5.74H5.739L11 11V9.647z"/></g><g fill="#F0F0F0"><path d="M6.634 12.913l.604 1.262L8.6 13.86l-.61 1.26 1.096.869-1.365.307.004 1.4-1.092-.876-1.091.876.003-1.4-1.365-.307 1.097-.87-.61-1.259 1.362.315zM16.47 15.304l.301.632.682-.158-.306.63.549.434-.683.154.002.7-.546-.438-.546.438.002-.7-.682-.154.548-.435-.305-.629.681.158zM13.661 8.609l.302.63.682-.157-.306.63.549.435-.683.153.002.7-.546-.438-.546.438.002-.7-.682-.153.548-.435-.305-.63.681.158zM16.47 4.783l.301.63.682-.157-.306.63.549.434-.683.154.002.7-.546-.438-.546.438.002-.7-.682-.154.548-.434-.305-.63.681.158zM18.922 7.652l.302.631.682-.157-.306.63.548.434-.682.154.002.7-.546-.438-.546.437.002-.7-.682-.153.548-.435-.305-.63.681.158zM17.168 11l.238.73h.768l-.622.452.238.731-.622-.452-.621.452.237-.73-.622-.452h.769z"/></g></g></svg>
