<svg width="100%" height="100%" viewBox="0 0 22 22" xmlns="http://www.w3.org/2000/svg"><g fill-rule="nonzero" fill="none"><circle fill="#F0F0F0" cx="11" cy="11" r="11"/><path d="M14.573 8.13h-1.44c.012.159.02.318.02.479 0 1.064-.267 2.095-.73 2.83-.144.226-.384.546-.706.761V8.13h-1.434v4.07c-.322-.215-.563-.535-.706-.762-.463-.734-.73-1.765-.73-2.83 0-.16.008-.32.02-.478h-1.44c-.009.158-.014.317-.014.479 0 2.95 1.576 5.26 3.587 5.26s3.587-2.31 3.587-5.26c0-.162-.005-.321-.014-.479z" fill="#D80027"/><path d="M4.543 5.26h1.435v.957h1.435v-.956h1.435v.956h1.435v-.956h1.434v.956h1.435v-.956h1.435v.956h1.435v-.956h1.434v.956h3.452A11 11 0 0 0 11 0a11 11 0 0 0-9.909 6.217h3.452v-.956z" fill="#6DA544"/><path d="M17.457 15.783v.956h-1.435v-.956h-1.435v.956h-1.435v-.956h-1.435v.956h-1.434v-.956H8.848v.956H7.413v-.956H5.978v.956H4.543v-.956H1.091A11 11 0 0 0 11 22a11 11 0 0 0 9.909-6.217h-3.452z" fill="#D80027"/></g></svg>
