<svg width="100%" height="100%" viewBox="0 0 22 22" xmlns="http://www.w3.org/2000/svg"><g fill-rule="nonzero" fill="none"><circle fill="#F0F0F0" cx="11" cy="11" r="11"/><g fill="#0052B4"><path d="M15.142 8.609H12.38L11 6.217 9.62 8.61H6.857L8.238 11l-1.38 2.391H9.62L11 15.783l1.38-2.392h2.762L13.762 11l1.38-2.391zM12.696 11l-.848 1.469h-1.696L9.304 11l.848-1.469h1.696L12.696 11zM11 8.062l.316.547h-.632L11 8.062zM8.456 9.53h.63l-.315.547-.315-.547zm0 2.938l.315-.547.316.547h-.631zM11 13.938l-.316-.547h.632l-.316.547zm2.544-1.469h-.63l.315-.547.315.547zm-.63-2.938h.63l-.315.547-.316-.547zM17.847 2.391H4.153c-1.004.8-1.865 1.771-2.538 2.87h18.77a11.058 11.058 0 0 0-2.538-2.87zM4.153 19.609h13.694c1.004-.8 1.865-1.771 2.538-2.87H1.615a11.058 11.058 0 0 0 2.538 2.87z"/></g></g></svg>
