<svg width="100%" height="100%" viewBox="0 0 22 22" xmlns="http://www.w3.org/2000/svg"><g fill-rule="nonzero" fill="none"><circle fill="#FFDA44" cx="11" cy="11" r="11"/><path d="M17.697 2.274A10.95 10.95 0 0 0 11 0C8.48 0 6.158.848 4.303 2.274L11 8.97l6.697-6.697z" fill="#6DA544"/><path d="M2.274 4.303A10.951 10.951 0 0 0 0 11c0 2.52.848 4.842 2.274 6.697L8.97 11 2.274 4.303z" fill="#000"/><path d="M4.303 19.726A10.95 10.95 0 0 0 11 22c2.52 0 4.842-.848 6.697-2.274L11 13.03l-6.697 6.697z" fill="#6DA544"/><path d="M19.726 17.697A10.95 10.95 0 0 0 22 11c0-2.52-.848-4.842-2.274-6.697L13.03 11l6.697 6.697z" fill="#000"/></g></svg>
