<svg width="100%" height="100%" viewBox="0 0 22 22" xmlns="http://www.w3.org/2000/svg"><g fill-rule="nonzero" fill="none"><circle fill="#338AF3" cx="11" cy="11" r="11"/><path d="M17.217 11.12H4.783c0 .858.747 1.554 1.606 1.554h-.052c0 .858.696 1.554 1.554 1.554 0 .859.696 1.555 1.555 1.555h3.108c.859 0 1.555-.696 1.555-1.555.858 0 1.554-.696 1.554-1.554h-.052c.859 0 1.606-.696 1.606-1.554z" fill="#FFDA44"/><path d="M15.304 9.087a4.304 4.304 0 0 1-8.608 0" fill="#338AF3"/><path fill="#FFDA44" d="M14.288 9.087l-1.344.632.716 1.301-1.46-.28-.184 1.475L11 11.13l-1.016 1.084-.185-1.474-1.459.279.716-1.301-1.344-.632 1.344-.632-.716-1.301 1.459.279.185-1.474L11 7.043l1.016-1.084.185 1.474 1.459-.279-.716 1.301z"/></g></svg>
