<svg width="100%" height="100%" viewBox="0 0 22 22" xmlns="http://www.w3.org/2000/svg"><g fill-rule="nonzero" fill="none"><circle fill="#F0F0F0" cx="11.021" cy="10.979" r="10.979"/><path d="M6.725 7.16h14.592C19.766 2.98 15.742 0 11.021 0A10.943 10.943 0 0 0 3.26 3.216L6.725 7.16z" fill="#000"/><path d="M6.725 14.797h14.592c-1.551 4.18-5.575 7.16-10.296 7.16a10.943 10.943 0 0 1-7.762-3.216l3.466-3.944z" fill="#6DA544"/><path d="M3.258 3.216c-4.287 4.287-4.287 11.238 0 15.526l7.763-7.763-7.763-7.763z" fill="#D80027"/><path fill="#F0F0F0" d="M4.4 8.592l.603 1.26 1.36-.315-.609 1.257 1.094.868-1.362.307.004 1.396-1.09-.874-1.09.874.005-1.396-1.363-.307 1.094-.868-.609-1.257 1.36.315z"/></g></svg>
