<svg width="100%" height="100%" viewBox="0 0 22 22" xmlns="http://www.w3.org/2000/svg"><g fill-rule="nonzero" fill="none"><circle fill="#F0F0F0" cx="11" cy="11" r="11"/><path d="M11 0a11 11 0 0 0-9.909 6.217h19.817A11 11 0 0 0 11 0z" fill="#000"/><path d="M11 22a11 11 0 0 1-9.909-6.217h19.817A11 11 0 0 1 11 22z" fill="#496E2D"/><path d="M21.48 7.652H.52A10.992 10.992 0 0 0 0 11c0 1.167.182 2.292.52 3.348h20.96c.338-1.056.52-2.18.52-3.348 0-1.167-.182-2.292-.52-3.348z" fill="#A2001D"/><g fill="#F0F0F0"><path d="M14.425 5.083l-1.302-.601L11 9.288 8.877 4.482l-1.302.601L10.21 11l-2.635 5.917 1.302.601L11 12.712l2.123 4.806 1.302-.601L11.79 11z"/><path d="M11.885 5.65C11.38 5.1 11 4.783 11 4.783s-.38.316-.885.867v10.7c.505.55.885.867.885.867s.38-.316.885-.867V5.65z"/></g><g fill="#A2001D"><path d="M8.609 7.702v6.596a11.535 11.535 0 0 0 1.674 2.231V5.471A11.532 11.532 0 0 0 8.609 7.7zM13.391 7.702a11.535 11.535 0 0 0-1.674-2.231v11.058a11.538 11.538 0 0 0 1.674-2.23V7.701z"/></g><path d="M13.391 7.702v6.596c.54-.956.957-2.086.957-3.298 0-1.212-.417-2.342-.957-3.298zM8.609 7.702v6.596c-.54-.956-.957-2.086-.957-3.298 0-1.212.417-2.342.957-3.298z" fill="#000"/></g></svg>
