<svg width="100%" height="100%" viewBox="0 0 22 22" xmlns="http://www.w3.org/2000/svg"><g fill-rule="nonzero" fill="none"><circle fill="#F0F0F0" cx="11" cy="11" r="11"/><g fill="#0052B4"><path d="M11 0a10.975 10.975 0 0 0-8.339 3.826H19.34A10.975 10.975 0 0 0 11 0zM19.339 18.174H2.66A10.975 10.975 0 0 0 11 22c3.334 0 6.321-1.483 8.339-3.826z"/></g><path d="M20.385 5.26H1.615A10.948 10.948 0 0 0 0 11c0 2.103.59 4.068 1.615 5.74h18.77A10.948 10.948 0 0 0 22 11c0-2.103-.59-4.068-1.615-5.74z" fill="#D80027"/><circle fill="#F0F0F0" cx="6.767" cy="11" r="4.233"/><path fill="#D80027" d="M6.767 6.767l.95 2.923h3.078l-2.49 1.807.956 2.931-2.494-1.815-2.49 1.812.954-2.928L2.74 9.69h3.077z"/></g></svg>
