<svg width="100%" height="100%" viewBox="0 0 22 22" xmlns="http://www.w3.org/2000/svg"><g fill-rule="nonzero" fill="none"><circle fill="#F0F0F0" cx="11" cy="11" r="11"/><path d="M14.826 11c0 .957-1.713 3.348-3.826 3.348S7.174 11.957 7.174 11a3.826 3.826 0 1 1 7.652 0z" fill="#D80027"/><path d="M14.826 11a3.826 3.826 0 1 1-7.652 0" fill="#0052B4"/><path fill="#000" d="M15.058 14.382l1.015-1.014.707.707-1.015 1.014zM13.367 16.073l1.015-1.015.707.708-1.015 1.014zM17.087 16.41l1.015-1.014.707.707-1.015 1.015zM15.396 18.102l1.014-1.015.708.707-1.015 1.015zM16.073 15.396l1.015-1.015.707.708-1.015 1.014zM14.382 17.087l1.015-1.014.707.707-1.015 1.014zM17.088 7.618l-2.705-2.706.707-.707 2.705 2.706zM14.382 6.942l-1.015-1.015.707-.707 1.015 1.015zM16.073 8.633l-1.015-1.015.708-.707 1.014 1.015zM16.41 4.913l-1.014-1.015.707-.707 1.014 1.015zM18.102 6.604l-1.015-1.015.707-.707 1.015 1.014zM3.898 15.397l2.706 2.705-.707.707-2.706-2.705zM6.603 16.073l1.015 1.014-.707.707-1.015-1.014zM4.912 14.382l1.015 1.014-.707.707-1.015-1.014zM5.927 13.368l2.706 2.705-.707.707-2.706-2.705zM6.604 3.899L3.898 6.604l-.707-.707 2.706-2.705zM7.617 4.912L4.912 7.618l-.707-.707L6.91 4.205zM8.633 5.927L5.927 8.633l-.707-.708L7.926 5.22z"/></g></svg>
