<svg width="100%" height="100%" viewBox="0 0 22 22" xmlns="http://www.w3.org/2000/svg"><g fill-rule="nonzero" fill="none"><path d="M21.317 14.797c.441-1.19.683-2.476.683-3.818 0-1.343-.242-2.63-.683-3.82l-10.296-.954L.726 7.16a10.955 10.955 0 0 0-.683 3.819c0 1.342.241 2.629.683 3.818l10.295.955 10.296-.955z" fill="#F0F0F0"/><path d="M11.021 21.957c4.72 0 8.745-2.98 10.296-7.16H.726c1.55 4.18 5.575 7.16 10.295 7.16z" fill="#D80027"/><path d="M11.021 0C6.301 0 2.277 2.98.726 7.16h20.591C19.766 2.98 15.742 0 11.021 0z" fill="#6DA544"/><path d="M3.258 3.216c-4.287 4.287-4.287 11.238 0 15.526l3.945-3.945V7.16L3.258 3.216z" fill="#000"/></g></svg>
