<svg width="100%" height="100%" viewBox="0 0 22 22" xmlns="http://www.w3.org/2000/svg"><g fill-rule="nonzero" fill="none"><circle fill="#D80027" cx="11" cy="11" r="11"/><path fill="#FFDA44" d="M16.38 11l-2.199 1.034 1.171 2.129-2.387-.457-.302 2.411L11 14.344l-1.663 1.773-.302-2.41-2.387.456 1.17-2.13L5.62 11 7.82 9.966l-1.17-2.129 2.386.457.302-2.411L11 7.656l1.663-1.773.302 2.41 2.387-.456-1.17 2.13z"/><circle fill="#D80027" cx="11" cy="11" r="3.348"/><g fill="#FFDA44"><path d="M9.326 11c-.08 0-.16.004-.239.012.003.464.17.888.448 1.218.148-.398.368-.76.647-1.071A2.379 2.379 0 0 0 9.326 11zM10.357 12.802a1.909 1.909 0 0 0 1.286 0A2.392 2.392 0 0 0 11 11.686a2.392 2.392 0 0 0-.643 1.116zM12.657 10.044a1.912 1.912 0 0 0-3.314 0 3.326 3.326 0 0 1 1.657.45 3.326 3.326 0 0 1 1.657-.45zM11.818 11.159c.279.31.5.673.647 1.07.277-.329.445-.753.448-1.217a2.399 2.399 0 0 0-1.095.147z"/></g></g></svg>
