<svg width="100%" height="100%" viewBox="0 0 22 22" xmlns="http://www.w3.org/2000/svg"><g fill-rule="nonzero" fill="none"><g fill="#D80027"><path d="M20.909 6.217A11 11 0 0 0 11 0a11 11 0 0 0-9.909 6.217L11 7.174l9.909-.957zM1.091 15.783A11 11 0 0 0 11 22a11 11 0 0 0 9.909-6.217L11 14.826l-9.909.957z"/></g><path d="M20.909 6.217H1.09A10.956 10.956 0 0 0 0 11c0 1.714.392 3.336 1.091 4.783h19.817A10.955 10.955 0 0 0 22 11c0-1.714-.392-3.336-1.091-4.783z" fill="#0052B4"/><circle fill="#F0F0F0" cx="11" cy="11" r="3.826"/></g></svg>
