<svg width="100%" height="100%" viewBox="0 0 22 22" xmlns="http://www.w3.org/2000/svg"><g fill-rule="nonzero" fill="none"><path d="M0 11c0 1.714.392 3.336 1.091 4.783L11 16.26l9.909-.478A10.956 10.956 0 0 0 22 11c0-1.714-.392-3.336-1.091-4.783L11 5.74l-9.909.478A10.956 10.956 0 0 0 0 11z" fill="#F0F0F0"/><path d="M11 22a11 11 0 0 0 9.909-6.217H1.09A11 11 0 0 0 11 22z" fill="#6DA544"/><path d="M11 0a11 11 0 0 0-9.909 6.217h19.817A11 11 0 0 0 11 0z" fill="#0052B4"/><path d="M11.717 10.76V8.13h-1.434v2.63L8.55 12.495a2.868 2.868 0 0 0 4.9 0l-1.733-1.733z" fill="#000"/></g></svg>
