<svg width="100%" height="100%" viewBox="0 0 22 22" xmlns="http://www.w3.org/2000/svg"><g fill-rule="nonzero" fill="none"><g fill="#F0F0F0"><circle cx="11" cy="11" r="11"/><path d="M2.514 4h16.972a11.06 11.06 0 0 0-2.16-2H4.674a11.058 11.058 0 0 0-2.16 2zM0 11c0 .337.016.67.046 1h21.908a11.136 11.136 0 0 0 0-2H.046c-.03.33-.046.663-.046 1zM1.2 16h19.6c.324-.634.589-1.303.786-2H.414c.197.697.462 1.366.786 2zM4.675 20h12.65a11.06 11.06 0 0 0 2.16-2H2.516a11.065 11.065 0 0 0 2.16 2zM.414 8h21.172a10.925 10.925 0 0 0-.786-2H1.2a10.928 10.928 0 0 0-.786 2z"/></g><g fill="#D80027"><path d="M5.26 2h12.065C15.536.74 13.355 0 11 0 9.565 0 7.05.74 5.26 2zM10.522 6H20.8a11.013 11.013 0 0 0-1.314-2h-8.964v2zM10.522 10h11.432a10.963 10.963 0 0 0-.368-2H10.522v2zM.414 14h21.172c.182-.644.306-1.313.368-2H.046c.062.687.186 1.356.368 2zM2.514 18h16.972c.507-.614.949-1.285 1.314-2H1.2c.365.716.807 1.386 1.314 2zM11 22c2.355 0 4.536-.74 6.325-2H4.675c1.789 1.26 3.97 2 6.325 2z"/></g><path d="M.414 8a10.96 10.96 0 0 0-.368 2H11V0C5.965 0 1.72 3.383.414 8z" fill="#0052B4"/><path fill="#F0F0F0" d="M6.548 2.87l.712 2.192h2.305L7.7 6.417l.713 2.192-1.865-1.355-1.865 1.355.712-2.192-1.864-1.355h2.305z"/></g></svg>
