<svg width="100%" height="100%" viewBox="0 0 22 22" xmlns="http://www.w3.org/2000/svg"><g fill-rule="nonzero" fill="none"><path d="M1.091 6.217A10.956 10.956 0 0 0 0 11c0 1.714.392 3.336 1.091 4.783l9.909.956 9.909-.956A10.956 10.956 0 0 0 22 11c0-1.714-.392-3.336-1.091-4.783L11 5.261l-9.909.956z" fill="#000"/><path d="M1.092 15.783A11 11 0 0 0 11 22a11 11 0 0 0 9.908-6.217H1.092z" fill="#496E2D"/><path d="M1.092 6.217h19.816A11 11 0 0 0 11 0a11 11 0 0 0-9.908 6.217z" fill="#D80027"/><g fill="#F0F0F0"><path d="M13.56 8.988l.903 1.244 1.462-.474-.904 1.243.902 1.244-1.461-.476-.904 1.242v-1.536l-1.46-.476 1.461-.474z"/><path d="M11.097 14.109a3.109 3.109 0 1 1 1.479-5.844 3.826 3.826 0 1 0 0 5.47c-.44.238-.943.374-1.479.374z"/></g></g></svg>
