<svg width="100%" height="100%" viewBox="0 0 22 22" xmlns="http://www.w3.org/2000/svg"><g fill-rule="nonzero" fill="none"><path d="M22 11c0 6.075-4.925 11-11 11S0 17.075 0 11c.478 0 11-1.435 11-1.435L22 11z" fill="#D80027"/><path d="M0 11C0 4.925 4.925 0 11 0s11 4.925 11 11" fill="#0052B4"/><path d="M8.13 7.652a1.435 1.435 0 0 0-2.39-1.069v-.844h.477v-.956H5.74v-.479h-.956v.479h-.479v.956h.479v.844A1.435 1.435 0 0 0 2.87 8.721v.844h4.782v-.844a1.43 1.43 0 0 0 .478-1.069z" fill="#FFDA44"/></g></svg>
