<svg width="100%" height="100%" viewBox="0 0 22 22" xmlns="http://www.w3.org/2000/svg"><g fill-rule="nonzero" fill="none"><circle fill="#496E2D" cx="11" cy="11" r="11"/><path d="M12.913 10.541c-.27 0-.526.054-.764.14.13-.29.217-.614.217-.96 0-1.366-1.366-2.39-1.366-2.39S9.634 8.354 9.634 9.72c0 .346.087.67.217.96a2.254 2.254 0 0 0-.764-.14c-1.366 0-2.391 1.367-2.391 1.367s1.025 1.366 2.391 1.366c.801 0 1.484-.47 1.913-.858.429.389 1.112.858 1.913.858 1.367 0 2.391-1.366 2.391-1.366s-1.024-1.367-2.39-1.367z" fill="#F0F0F0"/><g fill="#FFDA44"><path d="M11 4.304l.282.869h.914l-.74.537.283.869L11 6.042l-.739.537.282-.87-.739-.536h.914zM7.527 5.824l.543.489.633-.366-.298.668.543.489-.726-.077-.297.668-.153-.715-.726-.076.633-.366zM4.984 8.366l.715.152.365-.633.077.727.714.152-.667.297.076.727-.489-.543-.667.297.365-.633zM14.473 5.824l-.543.489-.633-.366.298.668-.543.489.726-.077.298.668.152-.715.726-.076-.633-.366zM17.016 8.366l-.715.152-.365-.633-.077.727-.714.152.667.297-.076.727.489-.543.667.297-.365-.633z"/></g><g fill="#F0F0F0"><path d="M11 17.1a4.76 4.76 0 0 0 2.888-.971H8.112A4.76 4.76 0 0 0 11 17.1zM6.616 14.23c.152.348.344.674.57.972h7.628a4.78 4.78 0 0 0 .57-.971H6.616z"/></g></g></svg>
