<svg width="100%" height="100%" viewBox="0 0 22 22" xmlns="http://www.w3.org/2000/svg"><g fill-rule="nonzero" fill="none"><circle fill="#F0F0F0" cx="11" cy="11" r="11"/><g fill="#D80027"><path d="M10.522 11H22c0-.993-.132-1.955-.379-2.87h-11.1V11zM10.522 5.26h9.863a11.057 11.057 0 0 0-2.538-2.869h-7.325v2.87zM11 22c2.589 0 4.968-.895 6.847-2.391H4.153A10.953 10.953 0 0 0 11 22zM1.615 16.74h18.77c.541-.883.96-1.847 1.236-2.87H.38a10.934 10.934 0 0 0 1.236 2.87z"/></g><path d="M11 11V0C4.925 0 0 4.925 0 11h11z" fill="#0052B4"/><g fill="#FFDA44"><path d="M7.315 9.416a2.72 2.72 0 1 1 1.294-5.113 3.348 3.348 0 1 0 0 4.786 2.709 2.709 0 0 1-1.294.327z"/><path d="M8.081 4.783l.483 1.01 1.09-.253-.488 1.008.877.695-1.092.246.004 1.12-.874-.7-.873.7.003-1.12-1.092-.246.877-.695-.488-1.008 1.09.252z"/></g></g></svg>
