<svg width="100%" height="100%" viewBox="0 0 22 22" xmlns="http://www.w3.org/2000/svg"><g fill-rule="nonzero" fill="none"><circle fill="#F0F0F0" cx="11" cy="11" r="11"/><g fill="#0052B4"><path d="M21.906 9.565a10.95 10.95 0 0 0-3.128-6.343A10.95 10.95 0 0 0 12.435.094v9.471h9.47zM9.565.094a10.95 10.95 0 0 0-6.343 3.128A10.951 10.951 0 0 0 .094 9.565h9.471V.095zM.094 12.435a10.951 10.951 0 0 0 3.128 6.343 10.952 10.952 0 0 0 6.343 3.128v-9.471H.095zM12.435 21.906a10.95 10.95 0 0 0 6.343-3.128 10.95 10.95 0 0 0 3.128-6.343h-9.471v9.47z"/></g><g fill="#F0F0F0"><path d="M14.755 6.98c0-.147.119-.265.265-.265h.568a1.63 1.63 0 0 0 1.63-1.63 1.63 1.63 0 0 0-1.63-1.628h-.54a1.123 1.123 0 0 0-.672-.214c-.544 0-.985.352-.985.787 0 .431.433.78.97.787l-.001.003h1.228a.265.265 0 0 1 0 .53h-.568a1.63 1.63 0 0 0-1.629 1.63c0 .898.73 1.629 1.63 1.629h2.196V7.245H15.02a.265.265 0 0 1-.265-.265zM6.146 6.98c0-.147.12-.265.266-.265h.568a1.63 1.63 0 0 0 1.629-1.63 1.63 1.63 0 0 0-1.63-1.628H6.44a1.123 1.123 0 0 0-.673-.214c-.544 0-.984.352-.984.787 0 .431.432.78.968.787v.003H6.98a.265.265 0 0 1 0 .53h-.568a1.63 1.63 0 0 0-1.63 1.63c0 .898.731 1.629 1.63 1.629h2.197V7.245H6.412a.265.265 0 0 1-.266-.265zM14.755 17.128c0-.146.119-.265.265-.265h.568a1.63 1.63 0 0 0 1.63-1.629 1.63 1.63 0 0 0-1.63-1.629h-.54a1.123 1.123 0 0 0-.672-.214c-.544 0-.985.353-.985.788 0 .43.433.78.969.787v.003h1.228a.265.265 0 0 1 0 .53h-.568a1.63 1.63 0 0 0-1.629 1.63c0 .897.73 1.628 1.63 1.628h2.196v-1.364H15.02a.265.265 0 0 1-.265-.265zM6.146 17.128c0-.146.12-.265.266-.265h.568a1.63 1.63 0 0 0 1.629-1.629 1.63 1.63 0 0 0-1.63-1.629H6.44a1.123 1.123 0 0 0-.673-.214c-.544 0-.984.353-.984.788 0 .43.432.78.968.787v.003H6.98a.265.265 0 0 1 0 .53h-.568a1.63 1.63 0 0 0-1.63 1.63c0 .897.731 1.628 1.63 1.628h2.197v-1.364H6.412a.265.265 0 0 1-.266-.265z"/></g></g></svg>
