<svg width="100%" height="100%" viewBox="0 0 22 22" xmlns="http://www.w3.org/2000/svg"><g fill-rule="nonzero" fill="none"><path d="M1.337 5.74L11 6.695l9.663-.957A10.997 10.997 0 0 0 11 0C6.83 0 3.203 2.32 1.337 5.74z" fill="#D80027"/><path d="M1.337 16.26l9.663.957 9.663-.956A10.95 10.95 0 0 0 22 11l-11-.957L0 11c0 1.906.485 3.698 1.337 5.26z" fill="#FFDA44"/><path d="M1.337 5.74A10.95 10.95 0 0 0 0 11h22a10.95 10.95 0 0 0-1.337-5.26H1.337z" fill="#0052B4"/><path d="M11 22c4.17 0 7.797-2.32 9.663-5.74H1.337A10.997 10.997 0 0 0 11 22z" fill="#6DA544"/></g></svg>
