<svg width="100%" height="100%" viewBox="0 0 22 22" xmlns="http://www.w3.org/2000/svg"><g fill-rule="nonzero" fill="none"><circle fill="#F0F0F0" cx="11" cy="11" r="11"/><path d="M22 11a11 11 0 0 0-6.217-9.909v19.817A11 11 0 0 0 22 11z" fill="#D80027"/><g fill="#6DA544"><path d="M0 11a11 11 0 0 0 6.217 9.909V1.09A11 11 0 0 0 0 11zM8.13 11a2.87 2.87 0 0 0 5.74 0v-.957H8.13V11z"/></g><path d="M14.826 9.087h-2.87a.957.957 0 0 0-1.913 0h-2.87c0 .528.461.956.99.956H8.13c0 .529.429.957.957.957 0 .528.428.957.956.957h1.913a.956.956 0 0 0 .957-.957.956.956 0 0 0 .957-.957h-.032c.528 0 .988-.428.988-.956z" fill="#FF9811"/></g></svg>
