<svg width="100%" height="100%" viewBox="0 0 22 22" xmlns="http://www.w3.org/2000/svg"><g fill-rule="nonzero" fill="none"><path d="M11 22c1.346 0 2.634-.242 3.826-.684L15.304 11 14.826.684A10.977 10.977 0 0 0 11 0C9.654 0 8.366.242 7.174.684L6.696 11l.478 10.316C8.366 21.758 9.654 22 11 22z" fill="#0052B4"/><g fill="#A2001D"><path d="M0 11c0 4.73 2.985 8.762 7.174 10.316V.684C2.985 2.238 0 6.27 0 11zM14.826.684v20.632C19.015 19.762 22 15.73 22 11S19.015 2.238 14.826.684z"/></g><g transform="translate(1.418 5.715)" fill="#FFDA44"><path d="M3.843 5.285h1v3.826h-1zM.017 5.285h1v3.826h-1z"/><circle cx="2.408" cy="6.72" r="1"/><circle cx="2.408" cy="3.372" r="1"/><path d="M1.452 8.155h1.913v1H1.452zM1.452 4.329h1.913v1H1.452zM2.408.024l.339 1.043h1.096l-.887.644.339 1.042-.887-.644-.887.644.339-1.042-.887-.644H2.07z"/></g></g></svg>
