<svg width="100%" height="100%" viewBox="0 0 22 22" xmlns="http://www.w3.org/2000/svg"><g fill-rule="nonzero" fill="none"><path d="M15.783 1.091A10.956 10.956 0 0 0 11 0C9.286 0 7.664.392 6.217 1.091L5.261 11l.956 9.909C7.664 21.608 9.286 22 11 22c1.714 0 3.336-.392 4.783-1.091L16.739 11l-.956-9.909z" fill="#FFDA44"/><path d="M6.217 1.092A11 11 0 0 0 0 11a11 11 0 0 0 6.217 9.908V1.092z" fill="#0052B4"/><path d="M15.783 1.092v19.816A11 11 0 0 0 22 11a11 11 0 0 0-6.217-9.908z" fill="#D80027"/><path d="M14.826 8.655h-2.63a1.196 1.196 0 1 0-2.392 0h-2.63c0 .65.566 1.177 1.216 1.177h-.039c0 .65.527 1.177 1.177 1.177 0 .576.414 1.054.96 1.156L9.56 14.26a3.814 3.814 0 0 0 2.88 0l-.928-2.095c.546-.102.96-.58.96-1.156.65 0 1.177-.527 1.177-1.177h-.04c.65 0 1.217-.527 1.217-1.177z" fill="#FF9811"/><path fill="#0052B4" d="M11 10.283L9.446 11v1.435L11 13.39l1.554-.956V11z"/><path fill="#D80027" d="M9.446 9.565h3.109V11H9.446z"/></g></svg>
