<svg width="100%" height="100%" viewBox="0 0 22 22" xmlns="http://www.w3.org/2000/svg"><g fill-rule="nonzero" fill="none"><circle fill="#FFDA44" cx="11" cy="11" r="11"/><path d="M22 11c0-3.775-1.902-7.106-4.8-9.087H4.8A10.988 10.988 0 0 0 0 11c0 3.775 1.902 7.106 4.8 9.087h12.4A10.988 10.988 0 0 0 22 11z" fill="#A2001D"/><g fill="#FFDA44"><path d="M8.609 8.13h4.782V6.217l-.956.479L11 5.26 9.565 6.696l-.956-.479zM15.304 11h-2.39a1.104 1.104 0 0 0-1.928-1.072A1.103 1.103 0 1 0 9.057 11H6.696c0 .731.637 1.324 1.368 1.324H8.02c0 .6.399 1.107.946 1.27l-1.075 1.075 1.015 1.014 1.439-1.439c.056.02.115.037.175.049l-.87 1.963a3.574 3.574 0 0 0 2.7 0l-.87-1.963c.06-.012.119-.028.175-.049l1.44 1.44 1.014-1.015-1.075-1.075c.547-.163.946-.67.946-1.27h-.044c.731 0 1.368-.593 1.368-1.324z"/></g><path fill="#6DA544" d="M11 11.717l-1.554.718v1.435l1.554.956 1.554-.956v-1.435z"/><path fill="#0052B4" d="M9.446 11h3.109v1.913H9.446z"/></g></svg>
