<svg width="100%" height="100%" viewBox="0 0 22 22" xmlns="http://www.w3.org/2000/svg"><g fill-rule="nonzero" fill="none"><path d="M22 11c0 6.075-4.925 11-11 11S0 17.075 0 11C0 11.003 11 .001 11 0c6.075 0 11 4.925 11 11z" fill="#0052B4"/><path d="M11 5.74V0h-.002C4.924.001 0 4.925 0 11h5.74V7.768L8.97 11h2l.03-.03v-2L7.768 5.74H11z" fill="#F0F0F0"/><g fill="#D80027"><path d="M5.565 1.435c-1.72.98-3.15 2.41-4.13 4.13V11h2.87V4.304H11v-2.87H5.565z"/><path d="M11 9.647L7.092 5.74H5.739L11 11H11V9.647z"/></g><path d="M12.435 5.74V11c0 2.563 3.348 3.348 3.348 3.348S19.13 13.563 19.13 11V5.74h-6.695z" fill="#338AF3"/><path d="M12.435 11c0 2.563 3.348 3.348 3.348 3.348S19.13 13.563 19.13 11h-6.695z" fill="#A2001D"/><path fill="#000" d="M17.217 8.13h-.956v-.956h-.957v.957h-.956v.956h.956v2.87h.957v-2.87h.956z"/></g></svg>
