<svg width="100%" height="100%" viewBox="0 0 22 22" xmlns="http://www.w3.org/2000/svg"><g fill-rule="nonzero" fill="none"><circle fill="#D80027" cx="11" cy="11" r="11"/><path d="M17.5 9.027h-4.965L11 4.304 9.465 9.027H4.5l4.018 2.92-1.535 4.722L11 13.75l4.018 2.92-1.535-4.724 4.018-2.919zm-7.859 2.554l.52-1.597h1.679l.519 1.597-1.359.987-1.359-.987zm1.888-2.554H10.47L11 7.4l.529 1.627zm1.643 1.963l-.327-1.006h1.712l-1.385 1.006zM9.155 9.984l-.327 1.006-1.385-1.006h1.712zm-.353 4.181l.529-1.627.855.621-1.384 1.006zm3.012-1.006l.855-.621.53 1.627-1.385-1.006z" fill="#FFDA44"/></g></svg>
