<svg width="100%" height="100%" viewBox="0 0 22 22" xmlns="http://www.w3.org/2000/svg"><g fill-rule="nonzero" fill="none"><circle fill="#F0F0F0" cx="11.021" cy="10.979" r="10.979"/><path d="M5.977 15.275L3.259 18.74a10.943 10.943 0 0 0 7.762 3.216c4.539 0 8.434-2.754 10.105-6.682H5.976z" fill="#FFDA44"/><path d="M21.144 6.722C19.48 2.773 15.575 0 11.02 0A10.943 10.943 0 0 0 3.26 3.216l2.75 3.506h15.135z" fill="#496E2D"/><path d="M2.43 8.075v5.768h19.192c.246-.914.378-1.873.378-2.864 0-1.006-.135-1.98-.389-2.904H2.43z" fill="#000"/><path d="M3.258 3.216c-4.287 4.287-4.287 11.238 0 15.526l7.763-7.763-7.763-7.763z" fill="#A2001D"/><path fill="#FFDA44" d="M4.486 8.115l.711 2.187h2.3l-1.86 1.353.71 2.188-1.86-1.353-1.862 1.353.711-2.188-1.861-1.353h2.3z"/><path fill="#F0F0F0" d="M2.406 10.979h4.161v1.909H2.406z"/><path fill="#000" d="M7.355 8.79l-.675-.675-2.194 2.193-2.193-2.193-.675.675 2.195 2.191-2.195 2.196.675.666 2.193-2.19 2.194 2.19.675-.666-2.196-2.196z"/></g></svg>
