<svg width="100%" height="100%" viewBox="0 0 22 22" xmlns="http://www.w3.org/2000/svg"><g fill-rule="nonzero" fill="none"><path d="M22 11c0-1.346-.242-2.634-.684-3.826L11 6.696.684 7.174A10.977 10.977 0 0 0 0 11c0 1.346.242 2.634.684 3.826L11 15.304l10.316-.478c.442-1.192.684-2.48.684-3.826z" fill="#0052B4"/><path d="M11 22c4.73 0 8.762-2.985 10.316-7.174H.684C2.238 19.015 6.27 22 11 22z" fill="#FF9811"/><path d="M.684 7.174h20.632C19.762 2.985 15.73 0 11 0S2.238 2.985.684 7.174z" fill="#D80027"/></g></svg>
