<svg width="100%" height="100%" viewBox="0 0 22 22" xmlns="http://www.w3.org/2000/svg"><g fill-rule="nonzero" fill="none"><circle fill="#F0F0F0" cx="11" cy="11" r="11"/><g fill="#D80027"><path d="M0 11c0 4.17 2.32 7.797 5.74 9.663V1.337A10.997 10.997 0 0 0 0 11z"/><path d="M21.316 14.826c.442-1.192.684-2.48.684-3.826s-.242-2.634-.684-3.826H.684A10.975 10.975 0 0 0 0 11c0 1.346.242 2.634.684 3.826L11 15.783l10.316-.957z"/></g><path d="M11 22c4.73 0 8.762-2.985 10.316-7.174H.684C2.238 19.015 6.27 22 11 22z" fill="#6DA544"/><path d="M0 11c0 5.082 3.447 9.359 8.13 10.621V.38C3.447 1.64 0 5.918 0 11z" fill="#D80027"/><path fill="#F0F0F0" d="M6.73 4.84L5.715 3.827l-.676.676-.677-.676-1.014 1.015.676.676-.676.676 1.014 1.015.677-.676.676.676L6.73 6.193l-.677-.676z"/></g></svg>
