<svg width="100%" height="100%" viewBox="0 0 22 22" xmlns="http://www.w3.org/2000/svg"><g fill-rule="nonzero" fill="none"><circle fill="#F0F0F0" cx="11" cy="11" r="11"/><path d="M3.222 18.778c.461.462.954.873 1.47 1.235l15.321-15.32a11.06 11.06 0 0 0-2.705-2.706L1.987 17.308c.362.516.773 1.009 1.235 1.47z" fill="#A2001D"/><path d="M3.222 3.222c-3.47 3.47-4.137 8.682-2 12.822L16.044 1.222c-4.14-2.137-9.352-1.47-12.822 2z" fill="#0052B4"/><path d="M18.778 18.778c3.47-3.47 4.137-8.682 2-12.822L5.956 20.778c4.14 2.137 9.352 1.47 12.822-2z" fill="#496E2D"/><path fill="#FFDA44" d="M9.087 6.217l-1.233.58.657 1.194-1.339-.256-.17 1.352-.932-.994-.932.994-.17-1.352-1.338.256.656-1.194-1.232-.58 1.232-.58-.656-1.193L4.97 4.7l.17-1.352.931.994.933-.994.17 1.352 1.338-.256-.657 1.194z"/></g></svg>
