<svg width="100%" height="100%" viewBox="0 0 22 22" xmlns="http://www.w3.org/2000/svg"><g fill-rule="nonzero" fill="none"><path d="M15.783 1.091A10.956 10.956 0 0 0 11 0C9.286 0 7.664.392 6.217 1.091L5.261 11l.956 9.909C7.664 21.608 9.286 22 11 22c1.714 0 3.336-.392 4.783-1.091L16.739 11l-.956-9.909z" fill="#FFDA44"/><g fill="#0052B4"><path d="M6.217 1.092A11 11 0 0 0 0 11a11 11 0 0 0 6.217 9.908V1.092zM15.783 1.092v19.816A11 11 0 0 0 22 11a11 11 0 0 0-6.217-9.908z"/></g><path d="M14.348 6.696l.641.32-.641-.32-.642-.321c-.039.077-.876 1.782-1.013 4.386h-.976V6.696L11 5.739l-.717.957v4.065h-.976c-.137-2.604-.974-4.309-1.013-4.386l-1.283.641c.008.018.88 1.793.88 4.462v.718h2.392v4.065h1.434v-4.065h2.392v-.718c0-1.38.238-2.518.439-3.23.218-.775.44-1.229.442-1.233l-.642-.32z" fill="#000"/></g></svg>
