<svg width="100%" height="100%" viewBox="0 0 22 22" xmlns="http://www.w3.org/2000/svg"><g fill-rule="nonzero" fill="none"><circle fill="#0052B4" cx="11" cy="11" r="11"/><circle fill="#FFDA44" cx="11" cy="11" r="11"/><g fill="#0052B4"><path d="M11 0C5.247 0 .527 4.416.042 10.043h21.916C21.473 4.416 16.753 0 11 0zM11 22c5.753 0 10.473-4.416 10.958-10.043H.042C.527 17.584 5.247 22 11 22z"/></g><path fill="#F0F0F0" d="M9.087 14.826l-1.233.58.657 1.194-1.339-.256-.17 1.352-.932-.995-.932.995-.17-1.352-1.338.256.656-1.194-1.232-.58 1.233-.58-.657-1.193 1.339.256.17-1.352.931.994.933-.994.17 1.352 1.338-.256-.657 1.193z"/></g></svg>
