<svg width="100%" height="100%" viewBox="0 0 22 22" xmlns="http://www.w3.org/2000/svg"><g fill-rule="nonzero" fill="none"><circle fill="#F0F0F0" cx="11" cy="11" r="11"/><path d="M21.935 12.196L9.872.056c-.544.056-1.077.15-1.595.283C3.52 1.55 0 11 0 11s15.4 10.305 17.157 9.116c.351-.237.688-.495 1.01-.771l-7.15-7.15h10.918z" fill="#0052B4"/><path d="M19.13 11L8.432.302C3.596 1.459 0 5.809 0 11c0 6.075 4.925 11 11 11 2.304 0 4.443-.71 6.21-1.92L8.13 11h11z" fill="#D80027"/><g fill="#F0F0F0"><path d="M10.462 16.242l-1.344-.632.716-1.301-1.46.279-.184-1.474-1.016 1.084-1.016-1.084-.185 1.474-1.459-.28.716 1.302-1.344.632 1.344.632-.716 1.3 1.459-.278.185 1.473 1.016-1.083 1.016 1.083.185-1.473 1.459.279-.716-1.301zM9.565 6.1l-.977-.459.52-.946-1.06.203-.135-1.072-.74.788-.738-.788L6.3 4.898l-1.06-.203.52.946-.977.46 2.39.478zM10.043 6.1a2.87 2.87 0 0 1-5.739 0"/></g></g></svg>
