<svg width="100%" height="100%" viewBox="0 0 22 22" xmlns="http://www.w3.org/2000/svg" xmlns:xlink="http://www.w3.org/1999/xlink"><defs><path d="M.005 11.014c0 6.068 4.92 10.988 10.988 10.988s10.987-4.92 10.987-10.988S17.061.027 10.993.027C4.925.027.005 4.946.005 11.014z" id="a"/><path d="M.005 11.014c0 6.068 4.92 10.988 10.988 10.988s10.987-4.92 10.987-10.988S17.061.027 10.993.027C4.925.027.005 4.946.005 11.014z" id="c"/><path d="M.005 11.014c0 6.068 4.92 10.988 10.988 10.988s10.987-4.92 10.987-10.988S17.061.027 10.993.027C4.925.027.005 4.946.005 11.014z" id="e"/><path d="M.005 11.014c0 6.068 4.92 10.988 10.988 10.988s10.987-4.92 10.987-10.988S17.061.027 10.993.027C4.925.027.005 4.946.005 11.014z" id="g"/><path d="M.005 11.014c0 6.068 4.92 10.988 10.988 10.988s10.987-4.92 10.987-10.988S17.061.027 10.993.027C4.925.027.005 4.946.005 11.014z" id="i"/><path d="M.005 11.014c0 6.068 4.92 10.988 10.988 10.988s10.987-4.92 10.987-10.988S17.061.027 10.993.027C4.925.027.005 4.946.005 11.014z" id="k"/><path d="M.005 11.014c0 6.068 4.92 10.988 10.988 10.988s10.987-4.92 10.987-10.988S17.061.027 10.993.027C4.925.027.005 4.946.005 11.014z" id="m"/><path d="M.005 11.014c0 6.068 4.92 10.988 10.988 10.988s10.987-4.92 10.987-10.988S17.061.027 10.993.027C4.925.027.005 4.946.005 11.014z" id="o"/></defs><g fill="none" fill-rule="evenodd"><mask id="b" fill="#fff"><use xlink:href="#a"/></mask><path fill="#FFF" fill-rule="nonzero" mask="url(#b)" d="M-5.824 22.225H27.81V-.197H-5.824z"/><mask id="d" fill="#fff"><use xlink:href="#c"/></mask><path fill="#DC171D" fill-rule="nonzero" mask="url(#d)" d="M7.256 22.225h7.474V-.197H7.256z"/><mask id="f" fill="#fff"><use xlink:href="#e"/></mask><path fill="#012A87" fill-rule="nonzero" mask="url(#f)" d="M-5.824 14.751H27.81V7.277H-5.824z"/><g><mask id="h" fill="#fff"><use xlink:href="#g"/></mask><path fill="#FFF" fill-rule="nonzero" mask="url(#h)" d="M11.203 8.234l-.21-.646-.21.646h-.679l.55.399-.21.646.549-.4.55.4-.21-.646.548-.399z"/></g><g><mask id="j" fill="#fff"><use xlink:href="#i"/></mask><path fill="#FFF" fill-rule="nonzero" mask="url(#j)" d="M16.315 10.697l.55-.4h-.68l-.21-.645-.21.646h-.678l.55.399-.21.645.549-.399.549.4z"/></g><g><mask id="l" fill="#fff"><use xlink:href="#k"/></mask><path fill="#FFF" fill-rule="nonzero" mask="url(#l)" d="M13.267 13.217l-.21-.646-.21.646h-.679l.55.399-.21.645.549-.399.549.4-.21-.646.55-.4z"/></g><g><mask id="n" fill="#fff"><use xlink:href="#m"/></mask><path fill="#FFF" fill-rule="nonzero" mask="url(#n)" d="M6.22 10.298l-.21-.646-.21.646h-.678l.549.399-.21.645.55-.399.548.4-.21-.646.55-.4z"/></g><g><mask id="p" fill="#fff"><use xlink:href="#o"/></mask><path fill="#FFF" fill-rule="nonzero" mask="url(#p)" d="M9.139 13.217l-.21-.646-.21.646h-.678l.549.399-.21.645.55-.399.548.4-.21-.646.55-.4z"/></g></g></svg>
