<svg width="100%" height="100%" viewBox="0 0 22 22" xmlns="http://www.w3.org/2000/svg"><g fill-rule="nonzero" fill="none"><circle fill="#FFDA44" cx="11" cy="11" r="11"/><g fill="#0052B4"><path d="M11 22c3.61 0 6.813-1.738 8.818-4.424H2.182A10.984 10.984 0 0 0 11 22zM22 11c0-6.075-4.925-11-11-11S0 4.925 0 11c0 1.3.226 2.549.64 3.707H21.36C21.774 13.549 22 12.3 22 11z"/></g><g fill="#F0F0F0"><path d="M7.53 7.055l.593 1.826h1.92l-1.553 1.13.593 1.826-1.554-1.129-1.554 1.13.594-1.827-1.554-1.13h1.92zM4.23 5.142l.357 1.096h1.152l-.932.677.356 1.096-.933-.677-.932.677.356-1.096-.932-.677h1.152z"/></g></g></svg>
