<svg width="100%" height="100%" viewBox="0 0 22 22" xmlns="http://www.w3.org/2000/svg"><g fill-rule="nonzero" fill="none"><path d="M10.067 11.933S3.265 3.214 3.258 3.216A10.944 10.944 0 0 1 11.021 0C17.085 0 22 4.915 22 10.979l-11.933.954z" fill="#D80027"/><path d="M10.067 10.979s-6.802 7.764-6.809 7.763a10.944 10.944 0 0 0 7.763 3.215C17.085 21.957 22 17.042 22 10.98H10.067z" fill="#0052B4"/><path d="M3.258 3.216c-4.287 4.287-4.287 11.238 0 15.526l7.763-7.763-7.763-7.763z" fill="#F0F0F0"/><g transform="translate(1.2 7.634)" fill="#FFDA44"><path d="M.046 3.345a3.103 3.103 0 1 0 6.185 0H.046z"/><circle cx="3.138" cy=".958" r="1"/></g><path d="M2.19 8.353v3.103c0 1.644 2.149 2.148 2.149 2.148s2.148-.504 2.148-2.148V8.353H2.19z" fill="#D80027"/><path d="M4.34 12.605c-.399-.144-1.195-.51-1.195-1.15V9.309h2.387v2.148c0 .641-.796 1.007-1.192 1.149z" fill="#338AF3"/><path fill="#F3F3F3" d="M4.816 10.501v-.477l-.477-.239-.478.239v.477l-.238.239v.955h1.432v-.955z"/></g></svg>
