<svg width="100%" height="100%" viewBox="0 0 22 22" xmlns="http://www.w3.org/2000/svg" xmlns:xlink="http://www.w3.org/1999/xlink"><defs><path d="M.01 11.016c0 6.065 4.917 10.982 10.982 10.982 6.064 0 10.981-4.917 10.981-10.982 0-6.065-4.917-10.981-10.981-10.981C4.927.035.01 4.95.01 11.016z" id="a"/><path d="M.01 11.016c0 6.065 4.917 10.982 10.982 10.982 6.064 0 10.981-4.917 10.981-10.982 0-6.065-4.917-10.981-10.981-10.981C4.927.035.01 4.95.01 11.016z" id="c"/><path d="M.01 11.016c0 6.065 4.917 10.982 10.982 10.982 6.064 0 10.981-4.917 10.981-10.982 0-6.065-4.917-10.981-10.981-10.981C4.927.035.01 4.95.01 11.016z" id="e"/><path d="M.01 11.016c0 6.065 4.917 10.982 10.982 10.982 6.064 0 10.981-4.917 10.981-10.982 0-6.065-4.917-10.981-10.981-10.981C4.927.035.01 4.95.01 11.016z" id="g"/><path d="M.01 11.016c0 6.065 4.917 10.982 10.982 10.982 6.064 0 10.981-4.917 10.981-10.982 0-6.065-4.917-10.981-10.981-10.981C4.927.035.01 4.95.01 11.016z" id="i"/><path d="M.01 11.016c0 6.065 4.917 10.982 10.982 10.982 6.064 0 10.981-4.917 10.981-10.982 0-6.065-4.917-10.981-10.981-10.981C4.927.035.01 4.95.01 11.016z" id="k"/><path d="M.01 11.016c0 6.065 4.917 10.982 10.982 10.982 6.064 0 10.981-4.917 10.981-10.982 0-6.065-4.917-10.981-10.981-10.981C4.927.035.01 4.95.01 11.016z" id="m"/><path d="M.01 11.016c0 6.065 4.917 10.982 10.982 10.982 6.064 0 10.981-4.917 10.981-10.982 0-6.065-4.917-10.981-10.981-10.981C4.927.035.01 4.95.01 11.016z" id="o"/><path d="M.01 11.016c0 6.065 4.917 10.982 10.982 10.982 6.064 0 10.981-4.917 10.981-10.982 0-6.065-4.917-10.981-10.981-10.981C4.927.035.01 4.95.01 11.016z" id="q"/><path d="M.01 11.016c0 6.065 4.917 10.982 10.982 10.982 6.064 0 10.981-4.917 10.981-10.982 0-6.065-4.917-10.981-10.981-10.981C4.927.035.01 4.95.01 11.016z" id="s"/><path d="M.01 11.016c0 6.065 4.917 10.982 10.982 10.982 6.064 0 10.981-4.917 10.981-10.982 0-6.065-4.917-10.981-10.981-10.981C4.927.035.01 4.95.01 11.016z" id="u"/><path d="M.01 11.016c0 6.065 4.917 10.982 10.982 10.982 6.064 0 10.981-4.917 10.981-10.982 0-6.065-4.917-10.981-10.981-10.981C4.927.035.01 4.95.01 11.016z" id="w"/><path d="M.01 11.016c0 6.065 4.917 10.982 10.982 10.982 6.064 0 10.981-4.917 10.981-10.982 0-6.065-4.917-10.981-10.981-10.981C4.927.035.01 4.95.01 11.016z" id="y"/><path d="M.01 11.016c0 6.065 4.917 10.982 10.982 10.982 6.064 0 10.981-4.917 10.981-10.982 0-6.065-4.917-10.981-10.981-10.981C4.927.035.01 4.95.01 11.016z" id="A"/><path d="M.01 11.016c0 6.065 4.917 10.982 10.982 10.982 6.064 0 10.981-4.917 10.981-10.982 0-6.065-4.917-10.981-10.981-10.981C4.927.035.01 4.95.01 11.016z" id="C"/><path d="M.01 11.016c0 6.065 4.917 10.982 10.982 10.982 6.064 0 10.981-4.917 10.981-10.982 0-6.065-4.917-10.981-10.981-10.981C4.927.035.01 4.95.01 11.016z" id="E"/><path d="M.01 11.016c0 6.065 4.917 10.982 10.982 10.982 6.064 0 10.981-4.917 10.981-10.982 0-6.065-4.917-10.981-10.981-10.981C4.927.035.01 4.95.01 11.016z" id="G"/><path d="M.01 11.016c0 6.065 4.917 10.982 10.982 10.982 6.064 0 10.981-4.917 10.981-10.982 0-6.065-4.917-10.981-10.981-10.981C4.927.035.01 4.95.01 11.016z" id="I"/><path d="M.01 11.016c0 6.065 4.917 10.982 10.982 10.982 6.064 0 10.981-4.917 10.981-10.982 0-6.065-4.917-10.981-10.981-10.981C4.927.035.01 4.95.01 11.016z" id="K"/><path d="M.01 11.016c0 6.065 4.917 10.982 10.982 10.982 6.064 0 10.981-4.917 10.981-10.982 0-6.065-4.917-10.981-10.981-10.981C4.927.035.01 4.95.01 11.016z" id="M"/><path d="M.01 11.016c0 6.065 4.917 10.982 10.982 10.982 6.064 0 10.981-4.917 10.981-10.982 0-6.065-4.917-10.981-10.981-10.981C4.927.035.01 4.95.01 11.016z" id="O"/><path d="M.01 11.016c0 6.065 4.917 10.982 10.982 10.982 6.064 0 10.981-4.917 10.981-10.982 0-6.065-4.917-10.981-10.981-10.981C4.927.035.01 4.95.01 11.016z" id="Q"/><path d="M.01 11.016c0 6.065 4.917 10.982 10.982 10.982 6.064 0 10.981-4.917 10.981-10.982 0-6.065-4.917-10.981-10.981-10.981C4.927.035.01 4.95.01 11.016z" id="S"/><path d="M.01 11.016c0 6.065 4.917 10.982 10.982 10.982 6.064 0 10.981-4.917 10.981-10.982 0-6.065-4.917-10.981-10.981-10.981C4.927.035.01 4.95.01 11.016z" id="U"/></defs><g fill="none" fill-rule="evenodd"><mask id="b" fill="#fff"><use xlink:href="#a"/></mask><path fill="#ED4135" fill-rule="nonzero" mask="url(#b)" d="M-5.53 15.194h39.975V6.838H-5.53z"/><mask id="d" fill="#fff"><use xlink:href="#c"/></mask><path fill="#009543" fill-rule="nonzero" mask="url(#d)" d="M-5.53 22.076h39.975v-7.373H-5.53z"/><mask id="f" fill="#fff"><use xlink:href="#e"/></mask><path fill="#0035AD" fill-rule="nonzero" mask="url(#f)" d="M-5.53 7.33h39.975V-.043H-5.53z"/><mask id="h" fill="#fff"><use xlink:href="#g"/></mask><path d="M9.216 3.767a7.249 7.249 0 1 1 0 14.498 7.249 7.249 0 0 1 0-14.498" fill="#FAE600" fill-rule="nonzero" mask="url(#h)"/><mask id="j" fill="#fff"><use xlink:href="#i"/></mask><path d="M9.216 3.891c-3.93 0-7.126 3.196-7.126 7.125 0 3.93 3.197 7.126 7.126 7.126 3.928 0 7.125-3.197 7.125-7.126 0-3.929-3.197-7.125-7.125-7.125m0 14.498c-4.066 0-7.373-3.307-7.373-7.373 0-4.065 3.307-7.373 7.373-7.373 4.065 0 7.373 3.308 7.373 7.373 0 4.066-3.308 7.373-7.373 7.373" fill="#000" fill-rule="nonzero" mask="url(#j)"/><mask id="l" fill="#fff"><use xlink:href="#k"/></mask><path fill="#000" fill-rule="nonzero" mask="url(#l)" d="M9.36 16.472l-.283-.281.08-.082h-.1l-.008-3.876-1.189.01-.003-.3 1.192-.011-.003-1.487H7.834v-.3h1.211l-.012-6.351h.3l.013 6.35h1.136v.301H9.347l.003 1.484 1.105-.011.003.3-1.108.011z"/><mask id="n" fill="#fff"><use xlink:href="#m"/></mask><path d="M6.297 17.673c2.958 1.208 5.732.074 5.732.074s-1.047-1.133-1.584-1.575c-.524-.432-2.064-.415-2.59 0-.438.346-1.696 1.62-1.558 1.5" fill="#000" fill-rule="nonzero" mask="url(#n)"/><mask id="p" fill="#fff"><use xlink:href="#o"/></mask><path d="M6.31 17.667a7.642 7.642 0 0 0 2.896.553c1.531 0 2.673-.426 2.806-.477-.106-.114-1.07-1.15-1.573-1.564-.24-.197-.715-.315-1.272-.315-.559 0-1.059.12-1.306.315-.39.308-1.416 1.342-1.552 1.488m2.897.572a7.668 7.668 0 0 1-2.907-.555c-.007.005-.01.006-.012.006a.01.01 0 0 1-.01-.007c-.002-.007-.003-.01.187-.204.127-.129.288-.29.442-.441.251-.246.707-.687.944-.874.25-.197.754-.32 1.317-.32.561 0 1.041.12 1.284.32.531.438 1.574 1.565 1.584 1.576a.01.01 0 0 1 .003.009.009.009 0 0 1-.006.006c-.012.006-1.2.484-2.826.484" fill="#000" fill-rule="nonzero" mask="url(#p)"/><g><mask id="r" fill="#fff"><use xlink:href="#q"/></mask><path d="M9.187 13.169c.445 0 .805.523.805 1.167 0 .646-.36 1.169-.805 1.169-.444 0-.804-.523-.804-1.169 0-.644.36-1.167.804-1.167" fill="#000" fill-rule="nonzero" mask="url(#r)"/></g><g><mask id="t" fill="#fff"><use xlink:href="#s"/></mask><path d="M9.187 13.187c-.433 0-.786.516-.786 1.15 0 .634.353 1.15.786 1.15.434 0 .787-.516.787-1.15 0-.634-.353-1.15-.787-1.15m0 2.336c-.453 0-.822-.532-.822-1.186 0-.655.369-1.187.822-1.187.454 0 .823.532.823 1.187 0 .654-.37 1.186-.823 1.186" fill="#000" fill-rule="nonzero" mask="url(#t)"/></g><g><mask id="v" fill="#fff"><use xlink:href="#u"/></mask><path d="M9.175 10.572c.543 0 .983.279.983.622 0 .344-.44.623-.983.623-.542 0-.982-.279-.982-.623 0-.343.44-.622.982-.622" fill="#000" fill-rule="nonzero" mask="url(#v)"/></g><g><mask id="x" fill="#fff"><use xlink:href="#w"/></mask><path d="M9.175 10.572c-.262 0-.509.065-.694.182a.7.7 0 0 0-.211.198.432.432 0 0 0-.077.242c0 .085.026.166.077.243.05.074.12.14.21.198.186.117.433.182.695.182.263 0 .51-.065.695-.182a.695.695 0 0 0 .21-.198.432.432 0 0 0 .078-.243.432.432 0 0 0-.078-.242.701.701 0 0 0-.21-.198 1.312 1.312 0 0 0-.695-.182m0 1.245c-.262 0-.509-.065-.695-.182a.695.695 0 0 1-.21-.198.433.433 0 0 1-.078-.243c0-.084.026-.165.078-.242.05-.074.12-.14.21-.198.186-.117.433-.182.695-.182.263 0 .51.065.695.182.09.057.161.124.21.198a.432.432 0 0 1 .078.242.433.433 0 0 1-.077.243.696.696 0 0 1-.21.198 1.312 1.312 0 0 1-.696.182" fill="#000" fill-rule="nonzero" mask="url(#x)"/></g><g><mask id="z" fill="#fff"><use xlink:href="#y"/></mask><path d="M9.165 7.388c.54 0 .98.423.98.945s-.44.944-.98.944-.98-.422-.98-.944.44-.945.98-.945" fill="#000" fill-rule="nonzero" mask="url(#z)"/></g><g><mask id="B" fill="#fff"><use xlink:href="#A"/></mask><path d="M9.165 7.389a1.004 1.004 0 0 0-.692.276.91.91 0 0 0-.21 1.035.975.975 0 0 0 .521.502.999.999 0 0 0 .762 0 .975.975 0 0 0 .521-.502.908.908 0 0 0 0-.735.983.983 0 0 0-.902-.576m0 1.889A1.005 1.005 0 0 1 8.472 9a.912.912 0 0 1-.21-1.036.971.971 0 0 1 .522-.503 1.005 1.005 0 0 1 1.074.203.91.91 0 0 1 .21 1.036.981.981 0 0 1-.903.577" fill="#000" fill-rule="nonzero" mask="url(#B)"/></g><g><mask id="D" fill="#fff"><use xlink:href="#C"/></mask><path d="M10.395 4.65s.085.142-.094.465C9.445 6.657 8.585 6.69 8.422 6.823c-.18.147-.256.137-.256.137l.013-.132s.012-.54.022-.593c.13-.72 1.218-.71 2.07-1.448.134-.116.124-.137.124-.137" fill="#000" fill-rule="nonzero" mask="url(#D)"/></g><g><mask id="F" fill="#fff"><use xlink:href="#E"/></mask><path d="M10.393 4.682a.768.768 0 0 1-.113.114c-.364.315-.769.494-1.126.651-.485.214-.868.383-.941.79-.007.041-.017.404-.021.59l-.012.12c.028-.005.102-.026.234-.133.033-.027.092-.05.172-.08.33-.126 1.016-.387 1.704-1.625.131-.236.118-.374.103-.427M8.17 6.972h-.005a.013.013 0 0 1-.011-.013l.013-.132c0-.022.012-.542.021-.594.076-.421.464-.592.956-.809.355-.157.758-.335 1.12-.647.105-.092.117-.121.118-.126 0-.005.002-.01.007-.012a.013.013 0 0 1 .017.005c.004.006.087.152-.094.477-.692 1.247-1.384 1.51-1.717 1.636-.078.03-.135.052-.165.076-.159.13-.24.14-.26.14" fill="#000" fill-rule="nonzero" mask="url(#F)"/></g><g><mask id="H" fill="#fff"><use xlink:href="#G"/></mask><path d="M9.198 9.506c.331-.035.716-.17.839-.366.72-1.15.802-1.159.802-1.159s-.11.294-.185.66c-.074.366-.063.662-.15.805-.11.18-.286.37-.516.443-.299.097-.799.115-.799.115s-.02-.494.009-.498" fill="#000" fill-rule="nonzero" mask="url(#H)"/></g><g><mask id="J" fill="#fff"><use xlink:href="#I"/></mask><path d="M9.202 9.516c-.014.028-.013.263-.004.478.07-.003.516-.026.787-.114.264-.085.434-.312.512-.44.05-.083.067-.222.088-.4.014-.119.03-.254.06-.4.06-.295.144-.545.174-.63-.055.055-.236.275-.774 1.135-.13.206-.527.336-.843.37zm-.013.497a.01.01 0 0 1-.01-.01c-.02-.502.008-.505.018-.506.445-.048.743-.221.832-.362.703-1.121.8-1.162.809-1.163a.01.01 0 0 1 .008.003.01.01 0 0 1 .001.01c0 .003-.11.297-.184.658-.03.146-.045.281-.06.4-.02.179-.037.32-.09.407-.08.13-.253.361-.522.448-.296.096-.797.115-.802.115z" fill="#000" fill-rule="nonzero" mask="url(#J)"/></g><g><mask id="L" fill="#fff"><use xlink:href="#K"/></mask><path d="M9.126 9.506c-.324-.036-.7-.172-.819-.367-.703-1.15-.783-1.16-.783-1.16s.108.294.18.66c.073.367.062.663.146.806.109.181.28.37.504.444.292.097.78.114.78.114s.02-.494-.008-.497" fill="#000" fill-rule="nonzero" mask="url(#L)"/></g><g><mask id="N" fill="#fff"><use xlink:href="#M"/></mask><path d="M7.545 8.01c.03.086.11.335.169.628.029.147.045.282.058.402.02.176.037.316.087.4.076.127.242.355.498.44.265.088.7.11.769.113.008-.215.01-.45-.004-.478-.309-.035-.697-.165-.823-.371-.52-.851-.698-1.076-.754-1.135m1.59 2.003c-.005 0-.494-.018-.783-.114-.263-.087-.432-.318-.51-.449-.051-.087-.068-.228-.088-.407a4.861 4.861 0 0 0-.059-.4c-.071-.362-.178-.656-.18-.66a.01.01 0 0 1 .002-.008c.002-.003.005-.004.008-.004.01.001.104.042.79 1.164.086.141.377.315.812.363.01 0 .037.003.017.507a.01.01 0 0 1-.01.008" fill="#000" fill-rule="nonzero" mask="url(#N)"/></g><g><mask id="P" fill="#fff"><use xlink:href="#O"/></mask><path d="M9.217 13.058c.345.048.747.232.875.498.75 1.56.835 1.573.835 1.573s-.114-.4-.192-.896c-.077-.497-.065-.9-.156-1.092-.115-.247-.3-.503-.538-.603-.312-.131-.834-.155-.834-.155s-.02.67.01.675" fill="#000" fill-rule="nonzero" mask="url(#P)"/></g><g><mask id="R" fill="#fff"><use xlink:href="#Q"/></mask><path d="M9.221 13.049c.33.047.745.224.88.503.561 1.167.75 1.467.807 1.543a8.51 8.51 0 0 1-.182-.86c-.031-.2-.048-.384-.063-.546-.021-.24-.039-.43-.092-.544-.082-.174-.26-.483-.534-.599-.283-.119-.749-.15-.82-.154-.008.24-.013.618.004.657m1.707 2.09h-.002c-.009-.002-.11-.057-.843-1.579-.092-.192-.403-.429-.868-.493-.01-.001-.038-.005-.017-.685a.01.01 0 0 1 .003-.006.01.01 0 0 1 .007-.003c.005 0 .527.026.837.156.28.118.46.432.543.608.055.117.072.308.094.55.015.162.031.346.063.544.076.491.19.891.192.895 0 .004 0 .007-.002.01a.01.01 0 0 1-.007.002" fill="#000" fill-rule="nonzero" mask="url(#R)"/></g><g><mask id="T" fill="#fff"><use xlink:href="#S"/></mask><path d="M9.142 13.059c-.338.048-.73.232-.854.498-.734 1.562-.816 1.574-.816 1.574s.112-.4.187-.896c.076-.498.064-.9.153-1.093.112-.247.292-.503.525-.603.304-.132.814-.156.814-.156s.02.672-.01.676" fill="#000" fill-rule="nonzero" mask="url(#T)"/></g><g><mask id="V" fill="#fff"><use xlink:href="#U"/></mask><path d="M9.127 12.41c-.106.006-.522.04-.78.151-.263.114-.434.42-.513.59-.051.113-.068.302-.09.541-.014.163-.03.346-.06.546-.05.33-.117.618-.156.775.09-.149.295-.524.737-1.466.133-.282.536-.46.86-.51.011-.062.01-.357.002-.628m-1.655 2.747a.025.025 0 0 1-.019-.008.025.025 0 0 1-.005-.023 8.41 8.41 0 0 0 .187-.894 8.39 8.39 0 0 0 .06-.543c.022-.244.04-.437.094-.557.082-.178.26-.495.539-.615.304-.131.8-.156.822-.157.006 0 .013.002.017.006.005.005.008.011.008.017.021.694-.003.697-.03.701-.324.046-.714.228-.835.485-.47 1-.774 1.579-.835 1.588h-.003" fill="#000" fill-rule="nonzero" mask="url(#V)"/></g></g></svg>
