<svg width="100%" height="100%" viewBox="0 0 22 22" xmlns="http://www.w3.org/2000/svg"><g fill="none" fill-rule="evenodd"><path d="M21.957 10.957c0-.484-.032-.961-.093-1.429H9.571C7.332 7.29 3.25 3.21 3.252 3.21c-4.279 4.28-4.279 11.217 0 15.496l6.319-6.319h12.293c.061-.467.093-.944.093-1.429z" fill="#000" fill-rule="nonzero"/><path d="M21.864 9.528l.014.113C21.228 4.21 16.606 0 11 0a10.923 10.923 0 0 0-7.748 3.21l6.319 6.318h12.293z" fill="#D80027" fill-rule="nonzero"/><path d="M21.864 12.386H9.571l-6.319 6.319A10.923 10.923 0 0 0 11 21.915c5.606 0 10.228-4.21 10.878-9.641l-.014.112z" fill="#6DA544" fill-rule="nonzero"/><g fill="#FFDA44" fill-rule="nonzero"><path d="M21.947 10.477H9.168L2.604 3.914a5.598 5.598 0 0 0-.584.759l6.277 6.28-6.282 6.283c.124.221.395.549.585.762l6.568-6.568h12.78a11.073 11.073 0 0 0-.001-.953z"/><path d="M2.705 13.293v-.918c.915 0 1.66-.745 1.66-1.66 0-.649-.527-1.176-1.175-1.176-.441 0-.8.36-.8.8 0 .283.23.513.512.513.16 0 .29-.13.29-.29h.917c0 .666-.542 1.207-1.207 1.207-.789 0-1.43-.64-1.43-1.43 0-.947.77-1.717 1.718-1.717 1.154 0 2.093.938 2.093 2.092a2.582 2.582 0 0 1-2.578 2.579z"/></g></g></svg>
