<svg width="100%" height="100%" viewBox="0 0 22 22" xmlns="http://www.w3.org/2000/svg"><g fill-rule="nonzero" fill="none"><circle fill="#FFDA44" cx="11" cy="11" r="11"/><g fill="#338AF3"><path d="M11 22c3.334 0 6.321-1.483 8.339-3.826H2.66A10.975 10.975 0 0 0 11 22zM22 11c0-6.075-4.925-11-11-11S0 4.925 0 11c0 .993.132 1.955.379 2.87H21.62c.247-.915.379-1.877.379-2.87zM.874 15.304c.212.499.46.978.74 1.435h18.771c.28-.457.529-.936.74-1.435H.876z"/></g><path fill="#F0F0F0" d="M5.041 6.938l-2.15-.949 2.15-.948.948-2.15.949 2.15 2.149.948-2.15.949-.948 2.149z"/><path fill="#D80027" d="M5.99 4.076l.585 1.328 1.327.585-1.327.586-.586 1.327-.585-1.327-1.328-.586 1.328-.585z"/></g></svg>
