<svg width="100%" height="100%" viewBox="0 0 22 22" xmlns="http://www.w3.org/2000/svg"><g fill-rule="nonzero" fill="none"><path d="M22 11c0 6.075-4.925 11-11 11S0 17.075 0 11C0 11.003 11 .001 11 0c6.075 0 11 4.925 11 11z" fill="#0052B4"/><path d="M11 5.74V0h-.002C4.924.001 0 4.925 0 11h5.74V7.768L8.97 11h2l.03-.03v-2L7.768 5.74H11z" fill="#F0F0F0"/><g fill="#D80027"><path d="M5.565 1.435c-1.72.98-3.15 2.41-4.13 4.13V11h2.87V4.304H11v-2.87H5.565z"/><path d="M11 9.647L7.092 5.74H5.739L11 11V9.647zM19.05 8.162l.237.731h.768l-.622.452.238.73-.622-.451-.621.451.237-.73-.621-.452h.768zM16.303 13.423l.356 1.096h1.152l-.932.678.356 1.096-.932-.678-.933.678.357-1.096-.933-.678h1.153zM16.407 4.814l.296.914h.96l-.776.564.297.914-.777-.565-.777.565.296-.914-.777-.564h.96zM13.764 8.13l.356 1.097h1.152l-.932.677.356 1.096-.932-.677-.933.677.357-1.096-.933-.677h1.153z"/></g></g></svg>
