<svg width="100%" height="100%" viewBox="0 0 22 22" xmlns="http://www.w3.org/2000/svg"><g fill-rule="nonzero" fill="none"><circle fill="#F0F0F0" cx="11" cy="11" r="11"/><g fill="#338AF3"><path d="M11 0a11 11 0 0 0-9.909 6.217h19.817A11 11 0 0 0 11 0zM11 22a11 11 0 0 0 9.909-6.217H1.09A11 11 0 0 0 11 22z"/></g><path d="M11 7.652a3.348 3.348 0 1 0 0 6.696 3.348 3.348 0 0 0 0-6.696zm0 5.261a1.913 1.913 0 1 1 0-3.826 1.913 1.913 0 0 1 0 3.826z" fill="#FFDA44"/><path fill="#0052B4" d="M12.657 11.478L11 11l-1.657.478-.552.957h4.418z"/><path fill="#338AF3" d="M11 8.609l-1.105 1.913L11 11l1.105-.478z"/><path fill="#6DA544" d="M9.343 11.478h3.314l-.552-.956h-2.21z"/></g></svg>
