<svg width="100%" height="100%" viewBox="0 0 22 22" xmlns="http://www.w3.org/2000/svg"><g fill-rule="nonzero" fill="none"><path d="M1.091 6.217A10.956 10.956 0 0 0 0 11c0 1.714.392 3.336 1.091 4.783l9.909.956 9.909-.956A10.956 10.956 0 0 0 22 11c0-1.714-.392-3.336-1.091-4.783L11 5.261l-9.909.956z" fill="#F0F0F0"/><path d="M1.092 15.783A11 11 0 0 0 11 22a11 11 0 0 0 9.908-6.217H1.092z" fill="#6DA544"/><g transform="translate(1.074)" fill="#FF9811"><path d="M.018 6.217h19.816A11 11 0 0 0 9.926 0 11 11 0 0 0 .018 6.217z"/><circle cx="9.926" cy="11" r="3.826"/></g></g></svg>
