<svg width="100%" height="100%" viewBox="0 0 22 22" xmlns="http://www.w3.org/2000/svg"><g fill-rule="nonzero" fill="none"><path d="M22 11c0 6.075-4.925 11-11 11S0 17.075 0 11C0 11.003 11 .001 11 0c6.075 0 11 4.925 11 11z" fill="#FFDA44"/><g fill="#0052B4"><path d="M11 5.26v3.71L7.174 5.26zM5.74 11h3.23L5.74 6.696l-.48 3.347z"/></g><path d="M11 5.74V0h-.002C4.924.001 0 4.925 0 11h5.74V7.768L8.97 11h2l.03-.03v-2L7.768 5.74H11z" fill="#F0F0F0"/><g fill="#D80027"><path d="M11 9.647L7.092 5.74H5.739L11 11H11V9.647z"/><path d="M5.565 1.435c-.424.241-.83.51-1.217.804H4.8l-1.193.867.455 1.402-1.193-.866-.126.092a11.033 11.033 0 0 0-1.308 1.831V11h2.87V4.304H11v-2.87H5.565z"/></g><path d="M4.7 1.983a11.02 11.02 0 0 0-.352.256l-.741.867-.738.536-.128.093c-.27.306-.523.628-.758.964A2.033 2.033 0 0 0 4.7 1.983z" fill="#0052B4"/><g fill="#FFDA44"><path d="M2.742 3.735l.128-.093 1.192.866-.455-1.402L4.8 2.239h-.452a11.07 11.07 0 0 0-1.606 1.496zM7.603 1.913l.237.73h.769l-.622.452.237.731-.621-.452-.622.452.238-.73-.622-.452h.768zM2.87 6.696l.237.73h.768l-.621.452.237.73-.621-.45-.622.45.237-.73-.621-.452h.768z"/></g></g></svg>
