<svg width="100%" height="100%" viewBox="0 0 22 22" xmlns="http://www.w3.org/2000/svg"><g fill-rule="nonzero" fill="none"><path d="M15.783 1.091A10.956 10.956 0 0 0 11 0C9.286 0 7.664.392 6.217 1.091L5.261 11l.956 9.909C7.664 21.608 9.286 22 11 22c1.714 0 3.336-.392 4.783-1.091L16.739 11l-.956-9.909z" fill="#F0F0F0"/><g fill="#6DA544"><path d="M6.217 1.092A11 11 0 0 0 0 11a11 11 0 0 0 6.217 9.908V1.092zM15.783 1.092v19.816A11 11 0 0 0 22 11a11 11 0 0 0-6.217-9.908zM13.87 14.348L11 5.26l-2.87 9.087h2.153v2.391h1.434v-2.391z"/></g></g></svg>
