<svg width="100%" height="100%" viewBox="0 0 22 22" xmlns="http://www.w3.org/2000/svg"><g fill-rule="nonzero" fill="none"><circle fill="#338AF3" cx="11" cy="11" r="11"/><path d="M10.653 17.926a.717.717 0 0 1-.638-.469.718.718 0 0 1-1.28-.33.718.718 0 0 1-1.186-.582.717.717 0 0 1-1.045-.808.716.716 0 0 1-.862-1.001A.718.718 0 0 1 5 13.581a.717.717 0 0 1-.396-1.26.717.717 0 0 1-.135-1.314.718.718 0 0 1 .131-1.314.718.718 0 0 1 .394-1.262.718.718 0 0 1 .641-1.155.717.717 0 0 1 .86-1.004.717.717 0 0 1 1.042-.81.718.718 0 0 1 1.186-.584A.718.718 0 0 1 10 4.544a.718.718 0 0 1 1.32-.068.717.717 0 0 1 1.306.197.718.718 0 0 1 1.24.457.717.717 0 0 1 1.122.697.718.718 0 0 1 .96.909.717.717 0 0 1 .757 1.082.718.718 0 0 1 .524 1.213.717.717 0 0 1 .268 1.294.717.717 0 0 1 .438.659V11c0 .296-.18.55-.436.66a.717.717 0 0 1-.266 1.294.718.718 0 0 1-.521 1.215.718.718 0 0 1-.755 1.084.718.718 0 0 1-.957.91.718.718 0 0 1-1.12.7.718.718 0 0 1-1.24.46.718.718 0 0 1-1.306.2.717.717 0 0 1-.68.403z" fill="#F3F3F3"/><circle fill="#338AF3" cx="11" cy="11" r="4.783"/><path d="M12.047 9.377a.954.954 0 0 0 .388-.768V8.13a.956.956 0 0 0-.957-.956h-.956a.956.956 0 0 0-.957.956v.479c0 .315.153.593.388.768l-.866 8.797s.478.478 1.913.478 1.913-.478 1.913-.478l-.866-8.797z" fill="#BDBCC1"/><path fill="#F0F0F0" d="M11 7.174l.83 2.557h2.69l-2.175 1.581.83 2.558L11 12.289l-2.176 1.58.831-2.557-2.175-1.58h2.689z"/></g></svg>
