<svg width="100%" height="100%" viewBox="0 0 22 22" xmlns="http://www.w3.org/2000/svg"><g fill-rule="nonzero" fill="none"><circle fill="#338AF3" cx="11" cy="11" r="11"/><g fill="#F0F0F0"><path d="M11 4.783l.475 1.461h1.536l-1.243.903.475 1.462L11 7.705l-1.243.904.475-1.462-1.244-.903h1.537zM4.783 11l1.461-.475V8.988l.903 1.244 1.462-.475L7.705 11l.904 1.243-1.462-.475-.903 1.243v-1.536zM11 17.217l-.475-1.461H8.988l1.244-.903-.475-1.462 1.243.903 1.243-.903-.475 1.462 1.243.903h-1.536zM17.217 11l-1.461.475v1.536l-.903-1.243-1.462.475.903-1.243-.903-1.243 1.462.475.903-1.244v1.537z"/></g></g></svg>
