<svg width="100%" height="100%" viewBox="0 0 22 22" xmlns="http://www.w3.org/2000/svg"><g fill-rule="nonzero" fill="none"><path d="M11 22c6.075 0 11-4.925 11-11 0-1.846-.455-3.586-1.26-5.113l-9.753 5.126 5.126-9.754A10.951 10.951 0 0 0 11 0C4.925 0 0 4.925 0 11c0 3.038 1.231 5.788 3.222 7.778A10.966 10.966 0 0 0 11 22z" fill="#0052B4"/><path d="M20.73 5.899a10.998 10.998 0 0 0-1.965-2.664 10.995 10.995 0 0 0-2.664-1.964L3.21 18.79 20.729 5.9z" fill="#F0F0F0"/><path d="M3.209 18.791L20.729 5.9a10.998 10.998 0 0 0-1.964-2.664L3.21 18.79z" fill="#FF9811"/><path fill="#F0F0F0" d="M9.552 6.45l-1.343.632.715 1.302-1.458-.28-.185 1.474-1.016-1.084-1.017 1.084-.184-1.474-1.46.28.716-1.302-1.343-.631 1.343-.632-.715-1.301 1.459.279.184-1.474 1.017 1.084L7.28 3.323l.185 1.474 1.458-.28L8.21 5.82z"/></g></svg>
