<svg width="100%" height="100%" viewBox="0 0 22 22" xmlns="http://www.w3.org/2000/svg"><g fill-rule="nonzero" fill="none"><g fill="#F0F0F0"><circle cx="11" cy="11" r="11"/><path d="M0 11c0 4.17 2.32 7.797 5.74 9.663V1.337A10.997 10.997 0 0 0 0 11z"/></g><path d="M11 0a10.95 10.95 0 0 0-5.26 1.337v19.325A10.95 10.95 0 0 0 11 22c6.075 0 11-4.925 11-11S17.075 0 11 0z" fill="#496E2D"/><g fill="#F0F0F0"><path d="M15.703 12.82a3.109 3.109 0 1 1-2.224-5.604 3.826 3.826 0 1 0 3.204 4.434c-.217.45-.546.856-.98 1.17zM15.643 7.174l.784.845 1.046-.485-.561 1.007.784.845-1.131-.223-.561 1.007-.138-1.145-1.13-.222 1.045-.485z"/></g></g></svg>
