<svg width="100%" height="100%" viewBox="0 0 22 22" xmlns="http://www.w3.org/2000/svg"><g fill-rule="nonzero" fill="none"><circle fill="#F0F0F0" cx="11" cy="11" r="11"/><path d="M0 11c0 6.075 4.925 11 11 11V11H0z" fill="#0052B4"/><path d="M11 0c6.075 0 11 4.925 11 11H11V0z" fill="#D80027"/><path fill="#0052B4" d="M6.548 3.826l.712 2.192h2.305L7.7 7.373l.713 2.192L6.548 8.21 4.683 9.565l.712-2.192-1.864-1.355h2.305z"/><path fill="#D80027" d="M15.452 12.435l.712 2.192h2.305l-1.864 1.355.712 2.192-1.865-1.355-1.865 1.355.713-2.192-1.865-1.355h2.305z"/></g></svg>
