<svg width="100%" height="100%" viewBox="0 0 22 22" xmlns="http://www.w3.org/2000/svg"><g fill-rule="nonzero" fill="none"><path d="M18.742 18.742c-4.288 4.287-11.239 4.287-15.526 0-4.288-4.288-4.288-11.24 0-15.527 4.287-4.287 10.563-3.612 14.85.676 4.288 4.287 4.963 10.563.676 14.85z" fill="#000"/><path d="M3.216 3.216c4.287-4.288 11.238-4.288 15.526 0 4.287 4.287 4.287 11.238 0 15.526" fill="#A2001D"/><g fill="#F0F0F0"><path d="M8.39 14.797l.178.547h.575l-.465.338.177.547-.465-.338-.465.338.178-.547-.466-.338h.575zM6.921 9.547l.297.911h.958l-.775.564.296.911-.776-.563-.775.563.296-.911-.775-.564h.958zM6.921 16.23l.296.91h.959l-.776.564.297.912-.776-.564-.775.564.296-.912-.775-.563h.958zM9.724 11.933l.296.912h.959l-.776.563.296.912-.775-.564-.776.564.297-.912-.776-.563h.959zM4.119 11.933l.296.912h.958l-.775.563.296.912-.775-.564-.776.564.296-.912-.775-.563h.958z"/></g><path d="M18.378 8.13a2.842 2.842 0 0 0-1.813-.831l2.05-1.595a3.809 3.809 0 0 0-2.979-1.108 2.85 2.85 0 0 0-.733-1.255l-.81 1.62a1.193 1.193 0 1 0-1.62 1.62l-1.62.81a2.85 2.85 0 0 0 1.256.734 3.807 3.807 0 0 0 1.107 2.98L15.007 8.8a.711.711 0 0 1 1.009.003c.135.136.21.315.21.507a.711.711 0 0 1-.21.506l.675.675a1.66 1.66 0 0 0 .49-1.181c0-.365-.117-.712-.332-1a1.911 1.911 0 0 1 .855 3.193l.674.676c.541-.541.84-1.26.84-2.025 0-.766-.299-1.485-.84-2.026z" fill="#FFDA44"/></g></svg>
