<svg width="100%" height="100%" viewBox="0 0 22 22" xmlns="http://www.w3.org/2000/svg"><g fill-rule="nonzero" fill="none"><path d="M22 11c0 6.075-4.925 11-11 11S0 17.075 0 11C0 11.003 11 .001 11 0c6.075 0 11 4.925 11 11z" fill="#D80027"/><g fill="#0052B4"><path d="M11 5.26v3.71L7.174 5.26zM5.74 11h3.23L5.74 6.696l-.48 3.347z"/></g><path d="M11 5.74V0h-.002C4.924.001 0 4.925 0 11h5.74V7.768L8.97 11h2l.03-.03v-2L7.768 5.74H11z" fill="#F0F0F0"/><g fill="#D80027"><path d="M5.565 1.435c-1.72.98-3.15 2.41-4.13 4.13v5.913h2.87V4.304h7.173v-2.87H5.565z"/><path d="M11.437 10.085L7.092 5.739H5.739l5.698 5.698v-1.352z"/></g><path d="M12.435 5.74V11c0 2.563 6.695 2.563 6.695 0V5.74h-6.695z" fill="#F3F3F3"/><path d="M12.435 11c0 2.563 3.348 3.348 3.348 3.348S19.13 13.563 19.13 11h-6.695z" fill="#6DA544"/><path fill="#A2001D" d="M15.783 8.896l-1.555.67V11l1.555.957L17.337 11V9.565z"/><path fill="#338AF3" d="M14.228 8.13h3.109v1.435h-3.109z"/></g></svg>
