<svg width="100%" height="100%" viewBox="0 0 22 22" xmlns="http://www.w3.org/2000/svg"><g fill-rule="nonzero" fill="none"><circle fill="#F0F0F0" cx="11" cy="11" r="11"/><path d="M11 0a11 11 0 0 0-9.909 6.217h19.817A11 11 0 0 0 11 0z" fill="#D80027"/><path d="M11 22a11 11 0 0 0 9.909-6.217H1.09A11 11 0 0 0 11 22z" fill="#0052B4"/><path d="M13.705 7.816l-1.014 1.015a2.391 2.391 0 1 1-3.382 0L8.295 7.816a3.826 3.826 0 1 0 5.41 0z" fill="#6DA544"/><path fill="#FFDA44" d="M11 9.087l.356 1.096h1.153l-.933.677.356 1.097-.932-.678-.932.678.356-1.097-.933-.677h1.153z"/></g></svg>
