<svg width="100%" height="100%" viewBox="0 0 22 22" xmlns="http://www.w3.org/2000/svg"><g fill-rule="nonzero" fill="none"><circle fill="#F0F0F0" cx="11" cy="11" r="11"/><path d="M11 0v11l-7.778 7.778A10.966 10.966 0 0 0 11 22c6.075 0 11-4.925 11-11S11 0 11 0z" fill="#D80027"/><path d="M11 0a10.966 10.966 0 0 0-7.778 3.222L11 11h11c0-6.075-4.925-11-11-11z" fill="#0052B4"/><g fill="#FFDA44"><path d="M7.532 11l-1.343-.632.715-1.3-1.459.278-.185-1.474-1.016 1.084-1.016-1.084-.185 1.474-1.458-.279.715 1.301L.957 11l1.343.632-.715 1.3 1.458-.278.185 1.474 1.016-1.084 1.016 1.084.185-1.474 1.459.279-.715-1.301zM2.934 4.304l.447.625.732-.232-.456.618.447.625-.73-.242-.455.618.005-.769-.729-.242.733-.232zM2.934 15.684l.447.625.732-.232-.456.618.447.625-.73-.243-.455.619.005-.769-.729-.242.733-.232zM9.31 9.994l-.447.625-.733-.232.457.618-.447.625.729-.243.456.619-.006-.769.73-.242-.733-.232z"/></g></g></svg>
