<svg width="100%" height="100%" viewBox="0 0 22 22" xmlns="http://www.w3.org/2000/svg"><g fill-rule="nonzero" fill="none"><path d="M22 11c0 6.075-4.925 11-11 11S0 17.075 0 11C0 11.003 11 .001 11 0c6.075 0 11 4.925 11 11z" fill="#0052B4"/><path d="M11 5.74V0h-.002C4.924.001 0 4.925 0 11h5.74V7.768L8.97 11h2l.03-.03v-2L7.768 5.74H11z" fill="#F0F0F0"/><g fill="#D80027"><path d="M5.565 1.435c-1.72.98-3.15 2.41-4.13 4.13V11h2.87V4.304H11v-2.87H5.565z"/><path d="M11 9.647L7.092 5.74H5.739L11 11H11V9.647z"/></g><path fill="#ACABB1" d="M17.217 6.696l-1.434.478-1.435-.478L13.87 5.5l.478-1.196h2.87L16.738 5.5z"/><path d="M12.435 6.696v5.26c0 2.563 3.348 3.348 3.348 3.348s3.347-.785 3.347-3.348v-5.26h-6.695z" fill="#338AF3"/><path d="M12.737 13.203c.823 1.58 3.046 2.101 3.046 2.101s2.223-.521 3.046-2.101L15.783 8.13l-3.046 5.073z" fill="#6DA544"/><path d="M19.13 11.903l-3.347-5.207-3.348 5.207v.053c0 .475.115.888.302 1.247l3.046-4.739 3.046 4.739a2.66 2.66 0 0 0 .301-1.247v-.053z" fill="#FFDA44"/></g></svg>
