<svg width="100%" height="100%" viewBox="0 0 22 22" xmlns="http://www.w3.org/2000/svg"><g fill-rule="nonzero" fill="none"><path d="M0 11c0 4.73 2.985 8.762 7.174 10.316L8.13 11 7.174.684C2.985 2.238 0 6.27 0 11z" fill="#6DA544"/><path d="M22 11c0-6.075-4.925-11-11-11-1.346 0-2.634.242-3.826.684v20.632C8.366 21.758 9.654 22 11 22c6.075 0 11-4.925 11-11z" fill="#D80027"/><circle fill="#FFDA44" cx="7.174" cy="11" r="3.826"/><path d="M5.022 9.087v2.391a2.152 2.152 0 1 0 4.304 0V9.087H5.022z" fill="#D80027"/><path d="M7.174 12.196a.718.718 0 0 1-.717-.718v-.956H7.89v.956a.718.718 0 0 1-.717.718z" fill="#F0F0F0"/></g></svg>
