<svg width="100%" height="100%" viewBox="0 0 22 22" xmlns="http://www.w3.org/2000/svg"><g fill-rule="nonzero" fill="none"><path d="M11 0c-.993 0-1.955.132-2.87.379L7.174 11l.956 10.621c.915.247 1.877.379 2.87.379 6.075 0 11-4.925 11-11S17.075 0 11 0z" fill="#FFDA44"/><path d="M7.174 11l.956 10.621c.915.247 1.877.379 2.87.379 6.075 0 11-4.925 11-11H7.174z" fill="#6DA544"/><g fill="#D80027"><path d="M0 11c0 4.17 2.32 7.797 5.74 9.663V1.337A10.997 10.997 0 0 0 0 11z"/><path d="M0 11c0 5.082 3.447 9.359 8.13 10.621V.38C3.447 1.64 0 5.918 0 11z"/></g><path fill="#000" d="M4.157 8.13l.712 2.193h2.305l-1.865 1.354.712 2.193-1.864-1.355-1.865 1.355.712-2.193-1.865-1.354h2.305z"/></g></svg>
