<svg width="100%" height="100%" viewBox="0 0 22 22" xmlns="http://www.w3.org/2000/svg"><g fill-rule="nonzero" fill="none"><circle fill="#FFDA44" cx="11.021" cy="10.979" r="10.979"/><path d="M11.021 0c-2.687 0-5.15.966-7.058 2.57l11.832 8.409-11.832 8.408a10.933 10.933 0 0 0 7.058 2.57C17.085 21.957 22 17.042 22 10.98 22 4.915 17.085 0 11.021 0z" fill="#D80027"/><path d="M3.258 3.216c-4.287 4.287-4.287 11.238 0 15.526l7.763-7.763-7.763-7.763z" fill="#000"/><path fill="#F0F0F0" d="M3.087 8.464l1.67 1.58 2.02-1.1-.987 2.078 1.671 1.581-2.281-.297-.988 2.078-.422-2.261-2.281-.298 2.02-1.1z"/></g></svg>
