<svg width="100%" height="100%" viewBox="0 0 22 22" xmlns="http://www.w3.org/2000/svg"><g fill-rule="nonzero" fill="none"><circle fill="#F0F0F0" cx="11.021" cy="10.979" r="10.979"/><g fill="#D80027"><path d="M11.021 0C7.43 0 4.241 1.725 2.238 4.391h17.567A10.962 10.962 0 0 0 11.02 0zM11.021 21.957c3.592 0 6.78-1.725 8.784-4.391H2.238a10.962 10.962 0 0 0 8.783 4.391zM.043 10.979c0 .752.076 1.486.22 2.195H21.78a11.026 11.026 0 0 0 0-4.391H.263c-.144.71-.22 1.444-.22 2.196z"/></g><path d="M3.258 3.216c-4.287 4.287-4.287 11.238 0 15.526l7.763-7.763-7.763-7.763z" fill="#0052B4"/><path fill="#F0F0F0" d="M4.486 8.115l.711 2.187h2.3l-1.86 1.353.71 2.188-1.86-1.353-1.862 1.353.711-2.188-1.861-1.353h2.3z"/></g></svg>
