<svg width="100%" height="100%" viewBox="0 0 22 22" xmlns="http://www.w3.org/2000/svg"><g fill-rule="nonzero" fill="none"><path d="M10.066.103C4.561.684.042 5.34.042 11c0 3.16 1.34 6.01 3.483 8.009 4.928-1.079 9.949-1.234 15.098-.141A10.92 10.92 0 0 0 21.958 11c0-5.66-4.519-10.316-10.024-10.897-1.048.857-.731.96-1.868 0" fill="#209ECC"/><path d="M11 11L1.88 17.08A10.949 10.949 0 0 0 11 21.957c3.803 0 7.155-1.934 9.12-4.876L11 11" fill="#FD391F"/><path d="M11 .042c-.417 0-.597.022-1.002.067L11 11.053 12.002.109C11.597.064 11.417.042 11 .042zm0 11.011l9.545-5.44a10.934 10.934 0 0 0-.79-1.203L11 11.053zm0 0l10.932.663a10.96 10.96 0 0 0 .005-1.398L11 11.053zm0 0L.063 10.318a10.932 10.932 0 0 0 .005 1.398L11 11.053zm0 0L2.245 4.41c-.29.383-.554.785-.79 1.204L11 11.053z" fill="#FFEF2D"/></g></svg>
