<svg width="100%" height="100%" viewBox="0 0 22 22" xmlns="http://www.w3.org/2000/svg"><g fill-rule="nonzero" fill="none"><path d="M18.778 18.821c-4.296 4.296-11.26 4.296-15.556 0-4.296-4.296-4.296-11.26 0-15.556.001 0 9.885-2.92 14.18 1.375 4.297 4.296 1.38 14.178 1.376 14.181z" fill="#FFDA44"/><path d="M18.778 18.821c4.296-4.296 4.296-11.26 0-15.556-4.296-4.296-11.26-4.296-15.556 0L18.778 18.82z" fill="#D80027"/><path d="M13.875 13.92a1.672 1.672 0 0 1-2.072-2.377l-.138-.077a3.114 3.114 0 0 0 2.38-3.059 3.101 3.101 0 0 0-1.062-2.3l-1.005 1.029c.38.302.626.766.632 1.289a1.676 1.676 0 0 1-1.653 1.694l.002.157a3.114 3.114 0 0 0-3.84-.531 3.102 3.102 0 0 0-1.46 2.07l1.393.355c.072-.48.351-.925.8-1.192a1.676 1.676 0 0 1 2.294.585l.135-.08a3.113 3.113 0 0 0 1.46 3.59c.8.45 1.716.505 2.523.23l-.389-1.384zm-2.906-2.845z" fill="#FF9811"/><path d="M15.073 7.493l-.778 2.774-2.332-.43L10.46 6.74l-4.057 1.44-.32-.902-1.06-.13.799 2.253 2.792-.714.793 2.236-1.93 2.848 3.275 2.793-.62.728.417.985 1.552-1.82-2.014-2.06 1.539-1.805 3.431.247.782-4.233.94.174.645-.854-2.352-.434zm-4.074 3.625z" fill="#FFEACF"/></g></svg>
