<svg width="100%" height="100%" viewBox="0 0 22 22" xmlns="http://www.w3.org/2000/svg"><g fill-rule="nonzero" fill="none"><path d="M0 11c0 1.906.485 3.698 1.337 5.26l9.663.957 9.663-.956A10.95 10.95 0 0 0 22 11l-11-.957L0 11z" fill="#FFDA44"/><path d="M20.663 5.74A10.997 10.997 0 0 0 11 0 10.997 10.997 0 0 0 0 11h22a10.95 10.95 0 0 0-1.337-5.26z" fill="#338AF3"/><path d="M11 22c4.17 0 7.797-2.32 9.663-5.74H1.337A10.997 10.997 0 0 0 11 22z" fill="#496E2D"/><path fill="#FFDA44" d="M12.435 6.438l1.343.632-.715 1.3 1.459-.278.184 1.473 1.017-1.084 1.016 1.084.184-1.473 1.46.279-.716-1.301 1.343-.632-1.343-.632.715-1.301-1.459.279-.184-1.474-1.016 1.084-1.017-1.084-.184 1.474-1.46-.28.716 1.302z"/></g></svg>
