<svg width="100%" height="100%" viewBox="0 0 22 22" xmlns="http://www.w3.org/2000/svg"><g fill-rule="nonzero" fill="none"><circle fill="#F0F0F0" cx="10.991" cy="10.991" r="10.991"/><g fill="#ACABB1"><path d="M19.624 8.84H16.01c0-.66-.535-1.194-1.195-1.194l-.956 1.911s1.02 2.868.988 2.868h1.194c.66 0 1.195-.535 1.195-1.195.66 0 1.195-.535 1.195-1.195h-.04c.66 0 1.234-.535 1.234-1.194zM2.357 8.84h3.616c0-.66.535-1.194 1.195-1.194l.956 1.911s-1.02 2.868-.988 2.868H5.942c-.66 0-1.195-.535-1.195-1.195-.66 0-1.195-.535-1.195-1.195h.04c-.66 0-1.235-.535-1.235-1.194z"/></g><path fill="#FFDA44" d="M14.814 15.292v.478H7.168v-.478H5.257v1.911h1.911v.478h7.646v-.478h1.911v-1.911z"/><path d="M7.168 7.646v4.779c0 2.926 3.823 3.822 3.823 3.822s3.823-.896 3.823-3.822v-4.78l-3.823-.477-3.823.478z" fill="#0052B4"/><path fill="#D80027" d="M7.168 9.558h7.646v2.867H7.168z"/><path fill="#FFDA44" d="M12.902 5.257v.716l-.477.24-.478-.479V4.301h-1.912v1.433l-.478.478-.478-.239v-.716H7.168v2.389h7.646v-2.39z"/></g></svg>
