<svg width="100%" height="100%" viewBox="0 0 22 22" xmlns="http://www.w3.org/2000/svg"><g fill-rule="nonzero" fill="none"><circle fill="#FFDA44" cx="11" cy="11" r="11"/><path d="M3.222 18.778c.461.462.954.873 1.47 1.235l15.321-15.32a11.057 11.057 0 0 0-2.705-2.706L1.987 17.308c.362.516.773 1.009 1.235 1.47z" fill="#000"/><path d="M3.222 3.222c-3.47 3.47-4.137 8.682-2 12.822L16.044 1.222c-4.14-2.137-9.352-1.47-12.822 2z" fill="#6DA544"/><path d="M18.778 18.778c3.47-3.47 4.137-8.682 2-12.822L5.956 20.778c4.14 2.137 9.352 1.47 12.822-2z" fill="#D80027"/><g fill="#F0F0F0"><path d="M6.994 12.977l1.027.523.815-.815-.18 1.138 1.026.524-1.138.18-.18 1.138-.523-1.027-1.139.18.815-.814zM12.977 6.994l1.027.523.815-.815-.18 1.139 1.026.523-1.138.18-.18 1.138-.524-1.026-1.138.18.815-.815z"/></g></g></svg>
