<svg width="100%" height="100%" viewBox="0 0 22 22" xmlns="http://www.w3.org/2000/svg"><g fill="none" fill-rule="evenodd"><path d="M22 11c0 6.075-4.925 11-11 11S0 17.075 0 11C0 11.003 11 .001 11 0c6.075 0 11 4.925 11 11z" fill="#0052B4" fill-rule="nonzero"/><path d="M11 5.74V0h-.002C4.924.001 0 4.925 0 11h5.74V7.768L8.97 11h2l.03-.03v-2L7.768 5.74H11z" fill="#F0F0F0" fill-rule="nonzero"/><g fill="#D80027" fill-rule="nonzero"><path d="M5.565 1.435c-1.72.98-3.15 2.41-4.13 4.13V11h2.87V4.304H11v-2.87H5.565z"/><path d="M11 9.647L7.092 5.74H5.739L11 11H11V9.647z"/></g><path d="M18.603 12.61c.316-.435.527-.966.527-1.61V6.217a2.388 2.388 0 0 1-3.348-.478 2.388 2.388 0 0 1-3.347.478V11c0 .644.211 1.175.527 1.61h5.64z" fill="#F3F3F3" fill-rule="nonzero"/><g fill="#FF9811" fill-rule="nonzero"><path d="M17.608 10.113c.152-.372.27-.915.27-1.185 0-.434-.565-.786-.565-.786s-.566.352-.566.786c0 .27.118.813.27 1.185l-.327.738a1.648 1.648 0 0 0 1.245 0l-.327-.738zM15.395 7.724c-.397.054-.927.223-1.16.358-.377.217-.399.883-.399.883s.588.314.964.097c.234-.135.645-.509.89-.827l.803-.086a1.65 1.65 0 0 0-.622-1.077l-.476.652zM14.433 10.834c.245.318.656.692.89.827.377.217.964-.097.964-.097s-.022-.666-.397-.883c-.235-.136-.764-.304-1.162-.358l-.475-.652a1.65 1.65 0 0 0-.623 1.077l.803.086z"/></g><path d="M12.844 12.435c.893 1.433 2.939 1.913 2.939 1.913s2.045-.48 2.938-1.913h-5.877z" fill="#338AF3" fill-rule="nonzero"/></g></svg>
