<svg width="100%" height="100%" viewBox="0 0 22 22" xmlns="http://www.w3.org/2000/svg"><g fill-rule="nonzero" fill="none"><path d="M16.26 1.337A10.95 10.95 0 0 0 11 0a10.95 10.95 0 0 0-5.26 1.337L4.782 11l.956 9.663A10.95 10.95 0 0 0 11 22a10.95 10.95 0 0 0 5.26-1.337L17.218 11l-.956-9.663z" fill="#FFDA44"/><path d="M5.74 20.662V1.337A10.998 10.998 0 0 0 0 11c0 4.17 2.32 7.797 5.74 9.662z" fill="#338AF3"/><g fill="#6DA544"><path d="M22 11c0-4.17-2.32-7.797-5.74-9.663v19.325A10.997 10.997 0 0 0 22 11zM8.609 13.87L6.696 11l1.913-2.87L10.522 11zM13.391 13.87L11.478 11l1.913-2.87L15.304 11zM11 17.696l-1.913-2.87L11 11.956l1.913 2.87z"/></g></g></svg>
