<svg width="100%" height="100%" viewBox="0 0 22 22" xmlns="http://www.w3.org/2000/svg"><g fill-rule="nonzero" fill="none"><path d="M22 11c0 6.075-4.925 11-11 11S0 17.075 0 11c.478 0 11-1.435 11-1.435L22 11z" fill="#338AF3"/><path d="M0 11C0 4.925 4.925 0 11 0s11 4.925 11 11" fill="#F0F0F0"/><path d="M15.366 7.59L11 11.957 6.634 7.59a5.23 5.23 0 0 0-.895 2.932v1.434a5.27 5.27 0 0 0 3.555 4.977 1.59 1.59 0 0 0 .174 1.72l1.564-1.254 1.563 1.253c.409-.51.452-1.194.166-1.738a5.27 5.27 0 0 0 3.5-4.958v-1.434a5.23 5.23 0 0 0-.895-2.932z" fill="#6DA544"/><path d="M11 15.783a3.83 3.83 0 0 1-3.826-3.826v-1.435A3.83 3.83 0 0 1 11 6.696a3.83 3.83 0 0 1 3.826 3.826v1.435A3.83 3.83 0 0 1 11 15.783z" fill="#FFDA44"/><path d="M13.391 11.957v-1.435A2.394 2.394 0 0 0 11 8.13a2.394 2.394 0 0 0-2.391 2.392v1.435l2.391.478 2.391-.478z" fill="#338AF3"/><path d="M8.609 11.957A2.394 2.394 0 0 0 11 14.347a2.394 2.394 0 0 0 2.391-2.39H8.61z" fill="#6DA544"/><path d="M13.87 6.696a1.435 1.435 0 0 0-2.392-1.07v-.843h.479v-.957h-.479v-.478h-.956v.478h-.478v.957h.478v.843a1.435 1.435 0 0 0-1.913 2.138v.845h4.782v-.844c.294-.263.479-.645.479-1.07z" fill="#FFDA44"/></g></svg>
