<svg width="100%" height="100%" viewBox="0 0 22 22" xmlns="http://www.w3.org/2000/svg"><g fill-rule="nonzero" fill="none"><circle fill="#FFDA44" cx="11.021" cy="10.979" r="10.979"/><g fill="#6DA544"><path d="M6.725 7.16h14.592C19.766 2.98 15.742 0 11.021 0A10.943 10.943 0 0 0 3.26 3.216L6.725 7.16zM6.725 14.797h14.592c-1.551 4.18-5.575 7.16-10.296 7.16a10.943 10.943 0 0 1-7.762-3.216l3.466-3.944z"/></g><path d="M3.258 3.216c-4.287 4.287-4.287 11.238 0 15.526l7.763-7.763-7.763-7.763z" fill="#D80027"/><path fill="#000" d="M13.984 9.07l.474 1.458h1.533l-1.24.901.473 1.459-1.24-.902-1.241.902.474-1.459-1.24-.901h1.533zM18.757 9.07l.474 1.458h1.534l-1.241.901.474 1.459-1.241-.902-1.24.902.473-1.459-1.24-.901h1.533z"/></g></svg>
