<svg width="100%" height="100%" viewBox="0 0 22 22" xmlns="http://www.w3.org/2000/svg"><g fill-rule="nonzero" fill="none"><circle fill="#6DA544" cx="11" cy="11" r="11"/><g fill="#F0F0F0"><path d="M6.217 13.152c0 .793.643 1.435 1.435 1.435h4.305c0 .66.535 1.196 1.195 1.196h1.435c.66 0 1.196-.536 1.196-1.196v-1.435H6.217zM15.902 6.217v3.348c0 .528-.429.957-.956.957v1.435a2.394 2.394 0 0 0 2.39-2.392V6.217h-1.434zM5.62 9.565c0 .528-.43.957-.957.957v1.435a2.394 2.394 0 0 0 2.391-2.392V6.217H5.62v3.348z"/><path d="M13.75 6.218h1.435v3.348H13.75zM11.598 8.13a.24.24 0 0 1-.478 0V6.217H9.685V8.13a.24.24 0 0 1-.478 0V6.217H7.772V8.13a1.676 1.676 0 0 0 2.63 1.373 1.664 1.664 0 0 0 1.168.288.957.957 0 0 1-.929.73v1.435a2.394 2.394 0 0 0 2.392-2.39V6.216h-1.435V8.13z"/><path d="M7.772 10.521h2.152v1.435H7.772z"/></g></g></svg>
