<svg width="100%" height="100%" viewBox="0 0 22 22" xmlns="http://www.w3.org/2000/svg"><g fill-rule="nonzero" fill="none"><circle fill="#F0F0F0" cx="11" cy="11" r="11"/><path d="M11 0C4.925 0 0 4.925 0 11c0 1.346.242 2.634.684 3.826h20.632c.442-1.192.684-2.48.684-3.826 0-6.075-4.925-11-11-11z" fill="#0052B4"/><g fill="#D80027"><path d="M11 0C6.27 0 2.238 2.985.684 7.174h20.632C19.762 2.985 15.73 0 11 0z"/><path d="M2.844 6.217v5.488c0 3.121 4.078 4.078 4.078 4.078S11 14.826 11 11.705V6.217H2.844z"/></g><g fill="#FFDA44"><path d="M4.53 7.174h4.784V5.26l-.957.478-1.435-1.435L5.487 5.74l-.956-.478zM10.043 12.469L6.935 9.36 3.826 12.47l1.015 1.014 2.094-2.094 2.094 2.094z"/></g><path d="M10.043 9.565h-1.45a.956.956 0 0 0-1.67-.93.956.956 0 1 0-1.672.93H3.826c0 .529.46.957.988.957h-.031c0 .528.428.956.956.956 0 .468.336.857.78.94l-.754 1.701a3.1 3.1 0 0 0 2.34 0l-.754-1.701a.956.956 0 0 0 .78-.94.956.956 0 0 0 .956-.956h-.032c.528 0 .988-.429.988-.957z" fill="#F0F0F0"/></g></svg>
