<svg width="100%" height="100%" viewBox="0 0 22 22" xmlns="http://www.w3.org/2000/svg"><g fill-rule="nonzero" fill="none"><circle fill="#F0F0F0" cx="11" cy="11" r="11"/><path d="M18.425 2.885A10.96 10.96 0 0 0 11 0c-.469 0-.93.03-1.383.086L4.304 6.217.348 13.756c.256.99.646 1.927 1.15 2.789L11 11l7.425-8.115z" fill="#FFDA44"/><path d="M20.158 17.095l-15.39 2.97A10.948 10.948 0 0 0 11 22c3.82 0 7.186-1.948 9.158-4.905z" fill="#6DA544"/><path d="M18.427 2.886L1.505 16.556c.442.755.972 1.452 1.576 2.078L22 11a10.97 10.97 0 0 0-3.573-8.114z" fill="#D80027"/><path d="M0 11c0 .952.12 1.875.348 2.756L9.617.086C4.195.766 0 5.393 0 11z" fill="#0052B4"/></g></svg>
