<svg width="100%" height="100%" viewBox="0 0 22 22" xmlns="http://www.w3.org/2000/svg"><g fill-rule="nonzero" fill="none"><circle fill="#F0F0F0" cx="11" cy="11" r="11"/><path d="M11 0C7.1 0 3.674 2.03 1.72 5.09l14.918 15.357A10.994 10.994 0 0 0 22 11c0-6.075-4.925-11-11-11z" fill="#FFDA44"/><g fill="#0052B4"><path d="M22 11a10.96 10.96 0 0 0-2.87-7.409v14.818A10.96 10.96 0 0 0 22 11zM13.74 20.705h1.153l.356-1.096.356 1.095h.578c.355-.19.697-.398 1.027-.624L1.92 4.79c-.252.367-.482.751-.688 1.15l.136.416H2.52l-.932.678.357 1.095-.933-.676-.556.404C.16 8.853 0 9.907 0 11c0 6.075 4.925 11 11 11 1.284 0 2.517-.22 3.663-.625l-.922-.67zM2.454 10.522l.356-1.096-.933-.677H3.03l.355-1.097.357 1.096h1.152l-.932.677.357 1.096-.933-.677-.932.678zm2.373 2.391l.356-1.096-.933-.677h1.152l.356-1.097.357 1.096h1.152l-.932.677.357 1.096-.933-.677-.932.678zM7.2 15.304l.356-1.096-.933-.676 1.152-.001.356-1.096.356 1.095H9.64l-.932.677.357 1.096-.933-.677-.932.678zm3.305 1.714l-.932.678.356-1.096-.933-.677h1.152l.356-1.097.356 1.096 1.153-.001-.932.678.357 1.095-.933-.676zm1.441 3.069l.356-1.096-.933-.677h1.152l.356-1.097.356 1.096h1.153l-.932.677.357 1.096-.933-.677-.932.678z"/></g></g></svg>
