<svg width="100%" height="100%" viewBox="0 0 22 22" xmlns="http://www.w3.org/2000/svg"><g fill-rule="nonzero" fill="none"><circle fill="#F0F0F0" cx="11" cy="11" r="11"/><path d="M0 11C0 4.925 4.925 0 11 0s11 4.925 11 11" fill="#D80027"/><g fill="#F0F0F0"><path d="M6.696 5.74a3.348 3.348 0 0 1 2.63-3.27 3.348 3.348 0 1 0 0 6.54 3.348 3.348 0 0 1-2.63-3.27zM11 2.63l.237.731h.769l-.622.452.238.73L11 4.092l-.622.451.238-.73-.622-.452h.769z"/><path d="M9.136 4.065l.238.73h.768l-.622.453.238.73-.622-.451-.621.451.237-.73-.622-.452H8.9zM12.864 4.065l.237.73h.769l-.622.453.237.73-.621-.451-.622.451.238-.73-.622-.452h.768zM12.146 6.217l.238.731h.768l-.621.452.237.73-.622-.451-.621.451.237-.73-.621-.452h.768zM9.854 6.217l.237.731h.768l-.621.452.237.73-.621-.451-.622.451.237-.73-.621-.452h.768z"/></g></g></svg>
