<svg width="100%" height="100%" viewBox="0 0 22 22" xmlns="http://www.w3.org/2000/svg"><g fill-rule="nonzero" fill="none"><circle fill="#F0F0F0" cx="11" cy="11" r="11"/><path d="M11 22c6.075 0 11-4.925 11-11 0-1.346-.242-2.634-.684-3.826H.684A10.976 10.976 0 0 0 0 11c0 6.075 4.925 11 11 11z" fill="#0052B4"/><path d="M11 22c4.73 0 8.762-2.985 10.316-7.174H.684C2.238 19.015 6.27 22 11 22z" fill="#D80027"/><path d="M2.844 6.217v5.488c0 3.121 4.078 4.078 4.078 4.078S11 14.826 11 11.705V6.217H2.844z" fill="#F0F0F0"/><path d="M3.801 6.217v5.488c0 .366.081.712.243 1.037H9.8c.161-.325.242-.67.242-1.037V6.217H3.801z" fill="#D80027"/><path fill="#F0F0F0" d="M8.835 10.043H7.401v-.956h.956V8.13h-.956v-.956h-.957v.956h-.957v.957h.957v.956H5.009V11h1.435v.957h.957V11h1.434z"/><path d="M5.348 14.077c.617.387 1.25.612 1.574.712a6.87 6.87 0 0 0 1.574-.712c.622-.39 1.057-.837 1.305-1.335a1.666 1.666 0 0 0-1.346-.263 1.674 1.674 0 0 0-3.065 0 1.675 1.675 0 0 0-1.346.263c.247.497.683.944 1.304 1.335z" fill="#0052B4"/></g></svg>
