<svg width="100%" height="100%" viewBox="0 0 22 22" xmlns="http://www.w3.org/2000/svg"><g fill-rule="nonzero" fill="none"><circle fill="#F0F0F0" cx="11" cy="11" r="11"/><path d="M21.316 7.174H9.566v-2.87h-5.74v2.87H.684A10.976 10.976 0 0 0 0 11c0 1.346.242 2.634.684 3.826L11 15.783l10.316-.957c.442-1.192.684-2.48.684-3.826s-.242-2.634-.684-3.826z" fill="#0052B4"/><path d="M11 22c4.73 0 8.762-2.985 10.316-7.174H.684C2.238 19.015 6.27 22 11 22z" fill="#D80027"/><path d="M3.826 7.174v.956c0 2.197 2.87 2.87 2.87 2.87s2.87-.673 2.87-2.87v-.956l-.957.956-1.913-1.434L4.783 8.13l-.957-.956z" fill="#F0F0F0"/></g></svg>
