<svg width="100%" height="100%" viewBox="0 0 22 22" xmlns="http://www.w3.org/2000/svg"><g fill-rule="nonzero" fill="none"><circle fill="#F0F0F0" cx="11.021" cy="10.979" r="10.979"/><path d="M3.258 18.742c-4.287-4.288-4.287-11.24 0-15.526l6.331 7.763-6.33 7.763z" fill="#000"/><path d="M9.59 10.979L1.498 5.51c-.25.436-.472.891-.662 1.362l4.096 4.106-4.096 4.105c.19.47.41.925.662 1.361l8.09-5.466z" fill="#FFDA44"/><path d="M21.907 9.547H9.59L3.26 3.216a11.021 11.021 0 0 0-1.76 2.295l5.457 5.468-5.457 5.466a11.02 11.02 0 0 0 1.76 2.296l6.33-6.33h12.318a11.087 11.087 0 0 0 0-2.864z" fill="#6DA544"/><path d="M4.337 19.688a10.93 10.93 0 0 0 6.684 2.27c5.073 0 9.341-3.441 10.6-8.115H10.183l-5.845 5.845z" fill="#0052B4"/><path d="M21.622 8.115C20.362 3.44 16.094 0 11.022 0a10.93 10.93 0 0 0-6.685 2.27l5.845 5.845h11.44z" fill="#D80027"/></g></svg>
