<svg width="100%" height="100%" viewBox="0 0 22 22" xmlns="http://www.w3.org/2000/svg"><g fill-rule="nonzero" fill="none"><circle fill="#F0F0F0" cx="11" cy="11" r="11"/><g fill="#FFDA44"><path d="M20.947 6.3a11.028 11.028 0 0 0-2.243-3.15L11 2.39l-7.704.759-.073.073 3.076 3.076L11 6.443l9.947-.144zM3.223 18.777c.04.04.08.081.122.121l7.655.71 7.655-.71a11.03 11.03 0 0 0 2.27-3.15l-14.23-.444-3.472 3.473z"/></g><path d="M21.89 9.449L9.088 9.087 11 11l-1.913 1.913 12.797-.314a11.083 11.083 0 0 0 .007-3.15z" fill="#000"/><path d="M11 0C8 0 5.28 1.202 3.296 3.15h15.408A10.964 10.964 0 0 0 11 0z" fill="#6DA544"/><g fill="#D80027"><path d="M9.449 9.449h12.442a10.922 10.922 0 0 0-.944-3.15H6.3l3.15 3.15zM6.252 15.748h14.673c.469-.978.797-2.037.959-3.15H9.4l-3.15 3.15z"/></g><path d="M11 22c2.976 0 5.675-1.182 7.655-3.102H3.345A10.963 10.963 0 0 0 11 22z" fill="#6DA544"/><path d="M3.928 2.575c-.245.206-.48.421-.706.647L11 11l-7.778 7.778c.225.226.461.441.706.647L12.353 11 3.928 2.575z" fill="#000"/><path fill="#D80027" d="M4.423 8.13l.712 2.193H7.44l-1.865 1.354.712 2.193-1.864-1.355-1.865 1.355.712-2.193-1.865-1.354H3.71z"/><path d="M6.382 11.18l-1.856-.658s-.138-1.287-.146-1.33a.718.718 0 1 0-1.396.324l-.52.524h.925c0 .96-.717.96-.717 1.917l.398.956H5.46l.399-.956a.956.956 0 0 0 .074-.281c.343-.14.448-.497.448-.497z" fill="#FFDA44"/></g></svg>
