<svg width="100%" height="100%" viewBox="0 0 22 22" xmlns="http://www.w3.org/2000/svg"><g fill-rule="nonzero" fill="none"><path d="M.52 7.652A10.99 10.99 0 0 0 0 11c0 1.167.182 2.292.52 3.348l10.48.478 10.48-.478c.337-1.056.52-2.18.52-3.348 0-1.167-.182-2.292-.52-3.348L11 7.174.52 7.652z" fill="#F0F0F0"/><path d="M22 11c0-.653-.057-1.292-.166-1.913H.166a11.058 11.058 0 0 0 0 3.826h21.668c.109-.621.166-1.26.166-1.913z" fill="#000"/><g fill="#338AF3"><path d="M11 22c4.908 0 9.064-3.214 10.48-7.652H.52C1.935 18.786 6.091 22 11 22zM11 0C6.092 0 1.936 3.214.52 7.652h20.96C20.064 3.214 15.908 0 11 0z"/></g></g></svg>
