<svg width="100%" height="100%" viewBox="0 0 22 22" xmlns="http://www.w3.org/2000/svg"><g fill-rule="nonzero" fill="none"><circle fill="#F0F0F0" cx="11.021" cy="10.979" r="10.979"/><path d="M21.144 6.722C19.48 2.773 15.575 0 11.02 0A10.943 10.943 0 0 0 3.26 3.216l2.75 3.506h15.135z" fill="#000"/><path d="M6.04 15.195l-2.781 3.546a10.943 10.943 0 0 0 7.762 3.216c4.57 0 8.486-2.791 10.14-6.762H6.038z" fill="#496E2D"/><path d="M2.43 8.075v5.768h19.192c.246-.914.378-1.873.378-2.864 0-1.006-.135-1.98-.389-2.904H2.43z" fill="#A2001D"/><path d="M3.258 3.216c-4.287 4.287-4.287 11.238 0 15.526l7.763-7.763-7.763-7.763z" fill="#0052B4"/><path fill="#FFDA44" d="M3.619 8.249l1.34 1.87 2.192-.697-1.364 1.853 1.34 1.87-2.183-.726-1.364 1.853.015-2.3-2.184-.726 2.193-.697z"/></g></svg>
