<svg width="100%" height="100%" viewBox="0 0 22 22" xmlns="http://www.w3.org/2000/svg"><g fill-rule="nonzero" fill="none"><path d="M1.132 6.205a10.935 10.935 0 0 0-1.09 4.774c0 1.71.392 3.33 1.09 4.773l9.89.954 9.889-.954A10.935 10.935 0 0 0 22 10.979c0-1.711-.391-3.33-1.09-4.774l-9.889-.954-9.889.954z" fill="#F0F0F0"/><path d="M1.133 15.752a10.979 10.979 0 0 0 9.888 6.205c4.353 0 8.114-2.533 9.89-6.205H1.132z" fill="#000"/><path d="M1.133 6.205H20.91A10.979 10.979 0 0 0 11.021 0a10.979 10.979 0 0 0-9.888 6.205z" fill="#D80027"/><path d="M3.258 3.216c-4.287 4.287-4.287 11.238 0 15.526l7.763-7.763-7.763-7.763z" fill="#496E2D"/></g></svg>
