<svg width="100%" height="100%" viewBox="0 0 22 22" xmlns="http://www.w3.org/2000/svg"><g fill-rule="nonzero" fill="none"><circle fill="#F0F0F0" cx="11" cy="11" r="11"/><path d="M21.316 7.174H.684A10.978 10.978 0 0 0 0 11c0 1.346.242 2.634.684 3.826h20.632c.442-1.192.684-2.48.684-3.826s-.242-2.634-.684-3.826z" fill="#A2001D"/><g fill="#6DA544"><path d="M11.032 22c3.767 0 7.092-1.895 9.075-4.783H1.957A10.988 10.988 0 0 0 11.032 22zM11.032 0c3.767 0 7.092 1.895 9.075 4.783H1.957A10.988 10.988 0 0 1 11.032 0z"/></g><path fill="#FFDA44" d="M11 7.174l.95 2.923h3.073l-2.486 1.806.95 2.923L11 13.02l-2.486 1.806.95-2.923-2.487-1.806h3.073z"/></g></svg>
