<svg width="100%" height="100%" viewBox="0 0 22 22" xmlns="http://www.w3.org/2000/svg"><g fill-rule="nonzero" fill="none"><path d="M20.909 15.783A10.956 10.956 0 0 0 22 11c0-1.714-.392-3.336-1.091-4.783L11 5.74l-9.909.478A10.957 10.957 0 0 0 0 11c0 1.714.392 3.336 1.091 4.783L11 16.26l9.909-.478z" fill="#FFDA44"/><path d="M11 0a11 11 0 0 0-9.909 6.217h19.817A11 11 0 0 0 11 0z" fill="#000"/><path d="M11 22a11 11 0 0 1-9.909-6.217h19.817A11 11 0 0 1 11 22z" fill="#0052B4"/><path d="M21.48 7.652H.52A10.992 10.992 0 0 0 0 11c0 1.167.182 2.292.52 3.348h20.96c.338-1.056.52-2.18.52-3.348 0-1.167-.182-2.292-.52-3.348z" fill="#A2001D"/><g fill="#FFDA44"><path d="M3.826 10.522h14.348v1H3.826zM5.74 8.609H16.26v1H5.74z"/></g><path d="M16.33 11s-2.46 2.87-5.33 2.87S8.13 11 8.13 11s0-2.87 2.87-2.87S16.33 11 16.33 11z" fill="#F0F0F0"/><path d="M11 13.87C8.13 13.87 5.67 11 5.67 11S8.13 8.13 11 8.13" fill="#000"/><path fill="#F0F0F0" d="M9.087 10.043h1v1.913h-1z"/><path fill="#000" d="M11.957 10.043h1v1.913h-1z"/><g transform="translate(2.836 10.012)" fill="#0052B4"><circle cx=".99" cy=".988" r="1"/><circle cx="15.338" cy=".988" r="1"/></g></g></svg>
