<svg width="100%" height="100%" viewBox="0 0 22 22" xmlns="http://www.w3.org/2000/svg"><g fill-rule="nonzero" fill="none"><path d="M1.091 6.217A10.956 10.956 0 0 0 0 11c0 1.714.392 3.336 1.091 4.783l9.909.956 9.909-.956A10.956 10.956 0 0 0 22 11c0-1.714-.392-3.336-1.091-4.783L11 5.261l-9.909.956z" fill="#F0F0F0"/><path d="M1.092 15.783A11 11 0 0 0 11 22a11 11 0 0 0 9.908-6.217H1.092z" fill="#6DA544"/><path d="M1.092 6.217h19.816A11 11 0 0 0 11 0a11 11 0 0 0-9.908 6.217z" fill="#D80027"/><g fill="#FFDA44"><path d="M9.087 13.87h3.826v-1.627l-.765.383L11 11.478l-1.148 1.148-.765-.383zM6.898 11.957l.178.548h.576l-.466.338.178.548-.466-.338-.466.338.178-.548-.466-.338h.576zM7.45 10.043l.178.548h.576l-.466.34.178.547-.466-.338-.466.338.178-.548-.466-.339h.576zM9.028 8.609l.178.548h.577l-.467.338.178.548-.466-.338-.466.338.178-.548-.466-.338h.576zM15.102 11.957l-.178.548h-.576l.466.338-.178.548.466-.338.466.338-.178-.548.466-.338h-.576zM14.55 10.043l-.178.548h-.576l.466.34-.178.547.466-.338.466.338-.178-.548.466-.339h-.576zM12.972 8.609l-.178.548h-.577l.467.338-.179.548.467-.338.466.338-.178-.548.466-.338h-.576zM11 7.891l.178.548h.576l-.466.339.178.548L11 8.987l-.466.339.178-.548-.466-.339h.576z"/></g></g></svg>
