<svg width="100%" height="100%" viewBox="0 0 22 22" xmlns="http://www.w3.org/2000/svg"><g fill-rule="nonzero" fill="none"><circle fill="#FFDA44" cx="11" cy="11" r="11"/><g fill="#496E2D"><path d="M11 0c-.008 0-.478 4.4-.478 4.4H19.8A10.983 10.983 0 0 0 11 0zM11 22c3.599 0 6.794-1.728 8.8-4.4H2.2A10.983 10.983 0 0 0 11 22zM21.78 8.8H10.522L11 13.2h10.78a11.044 11.044 0 0 0 0-4.4z"/></g><path d="M11 13.2V0C4.925 0 0 4.925 0 11c0 .753.076 1.49.22 2.2H11z" fill="#D80027"/><path fill="#F0F0F0" d="M6.07 5.26l.712 2.193h2.305L7.222 8.808 7.934 11 6.07 9.645 4.205 11l.712-2.192-1.865-1.355h2.305z"/></g></svg>
