<svg width="100%" height="100%" viewBox="0 0 22 22" xmlns="http://www.w3.org/2000/svg"><g fill-rule="nonzero" fill="none"><circle fill="#FFDA44" cx="11" cy="11" r="11"/><path d="M17.696 5.26a7.34 7.34 0 0 0-.144 1.483 7.2 7.2 0 0 0 4.21 6.545c.155-.739.238-1.504.238-2.288 0-6.075-4.925-11-11-11S0 4.925 0 11s4.925 11 11 11c3.768 0 7.092-1.895 9.075-4.783H6.217v-1.434H20.91c.15-.311.286-.63.407-.957H6.217l11.479-9.565z" fill="#0052B4"/><g fill="#F0F0F0"><path d="M8.081 5.74l.238.73h.768l-.622.451.238.731-.622-.451-.621.451.237-.73-.622-.452h.769zM4.96 11l.297.913h.96l-.777.565.297.913-.777-.564-.777.564.297-.913-.777-.565h.96zM4.96 3.348l.297.913h.96l-.777.565.297.913-.777-.564-.777.564.297-.913-.777-.565h.96zM2.569 7.652l.297.914h.96l-.777.564.297.913-.777-.564-.777.564.297-.913-.777-.564h.96z"/></g></g></svg>
