<svg width="100%" height="100%" viewBox="0 0 22 22" xmlns="http://www.w3.org/2000/svg"><g fill-rule="nonzero" fill="none"><path d="M5.956 1.221a10.994 10.994 0 0 0-2.735 2 10.992 10.992 0 0 0-2 2.735l7.073 7.75 7.75 7.072a10.994 10.994 0 0 0 2.735-2 10.993 10.993 0 0 0 2-2.734l-7.073-7.75-7.75-7.073z" fill="#F0F0F0"/><path d="M18.779 18.779c.46-.462.872-.954 1.235-1.47L4.692 1.985a11.063 11.063 0 0 0-2.706 2.706l15.322 15.322a11.065 11.065 0 0 0 1.47-1.235z" fill="#000"/><g fill="#D80027"><path d="M3.221 18.779c3.47 3.47 8.683 4.136 12.823 2L1.22 5.955c-2.136 4.14-1.47 9.352 2 12.823zM18.779 3.221c-3.471-3.47-8.683-4.136-12.823-2l14.822 14.823c2.137-4.14 1.471-9.352-2-12.823z"/></g></g></svg>
