<svg width="100%" height="100%" viewBox="0 0 22 22" xmlns="http://www.w3.org/2000/svg"><g fill-rule="nonzero" fill="none"><g fill="#496E2D"><path d="M11 0c-.821 0-1.621.09-2.391.261L8.13 11l.479 10.738c.77.171 1.57.262 2.391.262 6.075 0 11-4.925 11-11S17.075 0 11 0zM2.87 3.59A10.96 10.96 0 0 0 0 11a10.96 10.96 0 0 0 2.87 7.41L3.348 11 2.87 3.59z"/></g><g fill="#F0F0F0"><path d="M16.088 8.297a3.348 3.348 0 0 0-1.371-3.966 3.348 3.348 0 1 1-2.209 6.156 3.348 3.348 0 0 0 3.58-2.19zM13.087 3.918l-.47.607-.724-.26.433.636-.47.607.737-.215.433.635.023-.768.738-.215-.724-.26z"/><path d="M14.357 5.898l-.47.607-.724-.26.433.636-.47.607.737-.215.433.635.023-.768.737-.215-.723-.26zM10.848 4.639l-.47.607-.724-.26.433.636-.47.607.737-.215.433.635.023-.768.738-.215-.723-.26zM10.796 6.907l-.47.607-.723-.26.433.636-.47.607.737-.215.432.635.024-.768.737-.215-.723-.26zM12.954 7.681l-.47.608-.723-.26.433.635-.47.608.737-.215.433.635.023-.768.737-.216-.723-.259z"/></g><path d="M2.87 3.59V18.41a10.988 10.988 0 0 0 5.739 3.33V.26a10.988 10.988 0 0 0-5.74 3.33z" fill="#D80027"/><path fill="#F0F0F0" d="M5.06 5.792l-.961-.716V4.064l.96-.716h1.36l.96.716v1.012l-.96.716z"/><g fill="#FF9811"><path d="M5.74 3.348h-.68l-.961.716v.494h1.64zM5.74 5.792h.679l.96-.716v-.517H5.74z"/></g><path fill="#F0F0F0" d="M5.06 18.652l-.961-.716v-1.012l.96-.716h1.36l.96.716v1.012l-.96.716z"/><g fill="#FF9811"><path d="M5.74 16.208h-.68l-.961.716v.495h1.64zM5.74 18.652h.679l.96-.716v-.516H5.74z"/></g><g fill="#496E2D"><path d="M5.06 12.222l-.961-.716v-1.012l.96-.716h1.36l.96.716v1.012l-.96.716zM7.413 13.797h-.418v-.419h-.736l-.52-.52-.52.52h-.735v.419h-.419v.837h.419v.418h.735l.52.52.52-.52h.736v-.418h.418zM7.413 7.366h-.418v-.418h-.736l-.52-.52-.52.52h-.735v.418h-.419v.837h.419v.419h.735l.52.52.52-.52h.736v-.419h.418z"/></g><g transform="translate(5.242 7.305)" fill="#D80027"><path d="M.019 3.217h1v1h-1z"/><circle cx=".497" cy=".48" r="1"/><circle cx=".497" cy="6.911" r="1"/></g></g></svg>
