<svg width="100%" height="100%" viewBox="0 0 22 22" xmlns="http://www.w3.org/2000/svg"><g fill-rule="nonzero" fill="none"><path d="M22 11c0 6.075-4.925 11-11 11S0 17.075 0 11C0 11.003 11 .001 11 0c6.075 0 11 4.925 11 11z" fill="#338AF3"/><g fill="#0052B4"><path d="M5.26 11h3.71L5.74 7.174l-.48 1.435zM11 8.97L7.174 5.26H11z"/></g><path d="M11 5.74V0h-.002C4.924.001 0 4.925 0 11h5.74V7.768L8.97 11h2l.03-.03v-2L7.768 5.74H11z" fill="#F0F0F0"/><g fill="#D80027"><path d="M5.565 1.435c-1.72.98-3.15 2.41-4.13 4.13V11h2.87V4.304H11v-2.87H5.565z"/><path d="M11 9.647L7.092 5.74H5.739L11 11V9.647z"/></g><g fill="#FFDA44"><path d="M12.006 18.174l.237.73h.768l-.621.452.237.73-.621-.45-.622.45.238-.73-.622-.451h.768zM18.125 13.391l.237.731h.768l-.621.452.237.73-.621-.451-.622.451.238-.73-.622-.452h.768zM19.658 6.217l.237.731h.769l-.622.452.238.73-.622-.451-.622.451.238-.73-.622-.452h.768zM20.038 11.478l.237.731h.768l-.621.452.237.73-.621-.451-.622.451.238-.73-.622-.452h.768zM13.107 16.455l.685.35.543-.544-.12.759.685.348-.76.12-.12.76-.348-.685-.759.12.543-.543zM13.107 13.586l.685.349.543-.544-.12.76.685.348-.76.12-.12.759-.348-.685-.759.12.543-.543zM15.499 15.425l.684.349.544-.543-.12.758.684.35-.759.12-.12.758-.349-.684-.759.12.544-.543zM15.499 9.281l.684.35.544-.544-.12.759.684.349-.759.12-.12.759-.349-.685-.759.12.544-.543zM17.816 9.208l.685.349.543-.544-.12.76.685.348-.76.12-.12.759-.348-.685-.759.12.543-.543z"/></g></g></svg>
