<svg width="100%" height="100%" viewBox="0 0 22 22" xmlns="http://www.w3.org/2000/svg"><g fill-rule="nonzero" fill="none"><circle fill="#D80027" cx="11" cy="11" r="11"/><path d="M17.217 8.164h-3.984A1.435 1.435 0 1 0 11 6.381a1.433 1.433 0 0 0-2.63.793c0 .384.151.733.397.99H4.783c0 1.057.92 1.913 1.976 1.913h-.063c0 1.057.856 1.914 1.913 1.914 0 .342.09.663.247.94L7.27 14.518l1.218 1.218 1.727-1.727c.068.024.138.044.21.058L9.38 16.423l1.62 1.75 1.62-1.75-1.044-2.356c.072-.014.142-.034.21-.058l1.727 1.726 1.218-1.217-1.587-1.587a1.9 1.9 0 0 0 .247-.94 1.913 1.913 0 0 0 1.913-1.914h-.063c1.056 0 1.976-.856 1.976-1.913z" fill="#000"/></g></svg>
