<svg width="100%" height="100%" viewBox="0 0 22 22" xmlns="http://www.w3.org/2000/svg"><g fill-rule="nonzero" fill="none"><path d="M19.198 18.333A10.958 10.958 0 0 0 22 11c0-2.818-1.06-5.387-2.802-7.333L11 2.87l-8.198.797A10.958 10.958 0 0 0 0 11c0 2.818 1.06 5.387 2.802 7.333L11 19.13l8.198-.797z" fill="#FFDA44"/><path d="M2.802 3.667h16.396A10.972 10.972 0 0 0 11 0a10.972 10.972 0 0 0-8.198 3.667z" fill="#000"/><path d="M0 11l11 .957L22 11c0-1.286-.221-2.52-.627-3.667H.627A10.979 10.979 0 0 0 0 11z" fill="#D80027"/><path d="M.627 14.667h20.746A10.98 10.98 0 0 0 22 11H0c0 1.286.221 2.52.627 3.667z" fill="#000"/><path d="M19.198 18.333H2.802A10.972 10.972 0 0 0 11 22c3.258 0 6.184-1.417 8.198-3.667z" fill="#D80027"/><path d="M14.67 11a3.67 3.67 0 1 1-7.34 0 3.67 3.67 0 0 1 7.34 0z" fill="#F0F0F0"/><path d="M12.345 11.187L11 10.604s.315-1.044.331-1.115a.711.711 0 0 0-.191-.67l.338-.338a1.192 1.192 0 0 0-1.69 0l.337.338a.715.715 0 0 0-.179.715l-.509.51h.925s-.382.574-.591 1.046a.965.965 0 0 0 .486 1.263l.279.124.464.436v.478l-.478.479h.956v-.957l.437-.436h.902c.005-.01.01-.018.013-.027a.957.957 0 0 0-.485-1.263z" fill="#000"/></g></svg>
