<svg width="100%" height="100%" viewBox="0 0 22 22" xmlns="http://www.w3.org/2000/svg"><g fill-rule="nonzero" fill="none"><circle fill="#FFDA44" cx="11" cy="11" r="11"/><g transform="translate(.086 .086)" fill="#D80027"><path d="M12.587 21.788a10.941 10.941 0 0 0 4.832-2.004l-6.505-8.87 1.673 10.874zM9.241.04A10.942 10.942 0 0 0 4.41 2.045l6.505 8.87L9.241.041zM4.409 19.784a10.943 10.943 0 0 0 4.832 2.004l1.673-10.874-6.505 8.87zM2.044 4.409A10.942 10.942 0 0 0 .04 9.241l10.873 1.673-8.87-6.505z"/><path d="M.04 12.587a10.941 10.941 0 0 0 2.004 4.832l8.87-6.505L.041 12.587zM21.788 9.241a10.942 10.942 0 0 0-2.004-4.832l-8.87 6.505 10.874-1.673zM17.419 2.044A10.942 10.942 0 0 0 12.587.04l-1.673 10.873 6.505-8.87zM19.785 17.42a10.943 10.943 0 0 0 2.003-4.833l-10.874-1.673 8.87 6.505z"/><circle cx="10.914" cy="10.914" r="3.826"/></g><circle fill="#FFDA44" cx="11" cy="11" r="2.87"/></g></svg>
