<svg width="100%" height="100%" viewBox="0 0 22 22" xmlns="http://www.w3.org/2000/svg"><g fill-rule="nonzero" fill="none"><circle fill="#F0F0F0" cx="11" cy="11" r="11"/><path d="M11 0C6.27 0 2.238 2.985.684 7.174h20.632C19.762 2.985 15.73 0 11 0z" fill="#D80027"/><path d="M11 22c4.73 0 8.762-2.985 10.316-7.174H.684C2.238 19.015 6.27 22 11 22z" fill="#000"/><path d="M14.826 9.804h-2.87a.957.957 0 0 0-1.913 0h-2.87c0 .529.461.957.99.957H8.13c0 .528.429.956.957.956 0 .529.428.957.956.957h1.913a.956.956 0 0 0 .957-.957.956.956 0 0 0 .957-.956h-.032c.528 0 .988-.428.988-.957z" fill="#FF9811"/></g></svg>
