<svg width="100%" height="100%" viewBox="0 0 22 22" xmlns="http://www.w3.org/2000/svg"><g fill-rule="nonzero" fill="none"><circle fill="#F0F0F0" cx="11" cy="11" r="11"/><g fill="#0052B4"><path d="M2.274 4.303A10.96 10.96 0 0 0 .379 8.131H6.1L2.274 4.303zM21.621 8.13a10.96 10.96 0 0 0-1.895-3.827L15.9 8.131h5.722zM.379 13.87a10.961 10.961 0 0 0 1.895 3.827L6.1 13.87H.38zM17.697 2.274A10.96 10.96 0 0 0 13.87.379V6.1l3.827-3.827zM4.303 19.726a10.96 10.96 0 0 0 3.827 1.895V15.9l-3.827 3.827zM8.13.379a10.961 10.961 0 0 0-3.827 1.895L8.13 6.1V.38zM13.87 21.621a10.961 10.961 0 0 0 3.827-1.895L13.87 15.9v5.722zM15.899 13.87l3.827 3.827a10.96 10.96 0 0 0 1.895-3.827H15.9z"/></g><g fill="#D80027"><path d="M21.907 9.565h-9.472V.093a11.11 11.11 0 0 0-2.87 0v9.472H.093a11.11 11.11 0 0 0 0 2.87h9.472v9.472a11.109 11.109 0 0 0 2.87 0v-9.472h9.472a11.109 11.109 0 0 0 0-2.87z"/><path d="M13.87 13.87l4.908 4.908c.226-.225.441-.461.647-.706l-4.203-4.202H13.87zM8.13 13.87l-4.908 4.908c.225.226.461.441.706.647l4.202-4.203V13.87zM8.13 8.13L3.222 3.222c-.226.225-.441.461-.647.706L6.778 8.13H8.13zM13.87 8.13l4.908-4.908a11.014 11.014 0 0 0-.706-.647L13.87 6.778V8.13z"/></g></g></svg>
