<svg width="100%" height="100%" viewBox="0 0 22 22" xmlns="http://www.w3.org/2000/svg"><g fill-rule="nonzero" fill="none"><circle fill="#F0F0F0" cx="11" cy="11" r="11"/><path d="M21.907 9.565h-9.472V.093a11.11 11.11 0 0 0-2.87 0v9.472H.093a11.109 11.109 0 0 0 0 2.87h9.472v9.472a11.11 11.11 0 0 0 2.87 0v-9.472h9.472a11.11 11.11 0 0 0 0-2.87z" fill="#D80027"/><path fill="#FFDA44" d="M14.109 11.478l.717.479v-1.914l-.717.479h-2.63v-2.63l.478-.718h-1.914l.479.717v2.63h-2.63l-.718-.478v1.914l.717-.479h2.63v2.63l-.478.718h1.914l-.479-.717v-2.63z"/></g></svg>
