<svg width="100%" height="100%" viewBox="0 0 22 22" xmlns="http://www.w3.org/2000/svg"><g fill-rule="nonzero" fill="none"><circle fill="#F0F0F0" cx="11" cy="11" r="11"/><path d="M19.727 17.698L13.029 11l6.698-6.698a11.117 11.117 0 0 0-2.03-2.029L11 8.971 4.302 2.273a11.105 11.105 0 0 0-2.029 2.03L8.971 11l-6.698 6.698a11.117 11.117 0 0 0 2.03 2.029L11 13.029l6.698 6.698a11.11 11.11 0 0 0 2.029-2.03z" fill="#D80027"/><path fill="#FFDA44" d="M9.087 3.348L11 3.826l1.913-.478V1.722l-.765.382L11 .957 9.852 2.104l-.765-.382z"/><path d="M9.087 3.348v1.196C9.087 6.008 11 6.457 11 6.457s1.913-.45 1.913-1.913V3.348H9.087z" fill="#D80027"/></g></svg>
