<svg width="100%" height="100%" viewBox="0 0 22 22" xmlns="http://www.w3.org/2000/svg"><g fill-rule="nonzero" fill="none"><path d="M22 11c0-3.775-1.902-7.106-4.8-9.087L11 1.435l-6.2.478A10.988 10.988 0 0 0 0 11c0 3.775 1.902 7.106 4.8 9.087l6.2.478 6.2-.478A10.988 10.988 0 0 0 22 11z" fill="#0052B4"/><g fill="#A2001D"><path d="M17.2 1.913A10.948 10.948 0 0 0 11 0C8.7 0 6.566.706 4.8 1.913h12.4zM4.8 20.087A10.948 10.948 0 0 0 11 22c2.3 0 4.434-.706 6.2-1.913H4.8z"/></g><circle fill="#F0F0F0" cx="11" cy="11" r="5.261"/><circle fill="#6DA544" cx="11" cy="11" r="4.304"/><circle fill="#F0F0F0" cx="11" cy="11" r="2.87"/><path fill="#0052B4" d="M11 10.283L9.446 11v1.196l1.554.956 1.554-.956V11z"/><path fill="#FFDA44" d="M9.446 9.565h3.109V11H9.446z"/></g></svg>
