<svg width="100%" height="100%" viewBox="0 0 22 22" xmlns="http://www.w3.org/2000/svg"><g fill-rule="nonzero" fill="none"><circle fill="#F0F0F0" cx="11" cy="11" r="11"/><g fill="#D80027"><path d="M10.522 11H22c0-.993-.132-1.955-.379-2.87h-11.1V11zM10.522 5.26h9.863a11.058 11.058 0 0 0-2.538-2.869h-7.325v2.87zM11 22c2.589 0 4.968-.895 6.847-2.391H4.153A10.953 10.953 0 0 0 11 22zM1.615 16.74h18.77c.541-.883.96-1.847 1.236-2.87H.38a10.934 10.934 0 0 0 1.236 2.87z"/></g><path d="M5.095 1.718h1.003l-.933.677.357 1.096-.933-.677-.932.677.307-.947a11.06 11.06 0 0 0-2.133 2.378h.321l-.593.431c-.093.155-.182.311-.266.47l.283.873-.529-.385c-.131.279-.252.564-.36.854L1 8.127h1.152l-.932.677.356 1.096-.932-.677-.559.405C.029 10.078 0 10.535 0 11h11V0C8.827 0 6.801.63 5.095 1.718zM5.522 9.9l-.933-.677-.932.677.356-1.096-.932-.677h1.152L4.59 7.03l.356 1.097h1.153l-.933.677.357 1.096zm-.357-4.3l.357 1.096-.933-.678-.932.678.356-1.096-.932-.678h1.152l.356-1.096.356 1.096h1.153l-.933.678zm4.302 4.3l-.932-.677-.933.677.357-1.096-.933-.677H8.18l.356-1.097.356 1.097h1.152l-.932.677.356 1.096zm-.356-4.3l.356 1.096-.932-.678-.933.678L7.96 5.6l-.933-.678H8.18l.356-1.096.356 1.096h1.152l-.932.678zm0-3.205l.356 1.096-.932-.677-.933.677.357-1.096-.933-.677H8.18L8.535.622l.356 1.096h1.152l-.932.677z" fill="#0052B4"/></g></svg>
