<svg width="100%" height="100%" viewBox="0 0 22 22" xmlns="http://www.w3.org/2000/svg"><g fill-rule="nonzero" fill="none"><circle fill="#FCFCFC" cx="11" cy="11" r="11"/><g fill="#FFDA44"><path d="M12.868 7.685a1.868 1.868 0 0 0-3.736 0h-4.11c0 1.016.885 1.84 1.9 1.84h-.06A1.84 1.84 0 0 0 8.7 11.363c0 .9.646 1.647 1.499 1.806l-.005.011h1.61l-.005-.01c.853-.16 1.5-.908 1.5-1.807a1.84 1.84 0 0 0 1.839-1.84h-.062c1.016 0 1.901-.823 1.901-1.84h-4.11z"/><path d="M10.179 12.99L9.02 15.606c.612.248 1.28.386 1.98.386s1.369-.138 1.98-.386L11.82 12.99H10.18z"/></g><path d="M8.609 8.604v3.217c0 1.83 2.391 2.392 2.391 2.392s2.391-.561 2.391-2.392V8.604H8.61z" fill="#F0F0F0"/><g fill="#338AF3"><path d="M2.667 11.077l1.294 3.618 1.28-3.618h.976L4.351 15.86h-.78l-1.88-4.783zM17.696 15.86v-4.783h.93v4.783z"/></g><g fill="#D80027"><path d="M9.565 9.643v3.9c.329.241.683.408.957.514V9.643h-.957zM12.435 9.643v3.9a4.209 4.209 0 0 1-.957.514V9.643h.957z"/></g><path fill="#0052B4" d="M8.609 8.603h4.783v1.517H8.609z"/></g></svg>
