<svg width="100%" height="100%" viewBox="0 0 22 22" xmlns="http://www.w3.org/2000/svg"><g fill-rule="nonzero" fill="none"><circle fill="#F0F0F0" cx="11" cy="11" r="11"/><path d="M11 8.13h10.621a10.938 10.938 0 0 0-1.236-2.87H11v2.87z" fill="#338AF3"/><g fill="#338AF3"><path d="M4.153 19.609h13.694c1.004-.8 1.865-1.771 2.538-2.87H1.615a11.058 11.058 0 0 0 2.538 2.87zM11 0v2.391h6.847A10.953 10.953 0 0 0 11 0z"/></g><path d="M11 8.13h10.621a10.938 10.938 0 0 0-1.236-2.87H11v2.87zM0 11c0 .993.132 1.955.379 2.87H21.62c.247-.915.379-1.877.379-2.87H0z" fill="#338AF3"/><path fill="#FFDA44" d="M9.565 6.438l-1.343.632.715 1.3-1.459-.278-.184 1.473-1.017-1.084-1.016 1.084-.184-1.473-1.46.279.716-1.301-1.343-.632 1.343-.632-.715-1.301 1.459.279.184-1.474 1.016 1.084L7.294 3.31l.184 1.474 1.46-.28-.716 1.302z"/></g></svg>
