<svg width="100%" height="100%" viewBox="0 0 22 22" xmlns="http://www.w3.org/2000/svg"><g fill="none" fill-rule="evenodd"><circle fill="#F0F0F0" fill-rule="nonzero" cx="11" cy="11" r="11"/><g fill="#0052B4" fill-rule="nonzero"><path d="M20.167 12.316c-.917 0-.917-.838-1.834-.838-.916 0-.916.838-1.833.838-.917 0-.917-.838-1.833-.838-.917 0-.917.838-1.834.838-.916 0-.916-.838-1.833-.838-.917 0-.917.838-1.833.838-.917 0-.917-.838-1.834-.838-.916 0-.916.838-1.833.838-.917 0-.917-.838-1.834-.838-.916 0-.916.838-1.833.838-.911 0-.917-.828-1.819-.837.026.503.086.997.177 1.48.73.107.794.824 1.642.824.917 0 .917-.838 1.834-.838.916 0 .916.838 1.833.838.917 0 .917-.838 1.833-.838.917 0 .917.838 1.834.838.916 0 .916-.838 1.833-.838.917 0 .917.838 1.833.838.917 0 .917-.838 1.834-.838.916 0 .916.838 1.833.838.917 0 .917-.838 1.833-.838.917 0 .917.838 1.834.838.848 0 .912-.717 1.642-.824.091-.483.151-.977.177-1.48-.902.009-.908.837-1.82.837zM18.333 14.348c-.916 0-.916.838-1.833.838-.917 0-.917-.838-1.833-.838-.917 0-.917.838-1.834.838-.916 0-.916-.838-1.833-.838-.917 0-.917.838-1.833.838-.917 0-.917-.838-1.834-.838-.916 0-.916.838-1.833.838-.917 0-.917-.838-1.834-.838-.916 0-.916.838-1.833.838-.675 0-.853-.455-1.267-.694.25.748.58 1.46.977 2.128.086.02.182.033.29.033.917 0 .917-.838 1.833-.838.917 0 .917.838 1.834.838s.917-.838 1.833-.838c.917 0 .917.838 1.834.838.916 0 .916-.838 1.833-.838.917 0 .917.838 1.833.838.917 0 .917-.838 1.834-.838.916 0 .916.838 1.833.838.916 0 .917-.838 1.833-.838.917 0 .917.838 1.833.838.11 0 .205-.012.291-.033.397-.667.726-1.38.977-2.128-.414.24-.592.694-1.268.694-.916 0-.916-.838-1.833-.838zM21.744 8.634c-.67.14-.755.813-1.577.813-.917 0-.917-.838-1.834-.838-.916 0-.916.838-1.833.838-.917 0-.917-.838-1.833-.838-.917 0-.917.838-1.834.838-.916 0-.916-.838-1.833-.838-.495 0-.723.244-.972.47v1.466c.249-.225.476-.47.972-.47.917 0 .917.839 1.833.839.917 0 .917-.839 1.834-.839.916 0 .916.839 1.833.839.917 0 .917-.839 1.833-.839.917 0 .917.839 1.834.839.848 0 .912-.717 1.642-.825h.153c-.04-.495-.114-.98-.218-1.455zM20.94 6.285c-.19.16-.409.292-.773.292-.917 0-.917-.838-1.834-.838-.916 0-.916.838-1.833.838-.917 0-.917-.838-1.833-.838-.917 0-.917.838-1.834.838-.916 0-.916-.838-1.833-.838-.495 0-.723.245-.972.47v1.466c.249-.225.477-.47.972-.47.917 0 .917.839 1.833.839.917 0 .917-.838 1.834-.838.916 0 .916.838 1.833.838.917 0 .917-.838 1.833-.838.917 0 .917.838 1.834.838.65 0 .84-.421 1.222-.666-.13-.374-.28-.739-.448-1.093zM18.411 2.872a1.443 1.443 0 0 0-.078-.002c-.916 0-.916.838-1.833.838-.917 0-.917-.838-1.833-.838-.917 0-.917.838-1.834.838-.916 0-.916-.838-1.833-.838-.496 0-.723.244-.973.47v1.466c.25-.225.477-.47.973-.47.917 0 .917.838 1.833.838.917 0 .917-.838 1.834-.838.916 0 .916.838 1.833.838.916 0 .917-.838 1.833-.838.917 0 .917.838 1.833.838.057 0 .11-.003.16-.009a11.052 11.052 0 0 0-1.915-2.293zM13.812.363c-.252.227-.48.475-.979.475C11.917.838 11.917 0 11 0c-.474 0-.703.224-.94.44v1.468c.237-.217.466-.441.94-.441.917 0 .917.838 1.833.838.917 0 .917-.838 1.834-.838.916 0 .916.838 1.833.838.385 0 .608-.148.805-.32A10.947 10.947 0 0 0 13.812.364zM12.833 20.925c-.916 0-.916-.838-1.833-.838-.917 0-.917.838-1.833.838-.917 0-.917-.838-1.834-.838-.702 0-.867.491-1.317.721a10.93 10.93 0 0 0 4.078 1.155c.226-.206.455-.41.906-.41.45 0 .68.204.906.41a10.931 10.931 0 0 0 4.078-1.154c-.45-.23-.615-.722-1.317-.722-.917 0-.917.838-1.834.838zM16.5 18.056c-.917 0-.917-.839-1.833-.839-.917 0-.917.839-1.834.839-.916 0-.916-.839-1.833-.839-.917 0-.917.839-1.833.839-.917 0-.917-.839-1.834-.839-.916 0-.916.839-1.833.839-.917 0-.917-.839-1.834-.839-.659 0-.844.434-1.237.677.246.306.508.599.785.877.125-.053.27-.087.452-.087.917 0 .917.838 1.834.838s.917-.838 1.833-.838c.917 0 .917.838 1.834.838.916 0 .916-.838 1.833-.838.917 0 .917.838 1.833.838.917 0 .917-.838 1.834-.838.916 0 .916.838 1.833.838.916 0 .917-.838 1.833-.838.182 0 .328.034.452.087.278-.278.54-.57.786-.877-.393-.243-.578-.677-1.238-.677-.916 0-.916.839-1.833.839z"/></g><g fill="#0052B4" fill-rule="nonzero"><path d="M11 5.74v3.23L7.174 5.26zM5.74 11h3.23L5.74 6.696l-.48 3.347z"/></g><path d="M11 5.74V0h-.002C4.924.001 0 4.925 0 11h5.74V7.768L8.97 11h2l.03-.03v-2L7.768 5.74H11z" fill="#F0F0F0" fill-rule="nonzero"/><g fill="#D80027" fill-rule="nonzero"><path d="M5.565 1.435c-1.72.98-3.15 2.41-4.13 4.13V11h2.87V4.304H11v-2.87H5.565z"/><path d="M11 9.647L7.092 5.74H5.739L11 11H11V9.647z"/></g><path fill="#6DA544" fill-rule="nonzero" d="M14.348 5.74h4.304L16.5 7.89z"/><g fill="#A2001D" fill-rule="nonzero"><path d="M16.021 7.413h1v2.63h-1zM16.021 14.348h1v2.63h-1z"/></g><path d="M19.37 12.913a1.435 1.435 0 0 0-2.392-1.07V11h.479v-.957h-.479v-.478h-.956v.478h-.478V11h.478v.844a1.435 1.435 0 0 0-1.913 2.138v.844h4.782v-.844c.294-.263.479-.644.479-1.069z" fill="#FFDA44" fill-rule="nonzero"/><path d="M17.935 12.435a.471.471 0 0 0-.319.122l-.638.57h-.956l-.638-.57a.479.479 0 0 0-.637.713l.318.285v.315h2.87v-.315l.318-.285a.479.479 0 0 0-.319-.835z" fill="#D80027" fill-rule="nonzero"/></g></svg>
