<svg width="100%" height="100%" viewBox="0 0 22 22" xmlns="http://www.w3.org/2000/svg"><g fill-rule="nonzero" fill="none"><path d="M.518 7.637A10.968 10.968 0 0 0 0 10.978c0 1.166.182 2.288.518 3.342l10.46.477 10.46-.477c.337-1.054.52-2.176.52-3.341 0-1.166-.183-2.288-.52-3.342l-10.46-.477-10.46.477z" fill="#F0F0F0"/><g fill="#D80027"><path d="M21.439 7.637l-10.46-.477-10.46.477c-.1.313-.186.631-.258.955h21.435a10.913 10.913 0 0 0-.257-.955zM.261 13.365c.072.324.158.642.257.955H.52l10.46.477 10.46-.477c.1-.313.185-.631.257-.955H.26z"/></g><path d="M10.979 21.957c4.898 0 9.046-3.208 10.46-7.637H.519c1.413 4.43 5.561 7.637 10.46 7.637z" fill="#6DA544"/><path d="M10.979 0C6.08 0 1.932 3.208.519 7.637h20.92C20.025 3.208 15.877 0 10.979 0z" fill="#338AF3"/><g fill="#F0F0F0"><path d="M5.017 4.535c0-1.029.723-1.888 1.688-2.098a2.148 2.148 0 1 0 0 4.196 2.148 2.148 0 0 1-1.688-2.098zM7.974 5.511l.146.448h.47l-.38.276.145.448-.38-.277-.382.277.146-.448-.38-.276h.47zM9.476 5.511l.145.448h.471l-.38.276.145.448-.381-.277-.38.277.145-.448-.38-.276h.47zM10.978 5.511l.145.448h.47l-.38.276.146.448-.381-.277-.38.277.145-.448-.381-.276h.47zM12.48 5.511l.145.448h.47l-.38.276.145.448-.38-.277-.38.277.145-.448-.381-.276h.47zM13.982 5.511l.145.448h.47l-.38.276.145.448-.38-.277-.381.277.145-.448-.38-.276h.47zM9.476 3.949l.145.447h.471l-.38.277.145.447-.381-.276-.38.276.145-.447-.38-.277h.47zM10.978 3.949l.145.447h.47l-.38.277.146.447-.381-.276-.38.276.145-.447-.381-.277h.47zM12.48 3.949l.145.447h.47l-.38.277.145.447-.38-.276-.38.276.145-.447-.381-.277h.47zM13.982 3.949l.145.447h.47l-.38.277.145.447-.38-.276-.381.276.145-.447-.38-.277h.47zM10.978 2.387l.145.447h.47l-.38.277.146.447-.381-.276-.38.276.145-.447-.381-.277h.47zM12.48 2.387l.145.447h.47l-.38.277.145.447-.38-.276-.38.276.145-.447-.381-.277h.47zM13.982 2.387l.145.447h.47l-.38.277.145.447-.38-.276-.381.276.145-.447-.38-.277h.47z"/></g></g></svg>
