<svg width="100%" height="100%" viewBox="0 0 22 22" xmlns="http://www.w3.org/2000/svg"><g fill-rule="nonzero" fill="none"><path d="M20.909 15.783A10.956 10.956 0 0 0 22 11c0-1.714-.392-3.336-1.091-4.783L11 5.261l-9.909.956A10.956 10.956 0 0 0 0 11c0 1.714.392 3.336 1.091 4.783l9.909.956 9.909-.956z" fill="#0052B4"/><path d="M11 22a11 11 0 0 0 9.909-6.217H1.09A11 11 0 0 0 11 22z" fill="#D80027"/><g fill="#F0F0F0"><path d="M19.05 13.16l-.58.453.252.693-.611-.412-.581.454.203-.71-.611-.411.737-.026.203-.709.252.693zM17.563 10.582l-.39.626.473.564-.715-.178-.39.625-.052-.735-.716-.178.684-.277-.051-.735.474.565zM15.284 8.67l-.154.721.639.369-.733.077-.154.721-.3-.674-.733.077.548-.493-.3-.673.639.368zM12.488 7.652l.102.73.726.128-.662.324.102.73-.512-.53-.663.323.347-.651-.513-.53.727.127zM9.512 7.652l.346.651.726-.128-.512.53.346.652-.662-.324-.512.53.102-.73-.662-.323.726-.128zM6.716 8.67l.548.493.639-.368-.3.673.548.494-.734-.078-.3.674-.153-.721-.733-.077.639-.369zM4.437 10.582l.684.277.473-.565-.05.736.683.276-.716.178-.051.735-.39-.625-.716.179.474-.565zM2.95 13.16l.736.025.252-.693.204.709.736.026-.61.412.202.709-.58-.454-.612.412.252-.693z"/></g><path d="M20.909 6.217A11 11 0 0 0 11 0a11 11 0 0 0-9.909 6.217H20.91z" fill="#FFDA44"/></g></svg>
