<svg width="100%" height="100%" viewBox="0 0 22 22" xmlns="http://www.w3.org/2000/svg"><g fill-rule="nonzero" fill="none"><path d="M22 11c0 6.075-4.925 11-11 11S0 17.075 0 11L11 0c6.075 0 11 4.925 11 11z" fill="#D80027"/><path d="M11 11V0C4.925 0 0 4.925 0 11h11z" fill="#0052B4"/><g fill="#F0F0F0"><path d="M8.81 7.174l.179.548h.576l-.466.339.178.548-.466-.339-.466.339.178-.548-.466-.339h.576zM5.917 2.87l.296.913h.96l-.776.564.297.914-.777-.565-.777.565.297-.914-.777-.564h.96zM8.786 3.826l.297.914h.96l-.777.564.297.913-.777-.564-.777.564.297-.913-.777-.564h.96zM6.518 7.652l.297.914h.96l-.777.564.297.913-.777-.564-.777.564.297-.913-.777-.564h.96zM4.004 5.26l.296.914h.96l-.776.565.297.913-.777-.564-.777.564.296-.913-.776-.565h.96z"/></g></g></svg>
