<svg width="100%" height="100%" viewBox="0 0 22 22" xmlns="http://www.w3.org/2000/svg"><g fill-rule="nonzero" fill="none"><circle fill="#496E2D" cx="11" cy="11" r="11"/><path d="M15.304 11H11v11c1.286 0 2.52-.221 3.667-.627L15.304 11z" fill="#D80027"/><path d="M18.333 19.198A10.972 10.972 0 0 0 22 11h-4.304l.637 8.198z" fill="#FF9811"/><path d="M14.667 11v10.373a10.994 10.994 0 0 0 3.666-2.175V11h-3.666z" fill="#000"/><path d="M20.326 7.174h-2.87a.957.957 0 0 0-1.913 0h-2.87c0 .528.461.956.99.956h-.033c0 .529.429.957.957.957 0 .528.428.957.956.957h1.913a.957.957 0 0 0 .957-.957.957.957 0 0 0 .957-.957h-.032c.528 0 .988-.428.988-.956z" fill="#FF9811"/></g></svg>
