<svg width="100%" height="100%" viewBox="0 0 22 22" xmlns="http://www.w3.org/2000/svg"><g fill-rule="nonzero" fill="none"><path d="M18.742 18.742c4.117-4.118 4.28-10.691.49-15.004l-8.253 7.24-7.24 8.253c4.312 3.79 10.885 3.628 15.003-.49z" fill="#496E2D"/><path d="M3.215 3.215c4.118-4.117 10.691-4.28 15.004-.49l-7.24 8.254-8.253 7.24c-3.79-4.313-3.628-10.886.49-15.004z" fill="#0052B4"/><path d="M18.219 2.726L2.726 18.219a11.086 11.086 0 0 0 1.012 1.012L19.231 3.738a11.11 11.11 0 0 0-1.012-1.012z" fill="#FFDA44"/><g fill="#F0F0F0"><path d="M4.626 3.818l.237.73h.766l-.62.45.237.73-.62-.451-.62.45.236-.729-.62-.45h.767zM8.543 3.818l.237.73h.766l-.62.45.237.73-.62-.451-.62.45.236-.729-.62-.45h.767zM4.626 7.637l.237.73h.766l-.62.45.237.73-.62-.451-.62.45.236-.729-.62-.45h.767zM8.543 7.637l.237.73h.766l-.62.45.237.73-.62-.451-.62.45.236-.729-.62-.45h.767zM6.584 5.728l.237.729h.767l-.62.45.237.73-.62-.45-.621.45.237-.73-.62-.45h.766z"/></g></g></svg>
