<svg width="100%" height="100%" viewBox="0 0 22 22" xmlns="http://www.w3.org/2000/svg"><g fill-rule="nonzero" fill="none"><circle fill="#338AF3" cx="11" cy="11" r="11"/><g fill="#F0F0F0"><path d="M10.968 7.174a3.826 3.826 0 1 0 0 7.652 3.826 3.826 0 0 0 0-7.652zM10.012 11a.957.957 0 1 1 1.913 0 .957.957 0 0 1-1.913 0zm1.948-1.636c-.149-.09-.31-.16-.482-.208v-.98c.432.078.83.252 1.171.499l-.69.689zm-1.438-.224a1.9 1.9 0 0 0-.505.2l-.692-.692c.35-.245.756-.414 1.197-.483v.975zm-.505 3.52a1.9 1.9 0 0 0 .505.2v.975a2.853 2.853 0 0 1-1.197-.483l.692-.693zm1.461.184a1.9 1.9 0 0 0 .482-.208l.689.69c-.342.246-.74.42-1.17.497v-.98zm1.15-.893a1.9 1.9 0 0 0 .193-.473h.976a2.852 2.852 0 0 1-.477 1.165l-.692-.692zm.193-1.43a1.9 1.9 0 0 0-.193-.472l.692-.692c.239.341.405.737.477 1.165h-.976zM8.643 9.32l.689.69c-.096.157-.17.33-.217.513H8.14c.075-.444.25-.853.504-1.203zm-.504 2.16h.976a1.9 1.9 0 0 0 .217.513l-.69.689a2.853 2.853 0 0 1-.503-1.203z"/><path d="M17.186 11c0-1.7-.684-3.242-1.79-4.364L14.381 7.65a4.783 4.783 0 1 1-6.795-.032L6.572 6.604a6.22 6.22 0 0 0 2.699 10.38 1.591 1.591 0 0 0 .166 1.736L11 17.467l1.564 1.253a1.592 1.592 0 0 0 .157-1.754A6.22 6.22 0 0 0 17.186 11z"/></g></g></svg>
