<svg width="100%" height="100%" viewBox="0 0 22 22" xmlns="http://www.w3.org/2000/svg"><g fill="none" fill-rule="evenodd"><path d="M22 11c0 6.075-4.925 11-11 11S0 17.075 0 11C0 11.003 11 .001 11 0c6.075 0 11 4.925 11 11z" fill="#0052B4" fill-rule="nonzero"/><path d="M11 5.74V0h-.002C4.924.001 0 4.925 0 11h5.74V7.768L8.97 11h2l.03-.03v-2L7.768 5.74H11z" fill="#F0F0F0" fill-rule="nonzero"/><path d="M5.565 1.435c-1.72.98-3.15 2.41-4.13 4.13V11h2.87V4.304H11v-2.87H5.565z" fill="#D80027" fill-rule="nonzero"/><path d="M15.783 11l-2.974 2.973a3.347 3.347 0 0 0 5.947 0L15.783 11z" fill="#FFDA44" fill-rule="nonzero"/><path d="M11 9.647L7.092 5.74H5.739L11 11H11V9.647z" fill="#D80027" fill-rule="nonzero"/><path d="M12.435 5.74V11c0 2.563 3.348 3.348 3.348 3.348S19.13 13.563 19.13 11V5.74h-6.695z" fill="#6DA544" fill-rule="nonzero"/><path fill="#F0F0F0" fill-rule="nonzero" d="M15.065 8.13H16.5v3.826h-1.435z"/><circle fill="#A2001D" fill-rule="nonzero" cx="15.783" cy="8.13" r="1"/><g fill="#FFDA44" fill-rule="nonzero"><path d="M13.391 6.695h1v1h-1zM13.391 8.848h1v1h-1zM13.391 11h1v1h-1zM17.217 6.695h1v1h-1zM17.217 8.848h1v1h-1zM17.217 11h1v1h-1z"/></g></g></svg>
