<svg width="100%" height="100%" viewBox="0 0 22 22" xmlns="http://www.w3.org/2000/svg"><g fill-rule="nonzero" fill="none"><circle fill="#F0F0F0" cx="11" cy="11" r="10.998"/><path d="M1.475 5.5C.98 6.36.613 7.26.37 8.176l18.393 10.62a11.008 11.008 0 0 0 1.762-2.296L1.475 5.5z" fill="#000"/><g fill="#FFDA44"><path d="M16.499 1.475c-4.4-2.54-9.827-1.694-13.261 1.73l18.393 10.62c1.248-4.687-.732-9.81-5.132-12.35zM5.5 20.524c4.401 2.541 9.828 1.694 13.262-1.73L.369 8.174c-1.249 4.687.731 9.81 5.132 12.35z"/></g><g fill="#D80027"><path d="M14.108 9.804a3.108 3.108 0 1 1-5.843-1.478 3.825 3.825 0 1 0 5.47 0c.238.44.373.943.373 1.478z"/><path d="M10.282 6.218h1.435v7.173h-1.435z"/><path d="M13.39 7.653H8.61c0 .33.288.597.618.597h-.02c0 .33.267.598.597.598 0 .33.268.598.598.598h1.196c.33 0 .597-.268.597-.598.33 0 .598-.268.598-.598h-.02c.33 0 .618-.267.618-.597zM7.652 13.869h6.695v1.435H7.652z"/><path d="M12.434 14.348h2.87v1.434h-2.87zM6.696 14.348h2.87v1.434h-2.87z"/></g></g></svg>
